G75*
%MOIN*%
%OFA0B0*%
%FSLAX25Y25*%
%IPPOS*%
%LPD*%
%AMOC8*
5,1,8,0,0,1.08239X$1,22.5*
%
%ADD10OC8,0.10000*%
%ADD11R,0.05550X0.05550*%
%ADD12C,0.05550*%
%ADD13C,0.06731*%
%ADD14C,0.07200*%
%ADD15C,0.07600*%
%ADD16C,0.07400*%
%ADD17C,0.06500*%
%ADD18R,0.06500X0.06500*%
%ADD19C,0.02400*%
%ADD20C,0.01600*%
%ADD21R,0.04362X0.04362*%
%ADD22C,0.04000*%
D10*
X0111800Y0031800D03*
X0171800Y0031800D03*
X0186800Y0031800D03*
X0186800Y0061800D03*
X0211800Y0081800D03*
X0246800Y0061800D03*
X0246800Y0031800D03*
X0171800Y0086800D03*
X0111800Y0086800D03*
X0211800Y0141800D03*
X0211800Y0171800D03*
X0241800Y0171800D03*
X0241800Y0231800D03*
X0211800Y0231800D03*
X0391800Y0236800D03*
X0391800Y0216800D03*
D11*
X0136800Y0296800D03*
D12*
X0136800Y0286800D03*
X0136800Y0276800D03*
X0136800Y0266800D03*
D13*
X0071800Y0080165D02*
X0071800Y0073435D01*
X0061800Y0073435D02*
X0061800Y0080165D01*
X0051800Y0080165D02*
X0051800Y0073435D01*
X0041800Y0073435D02*
X0041800Y0080165D01*
X0031800Y0080165D02*
X0031800Y0073435D01*
X0021800Y0073435D02*
X0021800Y0080165D01*
D14*
X0263200Y0081800D02*
X0270400Y0081800D01*
X0270400Y0071800D02*
X0263200Y0071800D01*
X0263200Y0061800D02*
X0270400Y0061800D01*
X0270400Y0091800D02*
X0263200Y0091800D01*
X0263200Y0101800D02*
X0270400Y0101800D01*
X0270400Y0111800D02*
X0263200Y0111800D01*
X0263200Y0121800D02*
X0270400Y0121800D01*
X0270400Y0131800D02*
X0263200Y0131800D01*
X0353200Y0131800D02*
X0360400Y0131800D01*
X0360400Y0121800D02*
X0353200Y0121800D01*
X0353200Y0111800D02*
X0360400Y0111800D01*
X0360400Y0101800D02*
X0353200Y0101800D01*
X0353200Y0091800D02*
X0360400Y0091800D01*
X0360400Y0081800D02*
X0353200Y0081800D01*
X0353200Y0071800D02*
X0360400Y0071800D01*
X0360400Y0061800D02*
X0353200Y0061800D01*
X0353200Y0206800D02*
X0360400Y0206800D01*
X0360400Y0216800D02*
X0353200Y0216800D01*
X0353200Y0226800D02*
X0360400Y0226800D01*
X0360400Y0236800D02*
X0353200Y0236800D01*
X0353200Y0246800D02*
X0360400Y0246800D01*
X0360400Y0256800D02*
X0353200Y0256800D01*
X0353200Y0266800D02*
X0360400Y0266800D01*
X0360400Y0276800D02*
X0353200Y0276800D01*
X0270400Y0276800D02*
X0263200Y0276800D01*
X0263200Y0266800D02*
X0270400Y0266800D01*
X0270400Y0256800D02*
X0263200Y0256800D01*
X0263200Y0246800D02*
X0270400Y0246800D01*
X0270400Y0236800D02*
X0263200Y0236800D01*
X0263200Y0226800D02*
X0270400Y0226800D01*
X0270400Y0216800D02*
X0263200Y0216800D01*
X0263200Y0206800D02*
X0270400Y0206800D01*
D15*
X0391800Y0186800D03*
X0391800Y0176800D03*
X0391800Y0146800D03*
X0391800Y0136800D03*
X0391800Y0106800D03*
X0391800Y0096800D03*
D16*
X0081800Y0283100D02*
X0081800Y0290500D01*
X0071800Y0290500D02*
X0071800Y0283100D01*
D17*
X0081800Y0041800D03*
D18*
X0081800Y0031800D03*
D19*
X0111800Y0031800D01*
X0081800Y0031800D02*
X0076800Y0031800D01*
X0046800Y0061800D01*
X0026800Y0061800D01*
X0021800Y0066800D01*
X0021800Y0076800D01*
X0041800Y0076800D02*
X0041800Y0086800D01*
X0046800Y0091800D01*
X0061800Y0091800D01*
X0071800Y0101800D01*
X0206800Y0101800D01*
X0246800Y0141800D01*
X0286800Y0141800D01*
X0291800Y0136800D01*
X0291800Y0116800D01*
X0286800Y0111800D01*
X0266800Y0111800D01*
X0266800Y0121800D02*
X0236800Y0121800D01*
X0211800Y0096800D01*
X0076800Y0096800D01*
X0061800Y0081800D01*
X0061800Y0076800D01*
X0171800Y0106800D02*
X0201800Y0106800D01*
X0266800Y0171800D01*
X0316800Y0171800D01*
X0331800Y0186800D01*
X0391800Y0186800D01*
X0376800Y0161800D02*
X0391800Y0146800D01*
X0376800Y0161800D02*
X0351800Y0161800D01*
X0316800Y0181800D02*
X0221800Y0181800D01*
X0211800Y0171800D01*
X0201800Y0176800D02*
X0201800Y0161800D01*
X0211800Y0151800D01*
X0211800Y0141800D01*
X0241800Y0161800D02*
X0246800Y0161800D01*
X0241800Y0161800D02*
X0241800Y0171800D01*
X0241800Y0196800D02*
X0221800Y0196800D01*
X0201800Y0176800D01*
X0241800Y0196800D02*
X0251800Y0206800D01*
X0251800Y0226800D01*
X0261800Y0236800D01*
X0241800Y0231800D02*
X0241800Y0266800D01*
X0271800Y0296800D01*
X0306800Y0296800D01*
X0336800Y0266800D01*
X0356800Y0266800D01*
X0356800Y0216800D02*
X0341800Y0216800D01*
X0331800Y0206800D01*
X0331800Y0196800D01*
X0316800Y0181800D01*
X0356800Y0216800D02*
X0391800Y0216800D01*
X0356800Y0101800D02*
X0331800Y0101800D01*
X0261800Y0031800D01*
X0246800Y0031800D01*
D20*
X0007600Y0007600D02*
X0007600Y0310961D01*
X0419701Y0310961D01*
X0419701Y0007600D01*
X0007600Y0007600D01*
X0007600Y0008194D02*
X0419701Y0008194D01*
X0419701Y0009793D02*
X0007600Y0009793D01*
X0007600Y0011391D02*
X0024593Y0011391D01*
X0026158Y0010743D02*
X0020900Y0012921D01*
X0020900Y0012921D01*
X0016385Y0016385D01*
X0016385Y0016385D01*
X0012921Y0020900D01*
X0012921Y0020900D01*
X0010743Y0026158D01*
X0010743Y0026158D01*
X0010000Y0031800D01*
X0010000Y0031800D01*
X0010743Y0037442D01*
X0010743Y0037442D01*
X0012921Y0042700D01*
X0012921Y0042700D01*
X0016385Y0047215D01*
X0016385Y0047215D01*
X0016385Y0047215D01*
X0020900Y0050679D01*
X0020900Y0050679D01*
X0026158Y0052857D01*
X0026158Y0052857D01*
X0031800Y0053600D01*
X0031800Y0053600D01*
X0037442Y0052857D01*
X0037442Y0052857D01*
X0042700Y0050679D01*
X0042700Y0050679D01*
X0047215Y0047215D01*
X0047215Y0047215D01*
X0047215Y0047215D01*
X0050679Y0042700D01*
X0050679Y0042700D01*
X0052857Y0037442D01*
X0053600Y0031800D01*
X0052857Y0026158D01*
X0052857Y0026158D01*
X0050679Y0020900D01*
X0047215Y0016385D01*
X0047215Y0016385D01*
X0042700Y0012921D01*
X0037442Y0010743D01*
X0037442Y0010743D01*
X0031800Y0010000D01*
X0031800Y0010000D01*
X0026158Y0010743D01*
X0026158Y0010743D01*
X0020810Y0012990D02*
X0007600Y0012990D01*
X0007600Y0014588D02*
X0018727Y0014588D01*
X0016644Y0016187D02*
X0007600Y0016187D01*
X0007600Y0017785D02*
X0015311Y0017785D01*
X0014084Y0019384D02*
X0007600Y0019384D01*
X0007600Y0020982D02*
X0012887Y0020982D01*
X0012224Y0022581D02*
X0007600Y0022581D01*
X0007600Y0024179D02*
X0011562Y0024179D01*
X0010900Y0025778D02*
X0007600Y0025778D01*
X0007600Y0027376D02*
X0010582Y0027376D01*
X0010372Y0028975D02*
X0007600Y0028975D01*
X0007600Y0030573D02*
X0010162Y0030573D01*
X0010049Y0032172D02*
X0007600Y0032172D01*
X0007600Y0033770D02*
X0010259Y0033770D01*
X0010470Y0035369D02*
X0007600Y0035369D01*
X0007600Y0036967D02*
X0010680Y0036967D01*
X0011208Y0038566D02*
X0007600Y0038566D01*
X0007600Y0040164D02*
X0011870Y0040164D01*
X0012532Y0041763D02*
X0007600Y0041763D01*
X0007600Y0043361D02*
X0013428Y0043361D01*
X0014655Y0044960D02*
X0007600Y0044960D01*
X0007600Y0046558D02*
X0015881Y0046558D01*
X0017613Y0048157D02*
X0007600Y0048157D01*
X0007600Y0049755D02*
X0019696Y0049755D01*
X0022528Y0051354D02*
X0007600Y0051354D01*
X0007600Y0052952D02*
X0026881Y0052952D01*
X0025408Y0054800D02*
X0043901Y0054800D01*
X0070866Y0027835D01*
X0070866Y0027835D01*
X0072835Y0025866D01*
X0073498Y0025591D01*
X0073633Y0025265D01*
X0075265Y0023633D01*
X0077396Y0022750D01*
X0086204Y0022750D01*
X0088335Y0023633D01*
X0089502Y0024800D01*
X0103527Y0024800D01*
X0107326Y0021000D01*
X0116273Y0021000D01*
X0122600Y0027326D01*
X0122600Y0036273D01*
X0116273Y0042600D01*
X0107326Y0042600D01*
X0103527Y0038800D01*
X0089502Y0038800D01*
X0088335Y0039967D01*
X0086728Y0040633D01*
X0086850Y0041403D01*
X0086850Y0041800D01*
X0086850Y0042197D01*
X0086726Y0042983D01*
X0086480Y0043739D01*
X0086119Y0044447D01*
X0085652Y0045090D01*
X0085090Y0045652D01*
X0084447Y0046119D01*
X0083739Y0046480D01*
X0082983Y0046726D01*
X0082197Y0046850D01*
X0081800Y0046850D01*
X0081800Y0041800D01*
X0081800Y0041800D01*
X0086850Y0041800D01*
X0081800Y0041800D01*
X0081800Y0041800D01*
X0081800Y0041800D01*
X0076750Y0041800D01*
X0076750Y0042197D01*
X0076874Y0042983D01*
X0077120Y0043739D01*
X0077481Y0044447D01*
X0077948Y0045090D01*
X0078510Y0045652D01*
X0079153Y0046119D01*
X0079861Y0046480D01*
X0080617Y0046726D01*
X0081403Y0046850D01*
X0081800Y0046850D01*
X0081800Y0041800D01*
X0076750Y0041800D01*
X0076750Y0041749D01*
X0050765Y0067734D01*
X0049560Y0068233D01*
X0049570Y0068243D01*
X0049752Y0068681D01*
X0049817Y0068648D01*
X0050590Y0068396D01*
X0051393Y0068269D01*
X0051517Y0068269D01*
X0051517Y0076517D01*
X0052083Y0076517D01*
X0052083Y0068269D01*
X0052207Y0068269D01*
X0053010Y0068396D01*
X0053783Y0068648D01*
X0053848Y0068681D01*
X0054030Y0068243D01*
X0056608Y0065665D01*
X0059977Y0064269D01*
X0063623Y0064269D01*
X0066800Y0065585D01*
X0069977Y0064269D01*
X0073623Y0064269D01*
X0076992Y0065665D01*
X0079570Y0068243D01*
X0080965Y0071612D01*
X0080965Y0074934D01*
X0085031Y0079000D01*
X0104000Y0079000D01*
X0104000Y0075248D01*
X0105187Y0072382D01*
X0120187Y0057382D01*
X0122382Y0055187D01*
X0125248Y0054000D01*
X0138569Y0054000D01*
X0161000Y0031569D01*
X0161000Y0027326D01*
X0167326Y0021000D01*
X0176273Y0021000D01*
X0179273Y0024000D01*
X0179326Y0024000D01*
X0182326Y0021000D01*
X0191273Y0021000D01*
X0194273Y0024000D01*
X0218569Y0024000D01*
X0225187Y0017382D01*
X0227382Y0015187D01*
X0230248Y0014000D01*
X0263352Y0014000D01*
X0266218Y0015187D01*
X0305031Y0054000D01*
X0347706Y0054000D01*
X0347875Y0053831D01*
X0351330Y0052400D01*
X0362270Y0052400D01*
X0365725Y0053831D01*
X0368369Y0056475D01*
X0369800Y0059930D01*
X0369800Y0063670D01*
X0368369Y0067125D01*
X0365725Y0069769D01*
X0365454Y0069881D01*
X0365667Y0070535D01*
X0365800Y0071375D01*
X0365800Y0071600D01*
X0357000Y0071600D01*
X0357000Y0072000D01*
X0365800Y0072000D01*
X0365800Y0072225D01*
X0365667Y0073065D01*
X0365454Y0073719D01*
X0365725Y0073831D01*
X0368369Y0076475D01*
X0369800Y0079930D01*
X0369800Y0083670D01*
X0368503Y0086800D01*
X0369800Y0089930D01*
X0369800Y0093670D01*
X0368503Y0096800D01*
X0369800Y0099930D01*
X0369800Y0103670D01*
X0368503Y0106800D01*
X0369800Y0109930D01*
X0369800Y0113670D01*
X0368503Y0116800D01*
X0369800Y0119930D01*
X0369800Y0123670D01*
X0368503Y0126800D01*
X0369800Y0129930D01*
X0369800Y0133670D01*
X0368369Y0137125D01*
X0365725Y0139769D01*
X0362270Y0141200D01*
X0351330Y0141200D01*
X0347875Y0139769D01*
X0345231Y0137125D01*
X0343800Y0133670D01*
X0343800Y0129930D01*
X0345097Y0126800D01*
X0343800Y0123670D01*
X0343800Y0119930D01*
X0345097Y0116800D01*
X0343800Y0113670D01*
X0343800Y0109930D01*
X0344268Y0108800D01*
X0330408Y0108800D01*
X0327835Y0107734D01*
X0325866Y0105765D01*
X0279637Y0059536D01*
X0279800Y0059930D01*
X0279800Y0063670D01*
X0278503Y0066800D01*
X0279800Y0069930D01*
X0279800Y0073670D01*
X0278503Y0076800D01*
X0279800Y0079930D01*
X0279800Y0083670D01*
X0278503Y0086800D01*
X0279800Y0089930D01*
X0279800Y0093670D01*
X0278503Y0096800D01*
X0279800Y0099930D01*
X0279800Y0103670D01*
X0279332Y0104800D01*
X0288192Y0104800D01*
X0290765Y0105866D01*
X0292734Y0107835D01*
X0295765Y0110866D01*
X0297734Y0112835D01*
X0298800Y0115408D01*
X0298800Y0138192D01*
X0297734Y0140765D01*
X0295765Y0142734D01*
X0290765Y0147734D01*
X0288192Y0148800D01*
X0253699Y0148800D01*
X0269699Y0164800D01*
X0318192Y0164800D01*
X0320765Y0165866D01*
X0322734Y0167835D01*
X0334699Y0179800D01*
X0385224Y0179800D01*
X0386362Y0178662D01*
X0386498Y0178605D01*
X0386338Y0178111D01*
X0386200Y0177241D01*
X0386200Y0176800D01*
X0391800Y0176800D01*
X0397400Y0176800D01*
X0397400Y0177241D01*
X0397262Y0178111D01*
X0397102Y0178605D01*
X0397238Y0178662D01*
X0399938Y0181362D01*
X0401400Y0184890D01*
X0401400Y0188710D01*
X0399938Y0192238D01*
X0397238Y0194938D01*
X0393710Y0196400D01*
X0389890Y0196400D01*
X0386362Y0194938D01*
X0385224Y0193800D01*
X0338134Y0193800D01*
X0338800Y0195408D01*
X0338800Y0203901D01*
X0343963Y0209064D01*
X0343800Y0208670D01*
X0343800Y0204930D01*
X0345231Y0201475D01*
X0347875Y0198831D01*
X0351330Y0197400D01*
X0362270Y0197400D01*
X0365725Y0198831D01*
X0368369Y0201475D01*
X0369800Y0204930D01*
X0369800Y0208670D01*
X0369332Y0209800D01*
X0383526Y0209800D01*
X0387326Y0206000D01*
X0396273Y0206000D01*
X0402600Y0212326D01*
X0402600Y0221273D01*
X0396273Y0227600D01*
X0387326Y0227600D01*
X0383526Y0223800D01*
X0369332Y0223800D01*
X0369800Y0224930D01*
X0369800Y0228670D01*
X0368503Y0231800D01*
X0369800Y0234930D01*
X0369800Y0238670D01*
X0368503Y0241800D01*
X0369800Y0244930D01*
X0369800Y0248670D01*
X0368503Y0251800D01*
X0369800Y0254930D01*
X0369800Y0258670D01*
X0368503Y0261800D01*
X0369800Y0264930D01*
X0369800Y0268670D01*
X0368503Y0271800D01*
X0369800Y0274930D01*
X0369800Y0278670D01*
X0368369Y0282125D01*
X0365725Y0284769D01*
X0362270Y0286200D01*
X0351330Y0286200D01*
X0347875Y0284769D01*
X0345231Y0282125D01*
X0343800Y0278670D01*
X0343800Y0274930D01*
X0344268Y0273800D01*
X0339699Y0273800D01*
X0310765Y0302734D01*
X0308192Y0303800D01*
X0270408Y0303800D01*
X0267835Y0302734D01*
X0265866Y0300765D01*
X0235866Y0270765D01*
X0234800Y0268192D01*
X0234800Y0240073D01*
X0231000Y0236273D01*
X0231000Y0227326D01*
X0237326Y0221000D01*
X0244800Y0221000D01*
X0244800Y0209699D01*
X0238901Y0203800D01*
X0220408Y0203800D01*
X0217835Y0202734D01*
X0197835Y0182734D01*
X0195866Y0180765D01*
X0194800Y0178192D01*
X0194800Y0160408D01*
X0195866Y0157835D01*
X0204214Y0149487D01*
X0201000Y0146273D01*
X0201000Y0137326D01*
X0207326Y0131000D01*
X0216101Y0131000D01*
X0198901Y0113800D01*
X0177365Y0113800D01*
X0177267Y0113898D01*
X0175135Y0114781D01*
X0168465Y0114781D01*
X0166333Y0113898D01*
X0164702Y0112267D01*
X0163819Y0110135D01*
X0163819Y0108800D01*
X0070408Y0108800D01*
X0067835Y0107734D01*
X0065866Y0105765D01*
X0058901Y0098800D01*
X0045408Y0098800D01*
X0042835Y0097734D01*
X0040866Y0095765D01*
X0035866Y0090765D01*
X0034800Y0088192D01*
X0034800Y0086127D01*
X0034030Y0085357D01*
X0033848Y0084919D01*
X0033783Y0084952D01*
X0033010Y0085204D01*
X0032207Y0085331D01*
X0032083Y0085331D01*
X0032083Y0077083D01*
X0031517Y0077083D01*
X0031517Y0085331D01*
X0031393Y0085331D01*
X0030590Y0085204D01*
X0029817Y0084952D01*
X0029752Y0084919D01*
X0029570Y0085357D01*
X0026992Y0087935D01*
X0023623Y0089331D01*
X0019977Y0089331D01*
X0016608Y0087935D01*
X0014030Y0085357D01*
X0012635Y0081988D01*
X0012635Y0071612D01*
X0014030Y0068243D01*
X0014800Y0067473D01*
X0014800Y0065408D01*
X0015866Y0062835D01*
X0017835Y0060866D01*
X0020866Y0057835D01*
X0020866Y0057835D01*
X0022835Y0055866D01*
X0025408Y0054800D01*
X0022551Y0056149D02*
X0007600Y0056149D01*
X0007600Y0054551D02*
X0044150Y0054551D01*
X0045748Y0052952D02*
X0036719Y0052952D01*
X0041072Y0051354D02*
X0047347Y0051354D01*
X0048945Y0049755D02*
X0043904Y0049755D01*
X0045987Y0048157D02*
X0050544Y0048157D01*
X0052142Y0046558D02*
X0047719Y0046558D01*
X0048945Y0044960D02*
X0053741Y0044960D01*
X0055339Y0043361D02*
X0050172Y0043361D01*
X0051068Y0041763D02*
X0056938Y0041763D01*
X0058536Y0040164D02*
X0051730Y0040164D01*
X0052392Y0038566D02*
X0060135Y0038566D01*
X0061733Y0036967D02*
X0052920Y0036967D01*
X0052857Y0037442D02*
X0052857Y0037442D01*
X0053130Y0035369D02*
X0063332Y0035369D01*
X0064930Y0033770D02*
X0053341Y0033770D01*
X0053551Y0032172D02*
X0066529Y0032172D01*
X0068127Y0030573D02*
X0053438Y0030573D01*
X0053228Y0028975D02*
X0069726Y0028975D01*
X0071324Y0027376D02*
X0053018Y0027376D01*
X0052700Y0025778D02*
X0073047Y0025778D01*
X0074718Y0024179D02*
X0052038Y0024179D01*
X0051375Y0022581D02*
X0105746Y0022581D01*
X0104147Y0024179D02*
X0088882Y0024179D01*
X0087859Y0040164D02*
X0104891Y0040164D01*
X0106489Y0041763D02*
X0086850Y0041763D01*
X0086603Y0043361D02*
X0149208Y0043361D01*
X0150806Y0041763D02*
X0117111Y0041763D01*
X0118709Y0040164D02*
X0152405Y0040164D01*
X0154003Y0038566D02*
X0120308Y0038566D01*
X0121906Y0036967D02*
X0155602Y0036967D01*
X0157200Y0035369D02*
X0122600Y0035369D01*
X0122600Y0033770D02*
X0158799Y0033770D01*
X0160397Y0032172D02*
X0122600Y0032172D01*
X0122600Y0030573D02*
X0161000Y0030573D01*
X0161000Y0028975D02*
X0122600Y0028975D01*
X0122600Y0027376D02*
X0161000Y0027376D01*
X0162549Y0025778D02*
X0121051Y0025778D01*
X0119453Y0024179D02*
X0164147Y0024179D01*
X0165746Y0022581D02*
X0117854Y0022581D01*
X0146011Y0046558D02*
X0083498Y0046558D01*
X0081800Y0046558D02*
X0081800Y0046558D01*
X0081800Y0044960D02*
X0081800Y0044960D01*
X0081800Y0043361D02*
X0081800Y0043361D01*
X0080102Y0046558D02*
X0071941Y0046558D01*
X0073540Y0044960D02*
X0077854Y0044960D01*
X0076997Y0043361D02*
X0075138Y0043361D01*
X0076737Y0041763D02*
X0076750Y0041763D01*
X0070343Y0048157D02*
X0144412Y0048157D01*
X0142814Y0049755D02*
X0068744Y0049755D01*
X0067146Y0051354D02*
X0141215Y0051354D01*
X0139617Y0052952D02*
X0065547Y0052952D01*
X0063949Y0054551D02*
X0123919Y0054551D01*
X0121420Y0056149D02*
X0062350Y0056149D01*
X0060752Y0057748D02*
X0119821Y0057748D01*
X0118223Y0059346D02*
X0059153Y0059346D01*
X0057555Y0060945D02*
X0116624Y0060945D01*
X0115026Y0062543D02*
X0055956Y0062543D01*
X0054358Y0064142D02*
X0113427Y0064142D01*
X0111829Y0065740D02*
X0077068Y0065740D01*
X0078666Y0067339D02*
X0110230Y0067339D01*
X0108632Y0068937D02*
X0079858Y0068937D01*
X0080520Y0070536D02*
X0107033Y0070536D01*
X0105435Y0072134D02*
X0080965Y0072134D01*
X0080965Y0073733D02*
X0104628Y0073733D01*
X0104000Y0075332D02*
X0081362Y0075332D01*
X0082961Y0076930D02*
X0104000Y0076930D01*
X0104000Y0078529D02*
X0084559Y0078529D01*
X0056532Y0065740D02*
X0052759Y0065740D01*
X0051161Y0067339D02*
X0054934Y0067339D01*
X0052083Y0068937D02*
X0051517Y0068937D01*
X0051517Y0070536D02*
X0052083Y0070536D01*
X0052083Y0072134D02*
X0051517Y0072134D01*
X0051517Y0073733D02*
X0052083Y0073733D01*
X0052083Y0075332D02*
X0051517Y0075332D01*
X0034800Y0086521D02*
X0028406Y0086521D01*
X0029750Y0084923D02*
X0029759Y0084923D01*
X0031517Y0084923D02*
X0032083Y0084923D01*
X0032083Y0083324D02*
X0031517Y0083324D01*
X0031517Y0081726D02*
X0032083Y0081726D01*
X0032083Y0080127D02*
X0031517Y0080127D01*
X0031517Y0078529D02*
X0032083Y0078529D01*
X0033841Y0084923D02*
X0033850Y0084923D01*
X0034800Y0088120D02*
X0026547Y0088120D01*
X0035432Y0089718D02*
X0007600Y0089718D01*
X0007600Y0088120D02*
X0017053Y0088120D01*
X0015194Y0086521D02*
X0007600Y0086521D01*
X0007600Y0084923D02*
X0013850Y0084923D01*
X0013188Y0083324D02*
X0007600Y0083324D01*
X0007600Y0081726D02*
X0012635Y0081726D01*
X0012635Y0080127D02*
X0007600Y0080127D01*
X0007600Y0078529D02*
X0012635Y0078529D01*
X0012635Y0076930D02*
X0007600Y0076930D01*
X0007600Y0075332D02*
X0012635Y0075332D01*
X0012635Y0073733D02*
X0007600Y0073733D01*
X0007600Y0072134D02*
X0012635Y0072134D01*
X0013080Y0070536D02*
X0007600Y0070536D01*
X0007600Y0068937D02*
X0013742Y0068937D01*
X0014800Y0067339D02*
X0007600Y0067339D01*
X0007600Y0065740D02*
X0014800Y0065740D01*
X0015324Y0064142D02*
X0007600Y0064142D01*
X0007600Y0062543D02*
X0016157Y0062543D01*
X0017756Y0060945D02*
X0007600Y0060945D01*
X0007600Y0059346D02*
X0019354Y0059346D01*
X0017835Y0060866D02*
X0017835Y0060866D01*
X0020953Y0057748D02*
X0007600Y0057748D01*
X0007600Y0091317D02*
X0036417Y0091317D01*
X0038016Y0092915D02*
X0007600Y0092915D01*
X0007600Y0094514D02*
X0039614Y0094514D01*
X0041213Y0096112D02*
X0007600Y0096112D01*
X0007600Y0097711D02*
X0042811Y0097711D01*
X0059410Y0099309D02*
X0007600Y0099309D01*
X0007600Y0100908D02*
X0061008Y0100908D01*
X0062607Y0102506D02*
X0007600Y0102506D01*
X0007600Y0104105D02*
X0064205Y0104105D01*
X0065804Y0105703D02*
X0007600Y0105703D01*
X0007600Y0107302D02*
X0067402Y0107302D01*
X0089299Y0149109D02*
X0095729Y0146446D01*
X0102554Y0145088D01*
X0109513Y0145088D01*
X0116338Y0146446D01*
X0122767Y0149109D01*
X0128553Y0152975D01*
X0133474Y0157896D01*
X0137340Y0163682D01*
X0140003Y0170111D01*
X0141361Y0176936D01*
X0141361Y0183895D01*
X0140003Y0190720D01*
X0137340Y0197150D01*
X0133474Y0202936D01*
X0128553Y0207856D01*
X0122767Y0211723D01*
X0116338Y0214386D01*
X0109513Y0215743D01*
X0102554Y0215743D01*
X0095729Y0214386D01*
X0089299Y0211723D01*
X0083513Y0207856D01*
X0078593Y0202936D01*
X0074726Y0197150D01*
X0072063Y0190720D01*
X0070706Y0183895D01*
X0070706Y0176936D01*
X0072063Y0170111D01*
X0074726Y0163682D01*
X0078593Y0157896D01*
X0083513Y0152975D01*
X0089299Y0149109D01*
X0089893Y0148863D02*
X0007600Y0148863D01*
X0007600Y0147265D02*
X0093752Y0147265D01*
X0087275Y0150462D02*
X0007600Y0150462D01*
X0007600Y0152060D02*
X0084883Y0152060D01*
X0082830Y0153659D02*
X0007600Y0153659D01*
X0007600Y0155257D02*
X0081231Y0155257D01*
X0079633Y0156856D02*
X0007600Y0156856D01*
X0007600Y0158454D02*
X0078219Y0158454D01*
X0077151Y0160053D02*
X0007600Y0160053D01*
X0007600Y0161651D02*
X0076083Y0161651D01*
X0075015Y0163250D02*
X0007600Y0163250D01*
X0007600Y0164848D02*
X0074243Y0164848D01*
X0073581Y0166447D02*
X0007600Y0166447D01*
X0007600Y0168045D02*
X0072919Y0168045D01*
X0072257Y0169644D02*
X0007600Y0169644D01*
X0007600Y0171242D02*
X0071838Y0171242D01*
X0071520Y0172841D02*
X0007600Y0172841D01*
X0007600Y0174439D02*
X0071202Y0174439D01*
X0070884Y0176038D02*
X0007600Y0176038D01*
X0007600Y0177636D02*
X0070706Y0177636D01*
X0070706Y0179235D02*
X0007600Y0179235D01*
X0007600Y0180833D02*
X0070706Y0180833D01*
X0070706Y0182432D02*
X0007600Y0182432D01*
X0007600Y0184030D02*
X0070733Y0184030D01*
X0071051Y0185629D02*
X0007600Y0185629D01*
X0007600Y0187227D02*
X0071369Y0187227D01*
X0071686Y0188826D02*
X0007600Y0188826D01*
X0007600Y0190424D02*
X0072004Y0190424D01*
X0072603Y0192023D02*
X0007600Y0192023D01*
X0007600Y0193621D02*
X0073265Y0193621D01*
X0073927Y0195220D02*
X0007600Y0195220D01*
X0007600Y0196818D02*
X0074589Y0196818D01*
X0075573Y0198417D02*
X0007600Y0198417D01*
X0007600Y0200015D02*
X0076641Y0200015D01*
X0077709Y0201614D02*
X0007600Y0201614D01*
X0007600Y0203212D02*
X0078869Y0203212D01*
X0080468Y0204811D02*
X0007600Y0204811D01*
X0007600Y0206409D02*
X0082066Y0206409D01*
X0083740Y0208008D02*
X0007600Y0208008D01*
X0007600Y0209606D02*
X0086132Y0209606D01*
X0088525Y0211205D02*
X0007600Y0211205D01*
X0007600Y0212803D02*
X0091909Y0212803D01*
X0095811Y0214402D02*
X0007600Y0214402D01*
X0007600Y0216001D02*
X0244800Y0216001D01*
X0244800Y0217599D02*
X0007600Y0217599D01*
X0007600Y0219198D02*
X0244800Y0219198D01*
X0244800Y0220796D02*
X0007600Y0220796D01*
X0007600Y0222395D02*
X0205932Y0222395D01*
X0207326Y0221000D02*
X0216273Y0221000D01*
X0222600Y0227326D01*
X0222600Y0236273D01*
X0216273Y0242600D01*
X0207326Y0242600D01*
X0204327Y0239600D01*
X0110031Y0239600D01*
X0104600Y0245031D01*
X0104600Y0273352D01*
X0103413Y0276218D01*
X0091300Y0288331D01*
X0091300Y0289000D01*
X0128430Y0289000D01*
X0128225Y0288506D01*
X0128225Y0285094D01*
X0129531Y0281943D01*
X0129673Y0281800D01*
X0129531Y0281657D01*
X0128225Y0278506D01*
X0128225Y0275094D01*
X0129531Y0271943D01*
X0131943Y0269531D01*
X0132863Y0269150D01*
X0132560Y0268556D01*
X0132338Y0267871D01*
X0132225Y0267160D01*
X0132225Y0266800D01*
X0136800Y0266800D01*
X0141375Y0266800D01*
X0141375Y0267160D01*
X0141262Y0267871D01*
X0141040Y0268556D01*
X0140737Y0269150D01*
X0141657Y0269531D01*
X0144069Y0271943D01*
X0145375Y0275094D01*
X0145375Y0278506D01*
X0144069Y0281657D01*
X0143927Y0281800D01*
X0144069Y0281943D01*
X0145375Y0285094D01*
X0145375Y0288506D01*
X0144462Y0290710D01*
X0144492Y0290740D01*
X0145375Y0292871D01*
X0145375Y0300728D01*
X0144492Y0302860D01*
X0142860Y0304492D01*
X0140728Y0305375D01*
X0132871Y0305375D01*
X0131001Y0304600D01*
X0085248Y0304600D01*
X0082382Y0303413D01*
X0078304Y0299334D01*
X0076419Y0298554D01*
X0073746Y0295881D01*
X0073662Y0295678D01*
X0073088Y0295865D01*
X0072233Y0296000D01*
X0072100Y0296000D01*
X0072100Y0287100D01*
X0071500Y0287100D01*
X0071500Y0296000D01*
X0071367Y0296000D01*
X0070512Y0295865D01*
X0069689Y0295597D01*
X0068917Y0295204D01*
X0068217Y0294695D01*
X0067605Y0294083D01*
X0067096Y0293383D01*
X0066703Y0292611D01*
X0066435Y0291788D01*
X0066300Y0290933D01*
X0066300Y0287100D01*
X0071500Y0287100D01*
X0071500Y0286500D01*
X0072100Y0286500D01*
X0072100Y0277600D01*
X0072233Y0277600D01*
X0073088Y0277735D01*
X0073662Y0277922D01*
X0073746Y0277719D01*
X0076419Y0275046D01*
X0079910Y0273600D01*
X0083690Y0273600D01*
X0083887Y0273682D01*
X0089000Y0268569D01*
X0089000Y0240248D01*
X0090187Y0237382D01*
X0092382Y0235187D01*
X0102382Y0225187D01*
X0105248Y0224000D01*
X0204327Y0224000D01*
X0207326Y0221000D01*
X0204333Y0223993D02*
X0007600Y0223993D01*
X0007600Y0225592D02*
X0101978Y0225592D01*
X0100379Y0227190D02*
X0007600Y0227190D01*
X0007600Y0228789D02*
X0098781Y0228789D01*
X0097182Y0230387D02*
X0007600Y0230387D01*
X0007600Y0231986D02*
X0095583Y0231986D01*
X0093985Y0233584D02*
X0007600Y0233584D01*
X0007600Y0235183D02*
X0092386Y0235183D01*
X0090788Y0236781D02*
X0007600Y0236781D01*
X0007600Y0238380D02*
X0089774Y0238380D01*
X0089112Y0239978D02*
X0007600Y0239978D01*
X0007600Y0241577D02*
X0089000Y0241577D01*
X0089000Y0243175D02*
X0007600Y0243175D01*
X0007600Y0244774D02*
X0089000Y0244774D01*
X0089000Y0246372D02*
X0007600Y0246372D01*
X0007600Y0247971D02*
X0089000Y0247971D01*
X0089000Y0249569D02*
X0007600Y0249569D01*
X0007600Y0251168D02*
X0089000Y0251168D01*
X0089000Y0252766D02*
X0007600Y0252766D01*
X0007600Y0254365D02*
X0089000Y0254365D01*
X0089000Y0255963D02*
X0007600Y0255963D01*
X0007600Y0257562D02*
X0089000Y0257562D01*
X0089000Y0259160D02*
X0007600Y0259160D01*
X0007600Y0260759D02*
X0089000Y0260759D01*
X0089000Y0262357D02*
X0007600Y0262357D01*
X0007600Y0263956D02*
X0089000Y0263956D01*
X0089000Y0265554D02*
X0036011Y0265554D01*
X0037442Y0265743D02*
X0042700Y0267921D01*
X0047215Y0271385D01*
X0047215Y0271385D01*
X0047215Y0271385D01*
X0050679Y0275900D01*
X0052857Y0281158D01*
X0053600Y0286800D01*
X0052857Y0292442D01*
X0052857Y0292442D01*
X0050679Y0297700D01*
X0047215Y0302215D01*
X0047215Y0302215D01*
X0047215Y0302215D01*
X0042700Y0305679D01*
X0037442Y0307857D01*
X0031800Y0308600D01*
X0026158Y0307857D01*
X0026158Y0307857D01*
X0020900Y0305679D01*
X0016385Y0302215D01*
X0016385Y0302215D01*
X0016385Y0302215D01*
X0012921Y0297700D01*
X0010743Y0292442D01*
X0010000Y0286800D01*
X0010000Y0286800D01*
X0010743Y0281158D01*
X0012921Y0275900D01*
X0016385Y0271385D01*
X0020900Y0267921D01*
X0026158Y0265743D01*
X0031800Y0265000D01*
X0037442Y0265743D01*
X0040846Y0267153D02*
X0089000Y0267153D01*
X0088818Y0268751D02*
X0043783Y0268751D01*
X0045866Y0270350D02*
X0087219Y0270350D01*
X0085621Y0271948D02*
X0047647Y0271948D01*
X0048874Y0273547D02*
X0084022Y0273547D01*
X0076320Y0275145D02*
X0050100Y0275145D01*
X0050679Y0275900D02*
X0050679Y0275900D01*
X0051029Y0276744D02*
X0074721Y0276744D01*
X0072100Y0278342D02*
X0071500Y0278342D01*
X0071500Y0277600D02*
X0071500Y0286500D01*
X0066300Y0286500D01*
X0066300Y0282667D01*
X0066435Y0281812D01*
X0066703Y0280989D01*
X0067096Y0280217D01*
X0067605Y0279517D01*
X0068217Y0278905D01*
X0068917Y0278396D01*
X0069689Y0278003D01*
X0070512Y0277735D01*
X0071367Y0277600D01*
X0071500Y0277600D01*
X0071500Y0279941D02*
X0072100Y0279941D01*
X0072100Y0281539D02*
X0071500Y0281539D01*
X0071500Y0283138D02*
X0072100Y0283138D01*
X0072100Y0284737D02*
X0071500Y0284737D01*
X0071500Y0286335D02*
X0072100Y0286335D01*
X0072100Y0287934D02*
X0071500Y0287934D01*
X0071500Y0289532D02*
X0072100Y0289532D01*
X0072100Y0291131D02*
X0071500Y0291131D01*
X0071500Y0292729D02*
X0072100Y0292729D01*
X0072100Y0294328D02*
X0071500Y0294328D01*
X0071500Y0295926D02*
X0072100Y0295926D01*
X0072699Y0295926D02*
X0073791Y0295926D01*
X0075390Y0297525D02*
X0050752Y0297525D01*
X0050679Y0297700D02*
X0050679Y0297700D01*
X0049587Y0299123D02*
X0077793Y0299123D01*
X0079691Y0300722D02*
X0048361Y0300722D01*
X0047078Y0302320D02*
X0081289Y0302320D01*
X0083604Y0303919D02*
X0044995Y0303919D01*
X0042911Y0305517D02*
X0380689Y0305517D01*
X0380900Y0305679D02*
X0376385Y0302215D01*
X0372921Y0297700D01*
X0370743Y0292442D01*
X0370000Y0286800D01*
X0370000Y0286800D01*
X0370743Y0281158D01*
X0372921Y0275900D01*
X0376385Y0271385D01*
X0380900Y0267921D01*
X0386158Y0265743D01*
X0391800Y0265000D01*
X0397442Y0265743D01*
X0397442Y0265743D01*
X0402700Y0267921D01*
X0407215Y0271385D01*
X0407215Y0271385D01*
X0407215Y0271385D01*
X0410679Y0275900D01*
X0412857Y0281158D01*
X0413600Y0286800D01*
X0412857Y0292442D01*
X0412857Y0292442D01*
X0410679Y0297700D01*
X0407215Y0302215D01*
X0407215Y0302215D01*
X0402700Y0305679D01*
X0397442Y0307857D01*
X0391800Y0308600D01*
X0386158Y0307857D01*
X0380900Y0305679D01*
X0380900Y0305679D01*
X0378605Y0303919D02*
X0143433Y0303919D01*
X0144716Y0302320D02*
X0267421Y0302320D01*
X0265822Y0300722D02*
X0145375Y0300722D01*
X0145375Y0299123D02*
X0264224Y0299123D01*
X0262625Y0297525D02*
X0145375Y0297525D01*
X0145375Y0295926D02*
X0261027Y0295926D01*
X0259428Y0294328D02*
X0145375Y0294328D01*
X0145316Y0292729D02*
X0257830Y0292729D01*
X0256231Y0291131D02*
X0144654Y0291131D01*
X0144950Y0289532D02*
X0254633Y0289532D01*
X0253034Y0287934D02*
X0145375Y0287934D01*
X0145375Y0286335D02*
X0251436Y0286335D01*
X0249837Y0284737D02*
X0145227Y0284737D01*
X0144564Y0283138D02*
X0248239Y0283138D01*
X0246640Y0281539D02*
X0144118Y0281539D01*
X0144780Y0279941D02*
X0245041Y0279941D01*
X0243443Y0278342D02*
X0145375Y0278342D01*
X0145375Y0276744D02*
X0241844Y0276744D01*
X0240246Y0275145D02*
X0145375Y0275145D01*
X0144734Y0273547D02*
X0238647Y0273547D01*
X0237049Y0271948D02*
X0144072Y0271948D01*
X0142477Y0270350D02*
X0235694Y0270350D01*
X0235032Y0268751D02*
X0140940Y0268751D01*
X0141375Y0267153D02*
X0234800Y0267153D01*
X0234800Y0265554D02*
X0141205Y0265554D01*
X0141262Y0265729D02*
X0141375Y0266440D01*
X0141375Y0266800D01*
X0136800Y0266800D01*
X0136800Y0266800D01*
X0136800Y0266800D01*
X0136800Y0262225D01*
X0137160Y0262225D01*
X0137871Y0262338D01*
X0138556Y0262560D01*
X0139198Y0262887D01*
X0139780Y0263311D01*
X0140289Y0263820D01*
X0140713Y0264402D01*
X0141040Y0265044D01*
X0141262Y0265729D01*
X0140388Y0263956D02*
X0234800Y0263956D01*
X0234800Y0262357D02*
X0137931Y0262357D01*
X0136800Y0262357D02*
X0136800Y0262357D01*
X0136800Y0262225D02*
X0136800Y0266800D01*
X0136800Y0266800D01*
X0132225Y0266800D01*
X0132225Y0266440D01*
X0132338Y0265729D01*
X0132560Y0265044D01*
X0132887Y0264402D01*
X0133311Y0263820D01*
X0133820Y0263311D01*
X0134402Y0262887D01*
X0135044Y0262560D01*
X0135729Y0262338D01*
X0136440Y0262225D01*
X0136800Y0262225D01*
X0135669Y0262357D02*
X0104600Y0262357D01*
X0104600Y0260759D02*
X0234800Y0260759D01*
X0234800Y0259160D02*
X0104600Y0259160D01*
X0104600Y0257562D02*
X0234800Y0257562D01*
X0234800Y0255963D02*
X0104600Y0255963D01*
X0104600Y0254365D02*
X0234800Y0254365D01*
X0234800Y0252766D02*
X0104600Y0252766D01*
X0104600Y0251168D02*
X0234800Y0251168D01*
X0234800Y0249569D02*
X0104600Y0249569D01*
X0104600Y0247971D02*
X0234800Y0247971D01*
X0234800Y0246372D02*
X0104600Y0246372D01*
X0104857Y0244774D02*
X0234800Y0244774D01*
X0234800Y0243175D02*
X0106456Y0243175D01*
X0108054Y0241577D02*
X0206303Y0241577D01*
X0204705Y0239978D02*
X0109653Y0239978D01*
X0104600Y0263956D02*
X0133212Y0263956D01*
X0132394Y0265554D02*
X0104600Y0265554D01*
X0104600Y0267153D02*
X0132225Y0267153D01*
X0132660Y0268751D02*
X0104600Y0268751D01*
X0104600Y0270350D02*
X0131123Y0270350D01*
X0129528Y0271948D02*
X0104600Y0271948D01*
X0104519Y0273547D02*
X0128866Y0273547D01*
X0128225Y0275145D02*
X0103857Y0275145D01*
X0102887Y0276744D02*
X0128225Y0276744D01*
X0128225Y0278342D02*
X0101288Y0278342D01*
X0099690Y0279941D02*
X0128820Y0279941D01*
X0129482Y0281539D02*
X0098091Y0281539D01*
X0096493Y0283138D02*
X0129036Y0283138D01*
X0128373Y0284737D02*
X0094894Y0284737D01*
X0093296Y0286335D02*
X0128225Y0286335D01*
X0128225Y0287934D02*
X0091697Y0287934D01*
X0081800Y0286800D02*
X0081800Y0291800D01*
X0070901Y0295926D02*
X0051414Y0295926D01*
X0052076Y0294328D02*
X0067849Y0294328D01*
X0066763Y0292729D02*
X0052738Y0292729D01*
X0053030Y0291131D02*
X0066331Y0291131D01*
X0066300Y0289532D02*
X0053240Y0289532D01*
X0053451Y0287934D02*
X0066300Y0287934D01*
X0066300Y0286335D02*
X0053539Y0286335D01*
X0053328Y0284737D02*
X0066300Y0284737D01*
X0066300Y0283138D02*
X0053118Y0283138D01*
X0052907Y0281539D02*
X0066524Y0281539D01*
X0067297Y0279941D02*
X0052353Y0279941D01*
X0052857Y0281158D02*
X0052857Y0281158D01*
X0051691Y0278342D02*
X0069022Y0278342D01*
X0042700Y0305679D02*
X0042700Y0305679D01*
X0039232Y0307116D02*
X0384368Y0307116D01*
X0376522Y0302320D02*
X0311179Y0302320D01*
X0312778Y0300722D02*
X0375239Y0300722D01*
X0376385Y0302215D02*
X0376385Y0302215D01*
X0374013Y0299123D02*
X0314376Y0299123D01*
X0315975Y0297525D02*
X0372848Y0297525D01*
X0372921Y0297700D02*
X0372921Y0297700D01*
X0372186Y0295926D02*
X0317573Y0295926D01*
X0319172Y0294328D02*
X0371524Y0294328D01*
X0370862Y0292729D02*
X0320770Y0292729D01*
X0322369Y0291131D02*
X0370570Y0291131D01*
X0370743Y0292442D02*
X0370743Y0292442D01*
X0370360Y0289532D02*
X0323967Y0289532D01*
X0325566Y0287934D02*
X0370149Y0287934D01*
X0370061Y0286335D02*
X0327164Y0286335D01*
X0328763Y0284737D02*
X0347843Y0284737D01*
X0346244Y0283138D02*
X0330361Y0283138D01*
X0331960Y0281539D02*
X0344989Y0281539D01*
X0344327Y0279941D02*
X0333559Y0279941D01*
X0335157Y0278342D02*
X0343800Y0278342D01*
X0343800Y0276744D02*
X0336756Y0276744D01*
X0338354Y0275145D02*
X0343800Y0275145D01*
X0331343Y0262357D02*
X0278136Y0262357D01*
X0278369Y0262125D02*
X0275725Y0264769D01*
X0275454Y0264881D01*
X0275667Y0265535D01*
X0275800Y0266375D01*
X0275800Y0266600D01*
X0267000Y0266600D01*
X0267000Y0267000D01*
X0275800Y0267000D01*
X0275800Y0267225D01*
X0275667Y0268065D01*
X0275454Y0268719D01*
X0275725Y0268831D01*
X0278369Y0271475D01*
X0279800Y0274930D01*
X0279800Y0278670D01*
X0278369Y0282125D01*
X0275725Y0284769D01*
X0272270Y0286200D01*
X0271099Y0286200D01*
X0274699Y0289800D01*
X0303901Y0289800D01*
X0330866Y0262835D01*
X0332835Y0260866D01*
X0335408Y0259800D01*
X0344268Y0259800D01*
X0343800Y0258670D01*
X0343800Y0254930D01*
X0345097Y0251800D01*
X0343800Y0248670D01*
X0343800Y0244930D01*
X0345097Y0241800D01*
X0343800Y0238670D01*
X0343800Y0234930D01*
X0345097Y0231800D01*
X0343800Y0228670D01*
X0343800Y0224930D01*
X0344268Y0223800D01*
X0340408Y0223800D01*
X0337835Y0222734D01*
X0327835Y0212734D01*
X0325866Y0210765D01*
X0324800Y0208192D01*
X0324800Y0199699D01*
X0313901Y0188800D01*
X0223699Y0188800D01*
X0224699Y0189800D01*
X0243192Y0189800D01*
X0245765Y0190866D01*
X0247734Y0192835D01*
X0255803Y0200903D01*
X0257875Y0198831D01*
X0261330Y0197400D01*
X0272270Y0197400D01*
X0275725Y0198831D01*
X0278369Y0201475D01*
X0279800Y0204930D01*
X0279800Y0208670D01*
X0278503Y0211800D01*
X0279800Y0214930D01*
X0279800Y0218670D01*
X0278503Y0221800D01*
X0279800Y0224930D01*
X0279800Y0228670D01*
X0278503Y0231800D01*
X0279800Y0234930D01*
X0279800Y0238670D01*
X0278503Y0241800D01*
X0279800Y0244930D01*
X0279800Y0248670D01*
X0278503Y0251800D01*
X0279800Y0254930D01*
X0279800Y0258670D01*
X0278369Y0262125D01*
X0278935Y0260759D02*
X0333093Y0260759D01*
X0329745Y0263956D02*
X0276538Y0263956D01*
X0275670Y0265554D02*
X0328146Y0265554D01*
X0326548Y0267153D02*
X0275800Y0267153D01*
X0275532Y0268751D02*
X0324949Y0268751D01*
X0323351Y0270350D02*
X0277244Y0270350D01*
X0278565Y0271948D02*
X0321752Y0271948D01*
X0320154Y0273547D02*
X0279227Y0273547D01*
X0279800Y0275145D02*
X0318555Y0275145D01*
X0316957Y0276744D02*
X0279800Y0276744D01*
X0279800Y0278342D02*
X0315358Y0278342D01*
X0313760Y0279941D02*
X0279273Y0279941D01*
X0278611Y0281539D02*
X0312161Y0281539D01*
X0310563Y0283138D02*
X0277356Y0283138D01*
X0275757Y0284737D02*
X0308964Y0284737D01*
X0307365Y0286335D02*
X0271234Y0286335D01*
X0272833Y0287934D02*
X0305767Y0287934D01*
X0304168Y0289532D02*
X0274432Y0289532D01*
X0255803Y0270903D02*
X0257875Y0268831D01*
X0258146Y0268719D01*
X0257933Y0268065D01*
X0257800Y0267225D01*
X0257800Y0267000D01*
X0266600Y0267000D01*
X0266600Y0266600D01*
X0257800Y0266600D01*
X0257800Y0266375D01*
X0257933Y0265535D01*
X0258146Y0264881D01*
X0257875Y0264769D01*
X0255231Y0262125D01*
X0253800Y0258670D01*
X0253800Y0254930D01*
X0255097Y0251800D01*
X0253800Y0248670D01*
X0253800Y0244930D01*
X0255097Y0241800D01*
X0253821Y0238720D01*
X0251987Y0236886D01*
X0248800Y0240073D01*
X0248800Y0263901D01*
X0255803Y0270903D01*
X0255249Y0270350D02*
X0256356Y0270350D01*
X0258068Y0268751D02*
X0253651Y0268751D01*
X0252052Y0267153D02*
X0257800Y0267153D01*
X0257930Y0265554D02*
X0250454Y0265554D01*
X0248855Y0263956D02*
X0257062Y0263956D01*
X0255464Y0262357D02*
X0248800Y0262357D01*
X0248800Y0260759D02*
X0254665Y0260759D01*
X0254003Y0259160D02*
X0248800Y0259160D01*
X0248800Y0257562D02*
X0253800Y0257562D01*
X0253800Y0255963D02*
X0248800Y0255963D01*
X0248800Y0254365D02*
X0254034Y0254365D01*
X0254696Y0252766D02*
X0248800Y0252766D01*
X0248800Y0251168D02*
X0254835Y0251168D01*
X0254173Y0249569D02*
X0248800Y0249569D01*
X0248800Y0247971D02*
X0253800Y0247971D01*
X0253800Y0246372D02*
X0248800Y0246372D01*
X0248800Y0244774D02*
X0253865Y0244774D01*
X0254527Y0243175D02*
X0248800Y0243175D01*
X0248800Y0241577D02*
X0255004Y0241577D01*
X0254342Y0239978D02*
X0248895Y0239978D01*
X0250494Y0238380D02*
X0253480Y0238380D01*
X0261800Y0236800D02*
X0266800Y0236800D01*
X0278580Y0231986D02*
X0345020Y0231986D01*
X0344511Y0230387D02*
X0279089Y0230387D01*
X0279751Y0228789D02*
X0343849Y0228789D01*
X0343800Y0227190D02*
X0279800Y0227190D01*
X0279800Y0225592D02*
X0343800Y0225592D01*
X0344188Y0223993D02*
X0279412Y0223993D01*
X0278750Y0222395D02*
X0337495Y0222395D01*
X0335897Y0220796D02*
X0278919Y0220796D01*
X0279581Y0219198D02*
X0334298Y0219198D01*
X0332700Y0217599D02*
X0279800Y0217599D01*
X0279800Y0216001D02*
X0331101Y0216001D01*
X0329503Y0214402D02*
X0279581Y0214402D01*
X0278919Y0212803D02*
X0327904Y0212803D01*
X0326305Y0211205D02*
X0278750Y0211205D01*
X0279412Y0209606D02*
X0325386Y0209606D01*
X0324800Y0208008D02*
X0279800Y0208008D01*
X0279800Y0206409D02*
X0324800Y0206409D01*
X0324800Y0204811D02*
X0279751Y0204811D01*
X0279088Y0203212D02*
X0324800Y0203212D01*
X0324800Y0201614D02*
X0278426Y0201614D01*
X0276909Y0200015D02*
X0324800Y0200015D01*
X0323517Y0198417D02*
X0274725Y0198417D01*
X0258875Y0198417D02*
X0253316Y0198417D01*
X0251718Y0196818D02*
X0321919Y0196818D01*
X0320320Y0195220D02*
X0250119Y0195220D01*
X0248521Y0193621D02*
X0318722Y0193621D01*
X0317123Y0192023D02*
X0246922Y0192023D01*
X0244700Y0190424D02*
X0315525Y0190424D01*
X0313926Y0188826D02*
X0223725Y0188826D01*
X0213517Y0198417D02*
X0136493Y0198417D01*
X0137477Y0196818D02*
X0211919Y0196818D01*
X0210320Y0195220D02*
X0138139Y0195220D01*
X0138802Y0193621D02*
X0208722Y0193621D01*
X0207123Y0192023D02*
X0139464Y0192023D01*
X0140062Y0190424D02*
X0205525Y0190424D01*
X0203926Y0188826D02*
X0140380Y0188826D01*
X0140698Y0187227D02*
X0202328Y0187227D01*
X0200729Y0185629D02*
X0141016Y0185629D01*
X0141334Y0184030D02*
X0199131Y0184030D01*
X0197532Y0182432D02*
X0141361Y0182432D01*
X0141361Y0180833D02*
X0195934Y0180833D01*
X0195232Y0179235D02*
X0141361Y0179235D01*
X0141361Y0177636D02*
X0194800Y0177636D01*
X0194800Y0176038D02*
X0141182Y0176038D01*
X0140864Y0174439D02*
X0194800Y0174439D01*
X0194800Y0172841D02*
X0140546Y0172841D01*
X0140228Y0171242D02*
X0194800Y0171242D01*
X0194800Y0169644D02*
X0139810Y0169644D01*
X0139147Y0168045D02*
X0194800Y0168045D01*
X0194800Y0166447D02*
X0138485Y0166447D01*
X0137823Y0164848D02*
X0194800Y0164848D01*
X0194800Y0163250D02*
X0137051Y0163250D01*
X0135983Y0161651D02*
X0194800Y0161651D01*
X0194947Y0160053D02*
X0134915Y0160053D01*
X0133847Y0158454D02*
X0195609Y0158454D01*
X0196845Y0156856D02*
X0132434Y0156856D01*
X0130835Y0155257D02*
X0198443Y0155257D01*
X0200042Y0153659D02*
X0129237Y0153659D01*
X0127184Y0152060D02*
X0201640Y0152060D01*
X0203239Y0150462D02*
X0124792Y0150462D01*
X0122174Y0148863D02*
X0203590Y0148863D01*
X0201991Y0147265D02*
X0118314Y0147265D01*
X0112418Y0145666D02*
X0201000Y0145666D01*
X0201000Y0144068D02*
X0007600Y0144068D01*
X0007600Y0145666D02*
X0099649Y0145666D01*
X0164632Y0112097D02*
X0007600Y0112097D01*
X0007600Y0110499D02*
X0163970Y0110499D01*
X0163819Y0108900D02*
X0007600Y0108900D01*
X0007600Y0113696D02*
X0166131Y0113696D01*
X0161000Y0089800D02*
X0161000Y0082326D01*
X0167326Y0076000D01*
X0176273Y0076000D01*
X0182600Y0082326D01*
X0182600Y0089800D01*
X0213192Y0089800D01*
X0215765Y0090866D01*
X0239699Y0114800D01*
X0254268Y0114800D01*
X0253800Y0113670D01*
X0253800Y0109930D01*
X0255097Y0106800D01*
X0253800Y0103670D01*
X0253800Y0099930D01*
X0255097Y0096800D01*
X0253800Y0093670D01*
X0253800Y0089930D01*
X0255097Y0086800D01*
X0253800Y0083670D01*
X0253800Y0079930D01*
X0255097Y0076800D01*
X0253800Y0073670D01*
X0253800Y0070073D01*
X0251273Y0072600D01*
X0242326Y0072600D01*
X0236000Y0066273D01*
X0236000Y0057326D01*
X0242326Y0051000D01*
X0251273Y0051000D01*
X0255990Y0055716D01*
X0257875Y0053831D01*
X0261330Y0052400D01*
X0272270Y0052400D01*
X0272664Y0052563D01*
X0258901Y0038800D01*
X0255073Y0038800D01*
X0251273Y0042600D01*
X0242326Y0042600D01*
X0236000Y0036273D01*
X0236000Y0029600D01*
X0235031Y0029600D01*
X0226218Y0038413D01*
X0223352Y0039600D01*
X0194273Y0039600D01*
X0191273Y0042600D01*
X0182326Y0042600D01*
X0179326Y0039600D01*
X0179273Y0039600D01*
X0176273Y0042600D01*
X0172031Y0042600D01*
X0146218Y0068413D01*
X0143352Y0069600D01*
X0130031Y0069600D01*
X0119952Y0079679D01*
X0122600Y0082326D01*
X0122600Y0089800D01*
X0161000Y0089800D01*
X0161000Y0089718D02*
X0122600Y0089718D01*
X0122600Y0088120D02*
X0161000Y0088120D01*
X0161000Y0086521D02*
X0122600Y0086521D01*
X0122600Y0084923D02*
X0161000Y0084923D01*
X0161000Y0083324D02*
X0122600Y0083324D01*
X0121999Y0081726D02*
X0161601Y0081726D01*
X0163199Y0080127D02*
X0120401Y0080127D01*
X0121102Y0078529D02*
X0164798Y0078529D01*
X0166396Y0076930D02*
X0122701Y0076930D01*
X0124299Y0075332D02*
X0208652Y0075332D01*
X0208983Y0075000D02*
X0205000Y0078983D01*
X0205000Y0081600D01*
X0211600Y0081600D01*
X0211600Y0082000D01*
X0211600Y0088600D01*
X0208983Y0088600D01*
X0205000Y0084617D01*
X0205000Y0082000D01*
X0211600Y0082000D01*
X0212000Y0082000D01*
X0212000Y0088600D01*
X0214617Y0088600D01*
X0218600Y0084617D01*
X0218600Y0082000D01*
X0212000Y0082000D01*
X0212000Y0081600D01*
X0218600Y0081600D01*
X0218600Y0078983D01*
X0214617Y0075000D01*
X0212000Y0075000D01*
X0212000Y0081600D01*
X0211600Y0081600D01*
X0211600Y0075000D01*
X0208983Y0075000D01*
X0211600Y0075332D02*
X0212000Y0075332D01*
X0212000Y0076930D02*
X0211600Y0076930D01*
X0211600Y0078529D02*
X0212000Y0078529D01*
X0212000Y0080127D02*
X0211600Y0080127D01*
X0211600Y0081726D02*
X0181999Y0081726D01*
X0182600Y0083324D02*
X0205000Y0083324D01*
X0205306Y0084923D02*
X0182600Y0084923D01*
X0182600Y0086521D02*
X0206904Y0086521D01*
X0208503Y0088120D02*
X0182600Y0088120D01*
X0182600Y0089718D02*
X0253888Y0089718D01*
X0253800Y0091317D02*
X0216216Y0091317D01*
X0217815Y0092915D02*
X0253800Y0092915D01*
X0254150Y0094514D02*
X0219413Y0094514D01*
X0221012Y0096112D02*
X0254812Y0096112D01*
X0254719Y0097711D02*
X0222610Y0097711D01*
X0224209Y0099309D02*
X0254057Y0099309D01*
X0253800Y0100908D02*
X0225807Y0100908D01*
X0227406Y0102506D02*
X0253800Y0102506D01*
X0253980Y0104105D02*
X0229004Y0104105D01*
X0230603Y0105703D02*
X0254642Y0105703D01*
X0254889Y0107302D02*
X0232201Y0107302D01*
X0233800Y0108900D02*
X0254227Y0108900D01*
X0253800Y0110499D02*
X0235398Y0110499D01*
X0236997Y0112097D02*
X0253800Y0112097D01*
X0253811Y0113696D02*
X0238595Y0113696D01*
X0214781Y0129681D02*
X0007600Y0129681D01*
X0007600Y0131279D02*
X0207047Y0131279D01*
X0205449Y0132878D02*
X0007600Y0132878D01*
X0007600Y0134476D02*
X0203850Y0134476D01*
X0202252Y0136075D02*
X0007600Y0136075D01*
X0007600Y0137673D02*
X0201000Y0137673D01*
X0201000Y0139272D02*
X0007600Y0139272D01*
X0007600Y0140870D02*
X0201000Y0140870D01*
X0201000Y0142469D02*
X0007600Y0142469D01*
X0007600Y0128082D02*
X0213183Y0128082D01*
X0211584Y0126484D02*
X0007600Y0126484D01*
X0007600Y0124885D02*
X0209986Y0124885D01*
X0208387Y0123287D02*
X0007600Y0123287D01*
X0007600Y0121688D02*
X0206789Y0121688D01*
X0205190Y0120090D02*
X0007600Y0120090D01*
X0007600Y0118491D02*
X0203592Y0118491D01*
X0201993Y0116893D02*
X0007600Y0116893D01*
X0007600Y0115294D02*
X0200395Y0115294D01*
X0211600Y0088120D02*
X0212000Y0088120D01*
X0212000Y0086521D02*
X0211600Y0086521D01*
X0211600Y0084923D02*
X0212000Y0084923D01*
X0212000Y0083324D02*
X0211600Y0083324D01*
X0212000Y0081726D02*
X0253800Y0081726D01*
X0253800Y0083324D02*
X0218600Y0083324D01*
X0218294Y0084923D02*
X0254319Y0084923D01*
X0254981Y0086521D02*
X0216696Y0086521D01*
X0215097Y0088120D02*
X0254550Y0088120D01*
X0253800Y0080127D02*
X0218600Y0080127D01*
X0218145Y0078529D02*
X0254381Y0078529D01*
X0255043Y0076930D02*
X0216547Y0076930D01*
X0214948Y0075332D02*
X0254488Y0075332D01*
X0253826Y0073733D02*
X0125898Y0073733D01*
X0127496Y0072134D02*
X0181861Y0072134D01*
X0182326Y0072600D02*
X0176000Y0066273D01*
X0176000Y0057326D01*
X0182326Y0051000D01*
X0191273Y0051000D01*
X0197600Y0057326D01*
X0197600Y0066273D01*
X0191273Y0072600D01*
X0182326Y0072600D01*
X0180262Y0070536D02*
X0129095Y0070536D01*
X0144951Y0068937D02*
X0178664Y0068937D01*
X0177065Y0067339D02*
X0147292Y0067339D01*
X0148890Y0065740D02*
X0176000Y0065740D01*
X0176000Y0064142D02*
X0150489Y0064142D01*
X0152087Y0062543D02*
X0176000Y0062543D01*
X0176000Y0060945D02*
X0153686Y0060945D01*
X0155284Y0059346D02*
X0176000Y0059346D01*
X0176000Y0057748D02*
X0156883Y0057748D01*
X0158481Y0056149D02*
X0177177Y0056149D01*
X0178776Y0054551D02*
X0160080Y0054551D01*
X0161678Y0052952D02*
X0180374Y0052952D01*
X0181973Y0051354D02*
X0163277Y0051354D01*
X0164876Y0049755D02*
X0269856Y0049755D01*
X0268257Y0048157D02*
X0166474Y0048157D01*
X0168073Y0046558D02*
X0266659Y0046558D01*
X0265060Y0044960D02*
X0169671Y0044960D01*
X0171270Y0043361D02*
X0263462Y0043361D01*
X0261863Y0041763D02*
X0252111Y0041763D01*
X0253709Y0040164D02*
X0260265Y0040164D01*
X0259997Y0052952D02*
X0253226Y0052952D01*
X0251627Y0051354D02*
X0271454Y0051354D01*
X0279800Y0060945D02*
X0281045Y0060945D01*
X0279800Y0062543D02*
X0282644Y0062543D01*
X0284242Y0064142D02*
X0279604Y0064142D01*
X0278942Y0065740D02*
X0285841Y0065740D01*
X0287439Y0067339D02*
X0278727Y0067339D01*
X0279389Y0068937D02*
X0289038Y0068937D01*
X0290637Y0070536D02*
X0279800Y0070536D01*
X0279800Y0072134D02*
X0292235Y0072134D01*
X0293834Y0073733D02*
X0279774Y0073733D01*
X0279112Y0075332D02*
X0295432Y0075332D01*
X0297031Y0076930D02*
X0278557Y0076930D01*
X0279219Y0078529D02*
X0298629Y0078529D01*
X0300228Y0080127D02*
X0279800Y0080127D01*
X0279800Y0081726D02*
X0301826Y0081726D01*
X0303425Y0083324D02*
X0279800Y0083324D01*
X0279281Y0084923D02*
X0305023Y0084923D01*
X0306622Y0086521D02*
X0278619Y0086521D01*
X0279050Y0088120D02*
X0308220Y0088120D01*
X0309819Y0089718D02*
X0279712Y0089718D01*
X0279800Y0091317D02*
X0311417Y0091317D01*
X0313016Y0092915D02*
X0279800Y0092915D01*
X0279450Y0094514D02*
X0314614Y0094514D01*
X0316213Y0096112D02*
X0278788Y0096112D01*
X0278881Y0097711D02*
X0317811Y0097711D01*
X0319410Y0099309D02*
X0279543Y0099309D01*
X0279800Y0100908D02*
X0321008Y0100908D01*
X0322607Y0102506D02*
X0279800Y0102506D01*
X0279620Y0104105D02*
X0324205Y0104105D01*
X0325804Y0105703D02*
X0290373Y0105703D01*
X0292201Y0107302D02*
X0327402Y0107302D01*
X0334699Y0094800D02*
X0344268Y0094800D01*
X0343800Y0093670D01*
X0343800Y0089930D01*
X0345097Y0086800D01*
X0343800Y0083670D01*
X0343800Y0079930D01*
X0345231Y0076475D01*
X0347875Y0073831D01*
X0348146Y0073719D01*
X0347933Y0073065D01*
X0347800Y0072225D01*
X0347800Y0072000D01*
X0356600Y0072000D01*
X0356600Y0071600D01*
X0347800Y0071600D01*
X0347800Y0071375D01*
X0347933Y0070535D01*
X0348146Y0069881D01*
X0347875Y0069769D01*
X0347706Y0069600D01*
X0309499Y0069600D01*
X0334699Y0094800D01*
X0334413Y0094514D02*
X0344150Y0094514D01*
X0343800Y0092915D02*
X0332815Y0092915D01*
X0331216Y0091317D02*
X0343800Y0091317D01*
X0343888Y0089718D02*
X0329618Y0089718D01*
X0328019Y0088120D02*
X0344550Y0088120D01*
X0344981Y0086521D02*
X0326421Y0086521D01*
X0324822Y0084923D02*
X0344319Y0084923D01*
X0343800Y0083324D02*
X0323224Y0083324D01*
X0321625Y0081726D02*
X0343800Y0081726D01*
X0343800Y0080127D02*
X0320027Y0080127D01*
X0318428Y0078529D02*
X0344381Y0078529D01*
X0345043Y0076930D02*
X0316830Y0076930D01*
X0315231Y0075332D02*
X0346375Y0075332D01*
X0348112Y0073733D02*
X0313632Y0073733D01*
X0312034Y0072134D02*
X0347800Y0072134D01*
X0347933Y0070536D02*
X0310435Y0070536D01*
X0303983Y0052952D02*
X0349997Y0052952D01*
X0363603Y0052952D02*
X0386881Y0052952D01*
X0386158Y0052857D02*
X0386158Y0052857D01*
X0391800Y0053600D01*
X0391800Y0053600D01*
X0397442Y0052857D01*
X0397442Y0052857D01*
X0402700Y0050679D01*
X0402700Y0050679D01*
X0407215Y0047215D01*
X0407215Y0047215D01*
X0407215Y0047215D01*
X0410679Y0042700D01*
X0410679Y0042700D01*
X0412857Y0037442D01*
X0412857Y0037442D01*
X0413600Y0031800D01*
X0412857Y0026158D01*
X0412857Y0026158D01*
X0410679Y0020900D01*
X0410679Y0020900D01*
X0407215Y0016385D01*
X0407215Y0016385D01*
X0407215Y0016385D01*
X0402700Y0012921D01*
X0402700Y0012921D01*
X0397442Y0010743D01*
X0397442Y0010743D01*
X0391800Y0010000D01*
X0391800Y0010000D01*
X0386158Y0010743D01*
X0386158Y0010743D01*
X0380900Y0012921D01*
X0380900Y0012921D01*
X0376385Y0016385D01*
X0376385Y0016385D01*
X0376385Y0016385D01*
X0372921Y0020900D01*
X0372921Y0020900D01*
X0370743Y0026158D01*
X0370743Y0026158D01*
X0370000Y0031800D01*
X0370000Y0031800D01*
X0370743Y0037442D01*
X0370743Y0037442D01*
X0372921Y0042700D01*
X0372921Y0042700D01*
X0376385Y0047215D01*
X0376385Y0047215D01*
X0376385Y0047215D01*
X0380900Y0050679D01*
X0380900Y0050679D01*
X0386158Y0052857D01*
X0382528Y0051354D02*
X0302385Y0051354D01*
X0300786Y0049755D02*
X0379696Y0049755D01*
X0377613Y0048157D02*
X0299188Y0048157D01*
X0297589Y0046558D02*
X0375881Y0046558D01*
X0374655Y0044960D02*
X0295991Y0044960D01*
X0294392Y0043361D02*
X0373428Y0043361D01*
X0372532Y0041763D02*
X0292794Y0041763D01*
X0291195Y0040164D02*
X0371870Y0040164D01*
X0371208Y0038566D02*
X0289597Y0038566D01*
X0287998Y0036967D02*
X0370680Y0036967D01*
X0370470Y0035369D02*
X0286400Y0035369D01*
X0284801Y0033770D02*
X0370259Y0033770D01*
X0370049Y0032172D02*
X0283203Y0032172D01*
X0281604Y0030573D02*
X0370162Y0030573D01*
X0370372Y0028975D02*
X0280006Y0028975D01*
X0278407Y0027376D02*
X0370582Y0027376D01*
X0370900Y0025778D02*
X0276809Y0025778D01*
X0275210Y0024179D02*
X0371562Y0024179D01*
X0372224Y0022581D02*
X0273612Y0022581D01*
X0272013Y0020982D02*
X0372887Y0020982D01*
X0374084Y0019384D02*
X0270414Y0019384D01*
X0268816Y0017785D02*
X0375311Y0017785D01*
X0376644Y0016187D02*
X0267217Y0016187D01*
X0264771Y0014588D02*
X0378727Y0014588D01*
X0380810Y0012990D02*
X0042790Y0012990D01*
X0044873Y0014588D02*
X0228829Y0014588D01*
X0226383Y0016187D02*
X0046956Y0016187D01*
X0048289Y0017785D02*
X0224784Y0017785D01*
X0223185Y0019384D02*
X0049516Y0019384D01*
X0050713Y0020982D02*
X0221587Y0020982D01*
X0219988Y0022581D02*
X0192854Y0022581D01*
X0191800Y0031800D02*
X0186800Y0031800D01*
X0180746Y0022581D02*
X0177854Y0022581D01*
X0178709Y0040164D02*
X0179891Y0040164D01*
X0181489Y0041763D02*
X0177111Y0041763D01*
X0192111Y0041763D02*
X0241489Y0041763D01*
X0239891Y0040164D02*
X0193709Y0040164D01*
X0191627Y0051354D02*
X0241973Y0051354D01*
X0240374Y0052952D02*
X0193226Y0052952D01*
X0194824Y0054551D02*
X0238776Y0054551D01*
X0237177Y0056149D02*
X0196423Y0056149D01*
X0197600Y0057748D02*
X0236000Y0057748D01*
X0236000Y0059346D02*
X0197600Y0059346D01*
X0197600Y0060945D02*
X0236000Y0060945D01*
X0236000Y0062543D02*
X0197600Y0062543D01*
X0197600Y0064142D02*
X0236000Y0064142D01*
X0236000Y0065740D02*
X0197600Y0065740D01*
X0196535Y0067339D02*
X0237065Y0067339D01*
X0238664Y0068937D02*
X0194936Y0068937D01*
X0193337Y0070536D02*
X0240262Y0070536D01*
X0241861Y0072134D02*
X0191739Y0072134D01*
X0180401Y0080127D02*
X0205000Y0080127D01*
X0205455Y0078529D02*
X0178802Y0078529D01*
X0177204Y0076930D02*
X0207053Y0076930D01*
X0251739Y0072134D02*
X0253800Y0072134D01*
X0253800Y0070536D02*
X0253337Y0070536D01*
X0254824Y0054551D02*
X0257156Y0054551D01*
X0238292Y0038566D02*
X0225848Y0038566D01*
X0227664Y0036967D02*
X0236694Y0036967D01*
X0236000Y0035369D02*
X0229262Y0035369D01*
X0230861Y0033770D02*
X0236000Y0033770D01*
X0236000Y0032172D02*
X0232459Y0032172D01*
X0234058Y0030573D02*
X0236000Y0030573D01*
X0147609Y0044960D02*
X0085746Y0044960D01*
X0039007Y0011391D02*
X0384593Y0011391D01*
X0399007Y0011391D02*
X0419701Y0011391D01*
X0419701Y0012990D02*
X0402790Y0012990D01*
X0404873Y0014588D02*
X0419701Y0014588D01*
X0419701Y0016187D02*
X0406956Y0016187D01*
X0408289Y0017785D02*
X0419701Y0017785D01*
X0419701Y0019384D02*
X0409516Y0019384D01*
X0410713Y0020982D02*
X0419701Y0020982D01*
X0419701Y0022581D02*
X0411375Y0022581D01*
X0412038Y0024179D02*
X0419701Y0024179D01*
X0419701Y0025778D02*
X0412700Y0025778D01*
X0413018Y0027376D02*
X0419701Y0027376D01*
X0419701Y0028975D02*
X0413228Y0028975D01*
X0413438Y0030573D02*
X0419701Y0030573D01*
X0419701Y0032172D02*
X0413551Y0032172D01*
X0413341Y0033770D02*
X0419701Y0033770D01*
X0419701Y0035369D02*
X0413130Y0035369D01*
X0412920Y0036967D02*
X0419701Y0036967D01*
X0419701Y0038566D02*
X0412392Y0038566D01*
X0411730Y0040164D02*
X0419701Y0040164D01*
X0419701Y0041763D02*
X0411068Y0041763D01*
X0410172Y0043361D02*
X0419701Y0043361D01*
X0419701Y0044960D02*
X0408945Y0044960D01*
X0407719Y0046558D02*
X0419701Y0046558D01*
X0419701Y0048157D02*
X0405987Y0048157D01*
X0403904Y0049755D02*
X0419701Y0049755D01*
X0419701Y0051354D02*
X0401072Y0051354D01*
X0396719Y0052952D02*
X0419701Y0052952D01*
X0419701Y0054551D02*
X0366444Y0054551D01*
X0368043Y0056149D02*
X0419701Y0056149D01*
X0419701Y0057748D02*
X0368896Y0057748D01*
X0369558Y0059346D02*
X0419701Y0059346D01*
X0419701Y0060945D02*
X0369800Y0060945D01*
X0369800Y0062543D02*
X0419701Y0062543D01*
X0419701Y0064142D02*
X0369604Y0064142D01*
X0368942Y0065740D02*
X0419701Y0065740D01*
X0419701Y0067339D02*
X0368155Y0067339D01*
X0366556Y0068937D02*
X0419701Y0068937D01*
X0419701Y0070536D02*
X0365667Y0070536D01*
X0365800Y0072134D02*
X0419701Y0072134D01*
X0419701Y0073733D02*
X0365488Y0073733D01*
X0367225Y0075332D02*
X0419701Y0075332D01*
X0419701Y0076930D02*
X0368557Y0076930D01*
X0369219Y0078529D02*
X0419701Y0078529D01*
X0419701Y0080127D02*
X0369800Y0080127D01*
X0369800Y0081726D02*
X0419701Y0081726D01*
X0419701Y0083324D02*
X0369800Y0083324D01*
X0369281Y0084923D02*
X0419701Y0084923D01*
X0419701Y0086521D02*
X0368619Y0086521D01*
X0369050Y0088120D02*
X0419701Y0088120D01*
X0419701Y0089718D02*
X0369712Y0089718D01*
X0369800Y0091317D02*
X0390623Y0091317D01*
X0390489Y0091338D02*
X0391359Y0091200D01*
X0391800Y0091200D01*
X0392241Y0091200D01*
X0393111Y0091338D01*
X0393950Y0091610D01*
X0394735Y0092010D01*
X0395448Y0092529D01*
X0396071Y0093152D01*
X0396590Y0093865D01*
X0396990Y0094650D01*
X0397262Y0095489D01*
X0397400Y0096359D01*
X0397400Y0096800D01*
X0397400Y0097241D01*
X0397262Y0098111D01*
X0397102Y0098605D01*
X0397238Y0098662D01*
X0399938Y0101362D01*
X0401400Y0104890D01*
X0401400Y0108710D01*
X0399938Y0112238D01*
X0397238Y0114938D01*
X0393710Y0116400D01*
X0389890Y0116400D01*
X0386362Y0114938D01*
X0383662Y0112238D01*
X0382200Y0108710D01*
X0382200Y0104890D01*
X0383662Y0101362D01*
X0386362Y0098662D01*
X0386498Y0098605D01*
X0386338Y0098111D01*
X0386200Y0097241D01*
X0386200Y0096800D01*
X0391800Y0096800D01*
X0397400Y0096800D01*
X0391800Y0096800D01*
X0391800Y0096800D01*
X0391800Y0096800D01*
X0391800Y0091200D01*
X0391800Y0096800D01*
X0391800Y0096800D01*
X0386200Y0096800D01*
X0386200Y0096359D01*
X0386338Y0095489D01*
X0386610Y0094650D01*
X0387010Y0093865D01*
X0387529Y0093152D01*
X0388152Y0092529D01*
X0388865Y0092010D01*
X0389650Y0091610D01*
X0390489Y0091338D01*
X0391800Y0091317D02*
X0391800Y0091317D01*
X0392977Y0091317D02*
X0419701Y0091317D01*
X0419701Y0092915D02*
X0395835Y0092915D01*
X0396920Y0094514D02*
X0419701Y0094514D01*
X0419701Y0096112D02*
X0397361Y0096112D01*
X0397326Y0097711D02*
X0419701Y0097711D01*
X0419701Y0099309D02*
X0397886Y0099309D01*
X0399484Y0100908D02*
X0419701Y0100908D01*
X0419701Y0102506D02*
X0400412Y0102506D01*
X0401075Y0104105D02*
X0419701Y0104105D01*
X0419701Y0105703D02*
X0401400Y0105703D01*
X0401400Y0107302D02*
X0419701Y0107302D01*
X0419701Y0108900D02*
X0401321Y0108900D01*
X0400659Y0110499D02*
X0419701Y0110499D01*
X0419701Y0112097D02*
X0399997Y0112097D01*
X0398481Y0113696D02*
X0419701Y0113696D01*
X0419701Y0115294D02*
X0396379Y0115294D01*
X0387221Y0115294D02*
X0369127Y0115294D01*
X0368542Y0116893D02*
X0419701Y0116893D01*
X0419701Y0118491D02*
X0369204Y0118491D01*
X0369800Y0120090D02*
X0419701Y0120090D01*
X0419701Y0121688D02*
X0369800Y0121688D01*
X0369800Y0123287D02*
X0419701Y0123287D01*
X0419701Y0124885D02*
X0369296Y0124885D01*
X0368634Y0126484D02*
X0419701Y0126484D01*
X0419701Y0128082D02*
X0369035Y0128082D01*
X0369697Y0129681D02*
X0419701Y0129681D01*
X0419701Y0131279D02*
X0392742Y0131279D01*
X0393111Y0131338D02*
X0393950Y0131610D01*
X0394735Y0132010D01*
X0395448Y0132529D01*
X0396071Y0133152D01*
X0396590Y0133865D01*
X0396990Y0134650D01*
X0397262Y0135489D01*
X0397400Y0136359D01*
X0397400Y0136800D01*
X0397400Y0137241D01*
X0397262Y0138111D01*
X0397102Y0138605D01*
X0397238Y0138662D01*
X0399938Y0141362D01*
X0401400Y0144890D01*
X0401400Y0148710D01*
X0399938Y0152238D01*
X0397238Y0154938D01*
X0393710Y0156400D01*
X0392099Y0156400D01*
X0380765Y0167734D01*
X0378192Y0168800D01*
X0357365Y0168800D01*
X0357267Y0168898D01*
X0355135Y0169781D01*
X0348465Y0169781D01*
X0346333Y0168898D01*
X0344702Y0167267D01*
X0343819Y0165135D01*
X0343819Y0158465D01*
X0344702Y0156333D01*
X0346333Y0154702D01*
X0348465Y0153819D01*
X0355135Y0153819D01*
X0357267Y0154702D01*
X0357365Y0154800D01*
X0373901Y0154800D01*
X0382200Y0146501D01*
X0382200Y0144890D01*
X0383662Y0141362D01*
X0386362Y0138662D01*
X0386498Y0138605D01*
X0386338Y0138111D01*
X0386200Y0137241D01*
X0386200Y0136800D01*
X0391800Y0136800D01*
X0397400Y0136800D01*
X0391800Y0136800D01*
X0391800Y0136800D01*
X0391800Y0136800D01*
X0391800Y0131200D01*
X0392241Y0131200D01*
X0393111Y0131338D01*
X0391800Y0131279D02*
X0391800Y0131279D01*
X0391800Y0131200D02*
X0391800Y0136800D01*
X0391800Y0136800D01*
X0386200Y0136800D01*
X0386200Y0136359D01*
X0386338Y0135489D01*
X0386610Y0134650D01*
X0387010Y0133865D01*
X0387529Y0133152D01*
X0388152Y0132529D01*
X0388865Y0132010D01*
X0389650Y0131610D01*
X0390489Y0131338D01*
X0391359Y0131200D01*
X0391800Y0131200D01*
X0390858Y0131279D02*
X0369800Y0131279D01*
X0369800Y0132878D02*
X0387802Y0132878D01*
X0386699Y0134476D02*
X0369466Y0134476D01*
X0368804Y0136075D02*
X0386245Y0136075D01*
X0386269Y0137673D02*
X0367820Y0137673D01*
X0366222Y0139272D02*
X0385752Y0139272D01*
X0384153Y0140870D02*
X0363065Y0140870D01*
X0350535Y0140870D02*
X0297629Y0140870D01*
X0298353Y0139272D02*
X0347378Y0139272D01*
X0345780Y0137673D02*
X0298800Y0137673D01*
X0298800Y0136075D02*
X0344796Y0136075D01*
X0344134Y0134476D02*
X0298800Y0134476D01*
X0298800Y0132878D02*
X0343800Y0132878D01*
X0343800Y0131279D02*
X0298800Y0131279D01*
X0298800Y0129681D02*
X0343903Y0129681D01*
X0344565Y0128082D02*
X0298800Y0128082D01*
X0298800Y0126484D02*
X0344966Y0126484D01*
X0344304Y0124885D02*
X0298800Y0124885D01*
X0298800Y0123287D02*
X0343800Y0123287D01*
X0343800Y0121688D02*
X0298800Y0121688D01*
X0298800Y0120090D02*
X0343800Y0120090D01*
X0344396Y0118491D02*
X0298800Y0118491D01*
X0298800Y0116893D02*
X0345058Y0116893D01*
X0344473Y0115294D02*
X0298753Y0115294D01*
X0298091Y0113696D02*
X0343811Y0113696D01*
X0343800Y0112097D02*
X0296997Y0112097D01*
X0295765Y0110866D02*
X0295765Y0110866D01*
X0295398Y0110499D02*
X0343800Y0110499D01*
X0344227Y0108900D02*
X0293800Y0108900D01*
X0292734Y0107835D02*
X0292734Y0107835D01*
X0296030Y0142469D02*
X0383203Y0142469D01*
X0382541Y0144068D02*
X0294432Y0144068D01*
X0292833Y0145666D02*
X0382200Y0145666D01*
X0381436Y0147265D02*
X0291235Y0147265D01*
X0268149Y0163250D02*
X0343819Y0163250D01*
X0343819Y0164848D02*
X0318309Y0164848D01*
X0321346Y0166447D02*
X0344362Y0166447D01*
X0345481Y0168045D02*
X0322945Y0168045D01*
X0324543Y0169644D02*
X0348133Y0169644D01*
X0355467Y0169644D02*
X0419701Y0169644D01*
X0419701Y0171242D02*
X0392507Y0171242D01*
X0392241Y0171200D02*
X0393111Y0171338D01*
X0393950Y0171610D01*
X0394735Y0172010D01*
X0395448Y0172529D01*
X0396071Y0173152D01*
X0396590Y0173865D01*
X0396990Y0174650D01*
X0397262Y0175489D01*
X0397400Y0176359D01*
X0397400Y0176800D01*
X0391800Y0176800D01*
X0391800Y0176800D01*
X0391800Y0171200D01*
X0392241Y0171200D01*
X0391800Y0171200D02*
X0391800Y0176800D01*
X0391800Y0176800D01*
X0391800Y0176800D01*
X0386200Y0176800D01*
X0386200Y0176359D01*
X0386338Y0175489D01*
X0386610Y0174650D01*
X0387010Y0173865D01*
X0387529Y0173152D01*
X0388152Y0172529D01*
X0388865Y0172010D01*
X0389650Y0171610D01*
X0390489Y0171338D01*
X0391359Y0171200D01*
X0391800Y0171200D01*
X0391800Y0171242D02*
X0391800Y0171242D01*
X0391093Y0171242D02*
X0326142Y0171242D01*
X0327740Y0172841D02*
X0387840Y0172841D01*
X0386718Y0174439D02*
X0329339Y0174439D01*
X0330937Y0176038D02*
X0386251Y0176038D01*
X0386263Y0177636D02*
X0332536Y0177636D01*
X0334134Y0179235D02*
X0385789Y0179235D01*
X0391800Y0176038D02*
X0391800Y0176038D01*
X0391800Y0174439D02*
X0391800Y0174439D01*
X0391800Y0172841D02*
X0391800Y0172841D01*
X0395760Y0172841D02*
X0419701Y0172841D01*
X0419701Y0174439D02*
X0396882Y0174439D01*
X0397349Y0176038D02*
X0419701Y0176038D01*
X0419701Y0177636D02*
X0397337Y0177636D01*
X0397811Y0179235D02*
X0419701Y0179235D01*
X0419701Y0180833D02*
X0399410Y0180833D01*
X0400382Y0182432D02*
X0419701Y0182432D01*
X0419701Y0184030D02*
X0401044Y0184030D01*
X0401400Y0185629D02*
X0419701Y0185629D01*
X0419701Y0187227D02*
X0401400Y0187227D01*
X0401352Y0188826D02*
X0419701Y0188826D01*
X0419701Y0190424D02*
X0400690Y0190424D01*
X0400028Y0192023D02*
X0419701Y0192023D01*
X0419701Y0193621D02*
X0398555Y0193621D01*
X0396559Y0195220D02*
X0419701Y0195220D01*
X0419701Y0196818D02*
X0338800Y0196818D01*
X0338800Y0198417D02*
X0348875Y0198417D01*
X0346691Y0200015D02*
X0338800Y0200015D01*
X0338800Y0201614D02*
X0345174Y0201614D01*
X0344512Y0203212D02*
X0338800Y0203212D01*
X0339710Y0204811D02*
X0343849Y0204811D01*
X0343800Y0206409D02*
X0341309Y0206409D01*
X0342907Y0208008D02*
X0343800Y0208008D01*
X0338722Y0195220D02*
X0387041Y0195220D01*
X0386917Y0206409D02*
X0369800Y0206409D01*
X0369751Y0204811D02*
X0419701Y0204811D01*
X0419701Y0206409D02*
X0396683Y0206409D01*
X0398281Y0208008D02*
X0419701Y0208008D01*
X0419701Y0209606D02*
X0399880Y0209606D01*
X0401478Y0211205D02*
X0419701Y0211205D01*
X0419701Y0212803D02*
X0402600Y0212803D01*
X0402600Y0214402D02*
X0419701Y0214402D01*
X0419701Y0216001D02*
X0402600Y0216001D01*
X0402600Y0217599D02*
X0419701Y0217599D01*
X0419701Y0219198D02*
X0402600Y0219198D01*
X0402600Y0220796D02*
X0419701Y0220796D01*
X0419701Y0222395D02*
X0401479Y0222395D01*
X0399880Y0223993D02*
X0419701Y0223993D01*
X0419701Y0225592D02*
X0398282Y0225592D01*
X0396683Y0227190D02*
X0419701Y0227190D01*
X0419701Y0228789D02*
X0369751Y0228789D01*
X0369800Y0227190D02*
X0386917Y0227190D01*
X0385318Y0225592D02*
X0369800Y0225592D01*
X0369412Y0223993D02*
X0383720Y0223993D01*
X0388983Y0230000D02*
X0385000Y0233983D01*
X0385000Y0236600D01*
X0391600Y0236600D01*
X0391600Y0237000D01*
X0391600Y0243600D01*
X0388983Y0243600D01*
X0385000Y0239617D01*
X0385000Y0237000D01*
X0391600Y0237000D01*
X0392000Y0237000D01*
X0392000Y0243600D01*
X0394617Y0243600D01*
X0398600Y0239617D01*
X0398600Y0237000D01*
X0392000Y0237000D01*
X0392000Y0236600D01*
X0398600Y0236600D01*
X0398600Y0233983D01*
X0394617Y0230000D01*
X0392000Y0230000D01*
X0392000Y0236600D01*
X0391600Y0236600D01*
X0391600Y0230000D01*
X0388983Y0230000D01*
X0388596Y0230387D02*
X0369089Y0230387D01*
X0368580Y0231986D02*
X0386998Y0231986D01*
X0385399Y0233584D02*
X0369242Y0233584D01*
X0369800Y0235183D02*
X0385000Y0235183D01*
X0385000Y0238380D02*
X0369800Y0238380D01*
X0369800Y0236781D02*
X0391600Y0236781D01*
X0392000Y0236781D02*
X0419701Y0236781D01*
X0419701Y0235183D02*
X0398600Y0235183D01*
X0398201Y0233584D02*
X0419701Y0233584D01*
X0419701Y0231986D02*
X0396602Y0231986D01*
X0395004Y0230387D02*
X0419701Y0230387D01*
X0419701Y0238380D02*
X0398600Y0238380D01*
X0398238Y0239978D02*
X0419701Y0239978D01*
X0419701Y0241577D02*
X0396640Y0241577D01*
X0395041Y0243175D02*
X0419701Y0243175D01*
X0419701Y0244774D02*
X0369735Y0244774D01*
X0369800Y0246372D02*
X0419701Y0246372D01*
X0419701Y0247971D02*
X0369800Y0247971D01*
X0369427Y0249569D02*
X0419701Y0249569D01*
X0419701Y0251168D02*
X0368765Y0251168D01*
X0368904Y0252766D02*
X0419701Y0252766D01*
X0419701Y0254365D02*
X0369566Y0254365D01*
X0369800Y0255963D02*
X0419701Y0255963D01*
X0419701Y0257562D02*
X0369800Y0257562D01*
X0369597Y0259160D02*
X0419701Y0259160D01*
X0419701Y0260759D02*
X0368935Y0260759D01*
X0368734Y0262357D02*
X0419701Y0262357D01*
X0419701Y0263956D02*
X0369396Y0263956D01*
X0369800Y0265554D02*
X0387589Y0265554D01*
X0386158Y0265743D02*
X0386158Y0265743D01*
X0382754Y0267153D02*
X0369800Y0267153D01*
X0369766Y0268751D02*
X0379817Y0268751D01*
X0380900Y0267921D02*
X0380900Y0267921D01*
X0377734Y0270350D02*
X0369104Y0270350D01*
X0368565Y0271948D02*
X0375953Y0271948D01*
X0376385Y0271385D02*
X0376385Y0271385D01*
X0376385Y0271385D01*
X0374726Y0273547D02*
X0369227Y0273547D01*
X0369800Y0275145D02*
X0373500Y0275145D01*
X0372921Y0275900D02*
X0372921Y0275900D01*
X0372571Y0276744D02*
X0369800Y0276744D01*
X0369800Y0278342D02*
X0371909Y0278342D01*
X0371247Y0279941D02*
X0369273Y0279941D01*
X0368611Y0281539D02*
X0370693Y0281539D01*
X0370743Y0281158D02*
X0370743Y0281158D01*
X0370482Y0283138D02*
X0367356Y0283138D01*
X0365757Y0284737D02*
X0370272Y0284737D01*
X0391800Y0265000D02*
X0391800Y0265000D01*
X0396011Y0265554D02*
X0419701Y0265554D01*
X0419701Y0267153D02*
X0400846Y0267153D01*
X0402700Y0267921D02*
X0402700Y0267921D01*
X0403783Y0268751D02*
X0419701Y0268751D01*
X0419701Y0270350D02*
X0405866Y0270350D01*
X0407647Y0271948D02*
X0419701Y0271948D01*
X0419701Y0273547D02*
X0408874Y0273547D01*
X0410100Y0275145D02*
X0419701Y0275145D01*
X0419701Y0276744D02*
X0411029Y0276744D01*
X0410679Y0275900D02*
X0410679Y0275900D01*
X0411691Y0278342D02*
X0419701Y0278342D01*
X0419701Y0279941D02*
X0412353Y0279941D01*
X0412857Y0281158D02*
X0412857Y0281158D01*
X0412907Y0281539D02*
X0419701Y0281539D01*
X0419701Y0283138D02*
X0413118Y0283138D01*
X0413328Y0284737D02*
X0419701Y0284737D01*
X0419701Y0286335D02*
X0413539Y0286335D01*
X0413451Y0287934D02*
X0419701Y0287934D01*
X0419701Y0289532D02*
X0413240Y0289532D01*
X0413030Y0291131D02*
X0419701Y0291131D01*
X0419701Y0292729D02*
X0412738Y0292729D01*
X0412076Y0294328D02*
X0419701Y0294328D01*
X0419701Y0295926D02*
X0411414Y0295926D01*
X0410752Y0297525D02*
X0419701Y0297525D01*
X0419701Y0299123D02*
X0409587Y0299123D01*
X0410679Y0297700D02*
X0410679Y0297700D01*
X0408361Y0300722D02*
X0419701Y0300722D01*
X0419701Y0302320D02*
X0407078Y0302320D01*
X0404995Y0303919D02*
X0419701Y0303919D01*
X0419701Y0305517D02*
X0402911Y0305517D01*
X0402700Y0305679D02*
X0402700Y0305679D01*
X0399232Y0307116D02*
X0419701Y0307116D01*
X0419701Y0308714D02*
X0007600Y0308714D01*
X0007600Y0307116D02*
X0024368Y0307116D01*
X0020900Y0305679D02*
X0020900Y0305679D01*
X0020689Y0305517D02*
X0007600Y0305517D01*
X0007600Y0303919D02*
X0018605Y0303919D01*
X0016522Y0302320D02*
X0007600Y0302320D01*
X0007600Y0300722D02*
X0015239Y0300722D01*
X0014013Y0299123D02*
X0007600Y0299123D01*
X0007600Y0297525D02*
X0012848Y0297525D01*
X0012921Y0297700D02*
X0012921Y0297700D01*
X0012186Y0295926D02*
X0007600Y0295926D01*
X0007600Y0294328D02*
X0011524Y0294328D01*
X0010862Y0292729D02*
X0007600Y0292729D01*
X0007600Y0291131D02*
X0010570Y0291131D01*
X0010743Y0292442D02*
X0010743Y0292442D01*
X0010360Y0289532D02*
X0007600Y0289532D01*
X0007600Y0287934D02*
X0010149Y0287934D01*
X0010061Y0286335D02*
X0007600Y0286335D01*
X0007600Y0284737D02*
X0010272Y0284737D01*
X0010482Y0283138D02*
X0007600Y0283138D01*
X0007600Y0281539D02*
X0010693Y0281539D01*
X0010743Y0281158D02*
X0010743Y0281158D01*
X0011247Y0279941D02*
X0007600Y0279941D01*
X0007600Y0278342D02*
X0011909Y0278342D01*
X0012571Y0276744D02*
X0007600Y0276744D01*
X0007600Y0275145D02*
X0013500Y0275145D01*
X0012921Y0275900D02*
X0012921Y0275900D01*
X0014726Y0273547D02*
X0007600Y0273547D01*
X0007600Y0271948D02*
X0015953Y0271948D01*
X0016385Y0271385D02*
X0016385Y0271385D01*
X0017734Y0270350D02*
X0007600Y0270350D01*
X0007600Y0268751D02*
X0019817Y0268751D01*
X0020900Y0267921D02*
X0020900Y0267921D01*
X0022754Y0267153D02*
X0007600Y0267153D01*
X0007600Y0265554D02*
X0027589Y0265554D01*
X0031800Y0308600D02*
X0031800Y0308600D01*
X0037442Y0307857D02*
X0037442Y0307857D01*
X0007600Y0310313D02*
X0419701Y0310313D01*
X0397442Y0307857D02*
X0397442Y0307857D01*
X0344003Y0259160D02*
X0279597Y0259160D01*
X0279800Y0257562D02*
X0343800Y0257562D01*
X0343800Y0255963D02*
X0279800Y0255963D01*
X0279566Y0254365D02*
X0344034Y0254365D01*
X0344696Y0252766D02*
X0278904Y0252766D01*
X0278765Y0251168D02*
X0344835Y0251168D01*
X0344173Y0249569D02*
X0279427Y0249569D01*
X0279800Y0247971D02*
X0343800Y0247971D01*
X0343800Y0246372D02*
X0279800Y0246372D01*
X0279735Y0244774D02*
X0343865Y0244774D01*
X0344527Y0243175D02*
X0279073Y0243175D01*
X0278596Y0241577D02*
X0345004Y0241577D01*
X0344342Y0239978D02*
X0279258Y0239978D01*
X0279800Y0238380D02*
X0343800Y0238380D01*
X0343800Y0236781D02*
X0279800Y0236781D01*
X0279800Y0235183D02*
X0343800Y0235183D01*
X0344358Y0233584D02*
X0279242Y0233584D01*
X0244800Y0214402D02*
X0116256Y0214402D01*
X0120158Y0212803D02*
X0244800Y0212803D01*
X0244800Y0211205D02*
X0123542Y0211205D01*
X0125934Y0209606D02*
X0244707Y0209606D01*
X0243108Y0208008D02*
X0128327Y0208008D01*
X0130000Y0206409D02*
X0241510Y0206409D01*
X0239911Y0204811D02*
X0131599Y0204811D01*
X0133197Y0203212D02*
X0218989Y0203212D01*
X0216714Y0201614D02*
X0134357Y0201614D01*
X0135425Y0200015D02*
X0215116Y0200015D01*
X0217668Y0222395D02*
X0235932Y0222395D01*
X0234333Y0223993D02*
X0219267Y0223993D01*
X0220865Y0225592D02*
X0232735Y0225592D01*
X0231136Y0227190D02*
X0222464Y0227190D01*
X0222600Y0228789D02*
X0231000Y0228789D01*
X0231000Y0230387D02*
X0222600Y0230387D01*
X0222600Y0231986D02*
X0231000Y0231986D01*
X0231000Y0233584D02*
X0222600Y0233584D01*
X0222600Y0235183D02*
X0231000Y0235183D01*
X0231508Y0236781D02*
X0222092Y0236781D01*
X0220494Y0238380D02*
X0233106Y0238380D01*
X0234705Y0239978D02*
X0218895Y0239978D01*
X0217297Y0241577D02*
X0234800Y0241577D01*
X0254915Y0200015D02*
X0256691Y0200015D01*
X0266551Y0161651D02*
X0343819Y0161651D01*
X0343819Y0160053D02*
X0264952Y0160053D01*
X0263354Y0158454D02*
X0343823Y0158454D01*
X0344486Y0156856D02*
X0261755Y0156856D01*
X0260157Y0155257D02*
X0345778Y0155257D01*
X0375042Y0153659D02*
X0258558Y0153659D01*
X0256960Y0152060D02*
X0376640Y0152060D01*
X0378239Y0150462D02*
X0255361Y0150462D01*
X0253763Y0148863D02*
X0379837Y0148863D01*
X0390045Y0158454D02*
X0419701Y0158454D01*
X0419701Y0156856D02*
X0391644Y0156856D01*
X0388447Y0160053D02*
X0419701Y0160053D01*
X0419701Y0161651D02*
X0386848Y0161651D01*
X0385250Y0163250D02*
X0419701Y0163250D01*
X0419701Y0164848D02*
X0383651Y0164848D01*
X0382053Y0166447D02*
X0419701Y0166447D01*
X0419701Y0168045D02*
X0380015Y0168045D01*
X0396469Y0155257D02*
X0419701Y0155257D01*
X0419701Y0153659D02*
X0398518Y0153659D01*
X0400012Y0152060D02*
X0419701Y0152060D01*
X0419701Y0150462D02*
X0400674Y0150462D01*
X0401336Y0148863D02*
X0419701Y0148863D01*
X0419701Y0147265D02*
X0401400Y0147265D01*
X0401400Y0145666D02*
X0419701Y0145666D01*
X0419701Y0144068D02*
X0401059Y0144068D01*
X0400397Y0142469D02*
X0419701Y0142469D01*
X0419701Y0140870D02*
X0399447Y0140870D01*
X0397848Y0139272D02*
X0419701Y0139272D01*
X0419701Y0137673D02*
X0397331Y0137673D01*
X0397355Y0136075D02*
X0419701Y0136075D01*
X0419701Y0134476D02*
X0396901Y0134476D01*
X0395798Y0132878D02*
X0419701Y0132878D01*
X0391800Y0132878D02*
X0391800Y0132878D01*
X0391800Y0134476D02*
X0391800Y0134476D01*
X0391800Y0136075D02*
X0391800Y0136075D01*
X0385119Y0113696D02*
X0369789Y0113696D01*
X0369800Y0112097D02*
X0383603Y0112097D01*
X0382941Y0110499D02*
X0369800Y0110499D01*
X0369373Y0108900D02*
X0382279Y0108900D01*
X0382200Y0107302D02*
X0368711Y0107302D01*
X0368958Y0105703D02*
X0382200Y0105703D01*
X0382525Y0104105D02*
X0369620Y0104105D01*
X0369800Y0102506D02*
X0383188Y0102506D01*
X0384116Y0100908D02*
X0369800Y0100908D01*
X0369543Y0099309D02*
X0385714Y0099309D01*
X0386274Y0097711D02*
X0368881Y0097711D01*
X0368788Y0096112D02*
X0386239Y0096112D01*
X0386680Y0094514D02*
X0369450Y0094514D01*
X0369800Y0092915D02*
X0387765Y0092915D01*
X0391800Y0092915D02*
X0391800Y0092915D01*
X0391800Y0094514D02*
X0391800Y0094514D01*
X0391800Y0096112D02*
X0391800Y0096112D01*
X0364725Y0198417D02*
X0419701Y0198417D01*
X0419701Y0200015D02*
X0366909Y0200015D01*
X0368426Y0201614D02*
X0419701Y0201614D01*
X0419701Y0203212D02*
X0369088Y0203212D01*
X0369800Y0208008D02*
X0385319Y0208008D01*
X0383720Y0209606D02*
X0369412Y0209606D01*
X0391600Y0230387D02*
X0392000Y0230387D01*
X0392000Y0231986D02*
X0391600Y0231986D01*
X0391600Y0233584D02*
X0392000Y0233584D01*
X0392000Y0235183D02*
X0391600Y0235183D01*
X0391600Y0238380D02*
X0392000Y0238380D01*
X0392000Y0239978D02*
X0391600Y0239978D01*
X0391600Y0241577D02*
X0392000Y0241577D01*
X0392000Y0243175D02*
X0391600Y0243175D01*
X0388559Y0243175D02*
X0369073Y0243175D01*
X0368596Y0241577D02*
X0386960Y0241577D01*
X0385362Y0239978D02*
X0369258Y0239978D01*
X0136800Y0263956D02*
X0136800Y0263956D01*
X0136800Y0265554D02*
X0136800Y0265554D01*
D21*
X0246800Y0161800D03*
X0311800Y0196800D03*
X0351800Y0161800D03*
X0171800Y0106800D03*
D22*
X0141800Y0061800D02*
X0126800Y0061800D01*
X0111800Y0076800D01*
X0111800Y0086800D01*
X0081800Y0086800D01*
X0071800Y0076800D01*
X0141800Y0061800D02*
X0171800Y0031800D01*
X0186800Y0031800D01*
X0221800Y0031800D01*
X0231800Y0021800D01*
X0261800Y0021800D01*
X0301800Y0061800D01*
X0356800Y0061800D01*
X0211800Y0231800D02*
X0106800Y0231800D01*
X0096800Y0241800D01*
X0096800Y0271800D01*
X0081800Y0286800D01*
X0081800Y0291800D02*
X0086800Y0296800D01*
X0136800Y0296800D01*
M02*
