G75*
%MOIN*%
%OFA0B0*%
%FSLAX25Y25*%
%IPPOS*%
%LPD*%
%AMOC8*
5,1,8,0,0,1.08239X$1,22.5*
%
%ADD10R,0.00660X0.00333*%
%ADD11R,0.02000X0.00333*%
%ADD12R,0.02670X0.00334*%
%ADD13R,0.01000X0.00333*%
%ADD14R,0.01000X0.00334*%
%ADD15R,0.01330X0.00333*%
%ADD16R,0.01340X0.00333*%
%ADD17R,0.01330X0.00334*%
%ADD18R,0.00330X0.00333*%
%ADD19R,0.01670X0.00333*%
%ADD20R,0.01660X0.00333*%
%ADD21R,0.01670X0.00334*%
%ADD22R,0.01340X0.00334*%
%ADD23R,0.01660X0.00334*%
%ADD24R,0.02000X0.00334*%
%ADD25R,0.00670X0.00333*%
%ADD26R,0.02330X0.00333*%
%ADD27R,0.00660X0.00334*%
%ADD28R,0.02340X0.00333*%
%ADD29R,0.00340X0.00333*%
%ADD30R,0.02330X0.00334*%
%ADD31R,0.00340X0.00334*%
%ADD32R,0.02660X0.00333*%
%ADD33R,0.00330X0.00334*%
%ADD34R,0.02670X0.00333*%
%ADD35R,0.03000X0.00333*%
%ADD36R,0.02340X0.00334*%
%ADD37R,0.03000X0.00334*%
%ADD38R,0.00670X0.00334*%
%ADD39R,0.03660X0.00333*%
%ADD40R,0.23000X0.00334*%
%ADD41R,0.04000X0.00333*%
%ADD42R,0.04340X0.00333*%
%ADD43R,0.03340X0.00333*%
%ADD44R,0.03670X0.00333*%
%ADD45R,0.05000X0.00334*%
%ADD46R,0.03660X0.00334*%
%ADD47R,0.03330X0.00333*%
%ADD48R,0.05340X0.00334*%
%ADD49R,0.06000X0.00333*%
%ADD50R,0.04000X0.00334*%
%ADD51R,0.06340X0.00334*%
%ADD52R,0.10330X0.00333*%
%ADD53R,0.05330X0.00333*%
%ADD54R,0.04660X0.00333*%
%ADD55R,0.06330X0.00333*%
%ADD56R,0.07340X0.00333*%
%ADD57R,0.12000X0.00334*%
%ADD58R,0.07670X0.00333*%
%ADD59R,0.03340X0.00334*%
%ADD60R,0.08000X0.00334*%
%ADD61R,0.02660X0.00334*%
%ADD62R,0.03670X0.00334*%
%ADD63R,0.03330X0.00334*%
%ADD64R,0.04330X0.00333*%
%ADD65R,0.06000X0.00334*%
%ADD66R,0.05660X0.00334*%
%ADD67R,0.18340X0.00333*%
%ADD68R,0.13660X0.00333*%
%ADD69R,0.05000X0.00333*%
%ADD70R,0.04670X0.00333*%
%ADD71R,0.06330X0.00334*%
%ADD72R,0.19330X0.00333*%
%ADD73R,0.14670X0.00333*%
D10*
X0234300Y0228134D03*
X0228300Y0241466D03*
X0219300Y0244134D03*
X0216300Y0247134D03*
X0215300Y0246466D03*
X0214300Y0246466D03*
X0213300Y0246466D03*
X0214300Y0245134D03*
X0211300Y0249134D03*
X0211300Y0251134D03*
X0209300Y0253466D03*
X0207300Y0254466D03*
X0209300Y0258466D03*
X0207300Y0263134D03*
X0206300Y0266466D03*
X0204300Y0267134D03*
X0204300Y0267466D03*
X0204300Y0269134D03*
X0206300Y0269466D03*
X0211300Y0265466D03*
X0215300Y0263466D03*
X0221300Y0260134D03*
X0221300Y0259466D03*
X0222300Y0261134D03*
X0229300Y0264134D03*
X0226300Y0269134D03*
X0215300Y0268134D03*
X0213300Y0279466D03*
X0212300Y0280134D03*
X0206300Y0283134D03*
X0206300Y0283466D03*
X0206300Y0284134D03*
X0206300Y0284466D03*
X0206300Y0285134D03*
X0206300Y0285466D03*
X0206300Y0286134D03*
X0206300Y0286466D03*
X0206300Y0287134D03*
X0206300Y0287466D03*
X0206300Y0288134D03*
X0206300Y0288466D03*
X0206300Y0289134D03*
X0206300Y0289466D03*
X0206300Y0290134D03*
X0206300Y0290466D03*
X0206300Y0291134D03*
X0206300Y0291466D03*
X0206300Y0292134D03*
X0206300Y0292466D03*
X0206300Y0293134D03*
X0206300Y0293466D03*
X0206300Y0294134D03*
X0206300Y0294466D03*
X0206300Y0295134D03*
X0206300Y0295466D03*
X0206300Y0296134D03*
X0206300Y0296466D03*
X0206300Y0297134D03*
X0206300Y0297466D03*
X0218300Y0290134D03*
X0217300Y0289466D03*
X0220300Y0291466D03*
X0228300Y0293466D03*
X0232300Y0290466D03*
X0233300Y0291134D03*
X0231300Y0289134D03*
X0229300Y0286466D03*
X0228300Y0285134D03*
X0230300Y0282466D03*
X0229300Y0281134D03*
X0226300Y0282466D03*
X0225300Y0281134D03*
X0223300Y0280134D03*
X0222300Y0277466D03*
X0211300Y0289134D03*
X0231300Y0298134D03*
X0230300Y0302466D03*
X0229300Y0303134D03*
X0237300Y0296134D03*
X0237300Y0295134D03*
X0237300Y0288466D03*
X0237300Y0288134D03*
X0245300Y0294466D03*
X0247300Y0293134D03*
X0249300Y0293134D03*
X0245300Y0299134D03*
X0265300Y0299134D03*
X0265300Y0299466D03*
X0265300Y0300134D03*
X0265300Y0300466D03*
X0265300Y0301134D03*
X0265300Y0301466D03*
X0265300Y0298466D03*
X0265300Y0298134D03*
X0265300Y0297466D03*
X0265300Y0297134D03*
X0265300Y0296466D03*
X0265300Y0296134D03*
X0265300Y0295466D03*
X0265300Y0295134D03*
X0250300Y0275466D03*
X0249300Y0274134D03*
X0240300Y0276134D03*
X0239300Y0275466D03*
X0239300Y0267466D03*
X0241300Y0259466D03*
X0247300Y0254466D03*
X0250300Y0253466D03*
X0253300Y0246134D03*
X0261300Y0250466D03*
X0265300Y0257466D03*
X0267300Y0260134D03*
X0267300Y0261134D03*
X0269300Y0256466D03*
X0271300Y0256466D03*
X0271300Y0257134D03*
X0271300Y0257466D03*
X0270300Y0253134D03*
X0274300Y0262134D03*
X0271300Y0270134D03*
X0264300Y0270466D03*
X0263300Y0265466D03*
X0263300Y0265134D03*
X0261300Y0263466D03*
X0261300Y0259134D03*
X0253300Y0262134D03*
X0241300Y0241134D03*
X0200300Y0256134D03*
X0199300Y0270134D03*
X0199300Y0270466D03*
X0199300Y0271134D03*
X0199300Y0271466D03*
D11*
X0198630Y0267466D03*
X0216970Y0251466D03*
X0217630Y0251134D03*
X0218970Y0250466D03*
X0221300Y0249466D03*
X0221970Y0251134D03*
X0223630Y0248466D03*
X0225970Y0249134D03*
X0227300Y0248466D03*
X0227970Y0248134D03*
X0227970Y0246466D03*
X0228970Y0246134D03*
X0229630Y0247466D03*
X0230300Y0245466D03*
X0232970Y0246134D03*
X0237300Y0244134D03*
X0237970Y0244466D03*
X0239630Y0245134D03*
X0240300Y0245466D03*
X0241970Y0246134D03*
X0242630Y0246466D03*
X0241970Y0247466D03*
X0243630Y0248134D03*
X0244300Y0248466D03*
X0244970Y0247466D03*
X0245630Y0249134D03*
X0246300Y0249466D03*
X0247300Y0248466D03*
X0247630Y0250134D03*
X0248300Y0250466D03*
X0249630Y0249466D03*
X0250970Y0250134D03*
X0251630Y0250466D03*
X0249630Y0255134D03*
X0253630Y0263466D03*
X0251970Y0268134D03*
X0245970Y0270134D03*
X0264630Y0273466D03*
X0271300Y0268466D03*
X0258300Y0243466D03*
X0257630Y0243134D03*
X0258300Y0241466D03*
X0257630Y0241134D03*
X0244300Y0236134D03*
X0242970Y0235466D03*
X0242300Y0237466D03*
X0241630Y0237134D03*
X0243630Y0238134D03*
X0234970Y0228466D03*
X0225300Y0235134D03*
X0224630Y0235466D03*
X0223300Y0236134D03*
X0222970Y0238466D03*
X0221630Y0239134D03*
X0220970Y0239466D03*
X0220970Y0237134D03*
X0218630Y0240466D03*
X0213300Y0240134D03*
X0212630Y0240466D03*
X0211630Y0243134D03*
X0225970Y0247466D03*
X0226630Y0247134D03*
X0229970Y0254134D03*
X0235300Y0291134D03*
X0236300Y0299466D03*
X0237300Y0302466D03*
X0258300Y0306134D03*
X0259630Y0305466D03*
X0260300Y0305134D03*
X0261630Y0307466D03*
X0262630Y0307134D03*
X0264630Y0306134D03*
X0212630Y0307134D03*
X0211300Y0306466D03*
X0210630Y0306134D03*
X0209630Y0308466D03*
X0208970Y0308134D03*
X0207630Y0307466D03*
X0206970Y0307134D03*
X0211300Y0309134D03*
D12*
X0212965Y0309800D03*
X0215965Y0310800D03*
X0207635Y0304800D03*
X0248635Y0277800D03*
X0255635Y0309800D03*
X0253965Y0239800D03*
X0247965Y0239800D03*
X0234965Y0228800D03*
D13*
X0235800Y0229134D03*
X0236130Y0229466D03*
X0236470Y0230134D03*
X0236800Y0230466D03*
X0237130Y0231134D03*
X0237470Y0231466D03*
X0238130Y0232134D03*
X0236470Y0233466D03*
X0236130Y0233134D03*
X0235800Y0232466D03*
X0235470Y0232134D03*
X0237130Y0234134D03*
X0233470Y0229466D03*
X0233800Y0229134D03*
X0230130Y0241466D03*
X0224470Y0242466D03*
X0224470Y0243134D03*
X0223130Y0242134D03*
X0218470Y0243134D03*
X0210800Y0249466D03*
X0205470Y0247466D03*
X0204800Y0248134D03*
X0204130Y0249134D03*
X0203800Y0249466D03*
X0203130Y0250134D03*
X0203130Y0250466D03*
X0202470Y0251466D03*
X0202130Y0252134D03*
X0201800Y0252466D03*
X0201470Y0253134D03*
X0201470Y0253466D03*
X0201130Y0254134D03*
X0200470Y0255466D03*
X0200130Y0256466D03*
X0199800Y0258134D03*
X0199470Y0259466D03*
X0199470Y0260134D03*
X0199800Y0260466D03*
X0200470Y0261466D03*
X0201130Y0262134D03*
X0201800Y0263134D03*
X0202130Y0263466D03*
X0202470Y0264134D03*
X0202800Y0264466D03*
X0203130Y0265134D03*
X0203470Y0265466D03*
X0204130Y0266466D03*
X0206130Y0267134D03*
X0206130Y0267466D03*
X0206130Y0268134D03*
X0206130Y0268466D03*
X0206130Y0269134D03*
X0206470Y0270134D03*
X0206470Y0270466D03*
X0206470Y0271134D03*
X0206470Y0271466D03*
X0206130Y0272134D03*
X0205800Y0272466D03*
X0207800Y0273134D03*
X0208800Y0271466D03*
X0208800Y0271134D03*
X0208800Y0270466D03*
X0208800Y0270134D03*
X0208800Y0269466D03*
X0208800Y0269134D03*
X0208800Y0268466D03*
X0208800Y0268134D03*
X0208800Y0267466D03*
X0208800Y0267134D03*
X0208800Y0266466D03*
X0208800Y0265466D03*
X0208800Y0265134D03*
X0208800Y0264466D03*
X0208800Y0264134D03*
X0209130Y0263134D03*
X0209470Y0262466D03*
X0209470Y0262134D03*
X0209800Y0261466D03*
X0209800Y0261134D03*
X0210470Y0260134D03*
X0211130Y0259466D03*
X0209470Y0258134D03*
X0210130Y0257466D03*
X0210130Y0257134D03*
X0210800Y0256466D03*
X0211130Y0256134D03*
X0208800Y0255134D03*
X0208800Y0259134D03*
X0208800Y0259466D03*
X0208470Y0260134D03*
X0208130Y0260466D03*
X0207800Y0261466D03*
X0207470Y0262466D03*
X0207130Y0263466D03*
X0206800Y0265134D03*
X0206800Y0265466D03*
X0206470Y0266134D03*
X0201130Y0265134D03*
X0200470Y0264134D03*
X0199800Y0263466D03*
X0199130Y0262466D03*
X0198800Y0262134D03*
X0197470Y0260134D03*
X0197470Y0259466D03*
X0197800Y0257466D03*
X0198130Y0256466D03*
X0198130Y0256134D03*
X0198470Y0255466D03*
X0198470Y0255134D03*
X0198800Y0254466D03*
X0198800Y0254134D03*
X0199130Y0253466D03*
X0199470Y0253134D03*
X0199800Y0252466D03*
X0199800Y0252134D03*
X0200470Y0251134D03*
X0201130Y0250134D03*
X0202470Y0248466D03*
X0202800Y0248134D03*
X0195800Y0262466D03*
X0195800Y0263134D03*
X0195800Y0263466D03*
X0196130Y0264134D03*
X0196130Y0264466D03*
X0196470Y0265134D03*
X0196800Y0265466D03*
X0197130Y0266134D03*
X0197470Y0266466D03*
X0197800Y0267134D03*
X0198470Y0268134D03*
X0198470Y0268466D03*
X0199130Y0269134D03*
X0199130Y0269466D03*
X0200470Y0270134D03*
X0200470Y0270466D03*
X0200470Y0271134D03*
X0200800Y0271466D03*
X0199800Y0272466D03*
X0199470Y0272134D03*
X0200130Y0273134D03*
X0200470Y0273466D03*
X0202470Y0273466D03*
X0204800Y0276134D03*
X0204800Y0276466D03*
X0204800Y0277134D03*
X0204800Y0277466D03*
X0204800Y0278134D03*
X0204800Y0278466D03*
X0204800Y0279134D03*
X0204800Y0279466D03*
X0204800Y0280134D03*
X0204800Y0280466D03*
X0204800Y0281134D03*
X0204800Y0281466D03*
X0204800Y0282134D03*
X0204800Y0282466D03*
X0204800Y0283134D03*
X0204800Y0283466D03*
X0204800Y0284134D03*
X0204800Y0284466D03*
X0204800Y0285134D03*
X0204800Y0285466D03*
X0204800Y0286134D03*
X0204800Y0286466D03*
X0204800Y0287134D03*
X0204800Y0287466D03*
X0204800Y0288134D03*
X0204800Y0288466D03*
X0204800Y0289134D03*
X0204800Y0289466D03*
X0204800Y0290134D03*
X0204800Y0290466D03*
X0204800Y0291134D03*
X0204800Y0291466D03*
X0204800Y0292134D03*
X0204800Y0292466D03*
X0204800Y0293134D03*
X0204800Y0293466D03*
X0204800Y0294134D03*
X0204800Y0294466D03*
X0204800Y0295134D03*
X0204800Y0295466D03*
X0204800Y0296134D03*
X0204800Y0296466D03*
X0204800Y0297134D03*
X0204800Y0297466D03*
X0204800Y0298134D03*
X0204800Y0298466D03*
X0204800Y0299134D03*
X0204800Y0299466D03*
X0204800Y0300134D03*
X0204800Y0300466D03*
X0204800Y0301134D03*
X0204800Y0301466D03*
X0204800Y0302134D03*
X0204800Y0302466D03*
X0204800Y0303134D03*
X0204800Y0303466D03*
X0204800Y0304134D03*
X0204800Y0304466D03*
X0204800Y0305134D03*
X0204800Y0305466D03*
X0206470Y0303466D03*
X0206470Y0303134D03*
X0206470Y0302466D03*
X0206470Y0302134D03*
X0206470Y0301466D03*
X0206470Y0301134D03*
X0206470Y0300466D03*
X0206470Y0300134D03*
X0206470Y0299466D03*
X0206470Y0299134D03*
X0206470Y0298466D03*
X0206470Y0298134D03*
X0210800Y0298466D03*
X0217800Y0298134D03*
X0214130Y0291134D03*
X0213130Y0290466D03*
X0211800Y0289466D03*
X0209130Y0287466D03*
X0206130Y0282466D03*
X0206130Y0282134D03*
X0206130Y0281466D03*
X0206130Y0281134D03*
X0206130Y0280466D03*
X0206130Y0280134D03*
X0206130Y0279466D03*
X0206130Y0279134D03*
X0206130Y0278466D03*
X0206130Y0278134D03*
X0206130Y0277466D03*
X0206130Y0277134D03*
X0213800Y0279134D03*
X0219130Y0281134D03*
X0221130Y0282134D03*
X0223130Y0283134D03*
X0221800Y0279466D03*
X0221130Y0279134D03*
X0216800Y0272134D03*
X0230130Y0271466D03*
X0240130Y0280134D03*
X0244130Y0278134D03*
X0248470Y0292134D03*
X0251800Y0299134D03*
X0246470Y0300134D03*
X0237470Y0291466D03*
X0231470Y0291134D03*
X0230800Y0300134D03*
X0216800Y0289134D03*
X0215800Y0288466D03*
X0246470Y0261134D03*
X0259130Y0259134D03*
X0259470Y0259466D03*
X0259800Y0260134D03*
X0260130Y0260466D03*
X0260470Y0261134D03*
X0260470Y0261466D03*
X0260800Y0262134D03*
X0261130Y0263134D03*
X0261470Y0264134D03*
X0261470Y0264466D03*
X0261470Y0265134D03*
X0261470Y0265466D03*
X0261470Y0266134D03*
X0263470Y0266134D03*
X0263800Y0267134D03*
X0263800Y0267466D03*
X0265470Y0267466D03*
X0265470Y0267134D03*
X0265470Y0266466D03*
X0265470Y0266134D03*
X0265470Y0268134D03*
X0265470Y0268466D03*
X0264470Y0270134D03*
X0263130Y0271466D03*
X0263130Y0272134D03*
X0263470Y0272466D03*
X0262470Y0273466D03*
X0262130Y0273134D03*
X0261800Y0272466D03*
X0261800Y0272134D03*
X0261800Y0271466D03*
X0261800Y0271134D03*
X0261800Y0270466D03*
X0261800Y0270134D03*
X0263130Y0264466D03*
X0263130Y0264134D03*
X0262800Y0263134D03*
X0261800Y0260466D03*
X0261800Y0260134D03*
X0261470Y0259466D03*
X0260800Y0258466D03*
X0260800Y0258134D03*
X0260130Y0257134D03*
X0259470Y0256466D03*
X0262800Y0254466D03*
X0266800Y0251134D03*
X0267130Y0251466D03*
X0267470Y0252134D03*
X0268130Y0253134D03*
X0268130Y0253466D03*
X0268470Y0254134D03*
X0268800Y0255134D03*
X0269130Y0256134D03*
X0269470Y0257134D03*
X0269800Y0258134D03*
X0269800Y0258466D03*
X0271470Y0258466D03*
X0271470Y0258134D03*
X0271470Y0259134D03*
X0271470Y0259466D03*
X0270800Y0261466D03*
X0269800Y0261134D03*
X0269470Y0261466D03*
X0270130Y0262466D03*
X0269470Y0263134D03*
X0269130Y0263466D03*
X0268800Y0264134D03*
X0268470Y0264466D03*
X0267800Y0263466D03*
X0267130Y0264134D03*
X0266800Y0264466D03*
X0267800Y0265466D03*
X0270470Y0268134D03*
X0271130Y0269134D03*
X0271130Y0269466D03*
X0271470Y0270466D03*
X0271470Y0271134D03*
X0271470Y0271466D03*
X0270800Y0272134D03*
X0270470Y0272466D03*
X0270130Y0273134D03*
X0269800Y0273466D03*
X0269470Y0274134D03*
X0269130Y0274466D03*
X0267470Y0271466D03*
X0267800Y0271134D03*
X0268130Y0270466D03*
X0268130Y0270134D03*
X0272130Y0268134D03*
X0272470Y0267466D03*
X0272470Y0267134D03*
X0273130Y0266134D03*
X0273470Y0265466D03*
X0274800Y0264134D03*
X0274470Y0263466D03*
X0274470Y0263134D03*
X0274470Y0262466D03*
X0274130Y0261466D03*
X0273800Y0261134D03*
X0271130Y0256134D03*
X0270800Y0254466D03*
X0270470Y0253466D03*
X0269800Y0252134D03*
X0269470Y0251466D03*
X0269470Y0251134D03*
X0269130Y0250466D03*
X0268800Y0250134D03*
X0268470Y0249466D03*
X0268130Y0249134D03*
X0266470Y0250466D03*
X0266130Y0250134D03*
X0265470Y0249134D03*
X0264800Y0248466D03*
X0264470Y0248134D03*
X0263800Y0247466D03*
X0263470Y0247134D03*
X0265470Y0246134D03*
X0265800Y0246466D03*
X0266470Y0247134D03*
X0266800Y0247466D03*
X0257130Y0247134D03*
X0253800Y0245466D03*
X0252800Y0246466D03*
X0234130Y0245466D03*
X0226130Y0251134D03*
X0263130Y0274134D03*
X0263130Y0276134D03*
X0263130Y0276466D03*
X0263130Y0277134D03*
X0263130Y0277466D03*
X0263130Y0278134D03*
X0263130Y0278466D03*
X0265800Y0278466D03*
X0265800Y0278134D03*
X0265800Y0277466D03*
X0265800Y0277134D03*
X0265800Y0279134D03*
X0265800Y0279466D03*
X0262800Y0286134D03*
X0262800Y0286466D03*
X0262800Y0287134D03*
X0262800Y0287466D03*
X0262800Y0288134D03*
X0262800Y0288466D03*
X0262800Y0289134D03*
X0262800Y0289466D03*
X0262800Y0290134D03*
X0262800Y0290466D03*
X0262800Y0291134D03*
X0262800Y0291466D03*
X0262800Y0292134D03*
X0262800Y0292466D03*
X0262800Y0293134D03*
X0265470Y0293134D03*
X0265470Y0293466D03*
X0265470Y0294134D03*
X0265470Y0294466D03*
X0265470Y0292466D03*
X0265470Y0292134D03*
X0265470Y0291466D03*
X0265470Y0291134D03*
X0265470Y0290466D03*
X0265470Y0290134D03*
X0265470Y0289466D03*
X0265470Y0289134D03*
X0265470Y0288466D03*
X0265470Y0288134D03*
X0265470Y0287466D03*
X0262470Y0300466D03*
X0262470Y0301134D03*
X0262470Y0301466D03*
X0262470Y0302134D03*
X0262470Y0302466D03*
X0262470Y0303134D03*
X0262470Y0303466D03*
X0265130Y0303466D03*
X0265130Y0303134D03*
X0265130Y0302466D03*
X0265130Y0302134D03*
X0265130Y0304134D03*
X0265130Y0304466D03*
X0265130Y0305134D03*
X0265130Y0305466D03*
D14*
X0265130Y0305800D03*
X0265130Y0304800D03*
X0265130Y0303800D03*
X0265130Y0302800D03*
X0262470Y0302800D03*
X0262470Y0303800D03*
X0262470Y0301800D03*
X0262470Y0300800D03*
X0265470Y0294800D03*
X0265470Y0293800D03*
X0265470Y0292800D03*
X0265470Y0291800D03*
X0265470Y0290800D03*
X0265470Y0289800D03*
X0265470Y0288800D03*
X0265470Y0287800D03*
X0262800Y0287800D03*
X0262800Y0288800D03*
X0262800Y0289800D03*
X0262800Y0290800D03*
X0262800Y0291800D03*
X0262800Y0292800D03*
X0262800Y0286800D03*
X0265800Y0279800D03*
X0265800Y0278800D03*
X0265800Y0277800D03*
X0265800Y0276800D03*
X0263130Y0276800D03*
X0263130Y0275800D03*
X0263130Y0277800D03*
X0263130Y0278800D03*
X0262800Y0273800D03*
X0264800Y0273800D03*
X0263130Y0271800D03*
X0261800Y0270800D03*
X0263800Y0267800D03*
X0265470Y0267800D03*
X0265470Y0266800D03*
X0263470Y0265800D03*
X0263130Y0264800D03*
X0261470Y0264800D03*
X0261470Y0265800D03*
X0261470Y0263800D03*
X0261130Y0262800D03*
X0260800Y0261800D03*
X0260130Y0260800D03*
X0259470Y0259800D03*
X0258800Y0258800D03*
X0260470Y0257800D03*
X0261130Y0258800D03*
X0261470Y0259800D03*
X0262800Y0262800D03*
X0266470Y0264800D03*
X0267470Y0263800D03*
X0268130Y0264800D03*
X0269800Y0262800D03*
X0269130Y0261800D03*
X0270470Y0261800D03*
X0270130Y0259800D03*
X0271470Y0258800D03*
X0271470Y0257800D03*
X0271130Y0255800D03*
X0270800Y0254800D03*
X0270470Y0253800D03*
X0270130Y0252800D03*
X0269800Y0251800D03*
X0269130Y0250800D03*
X0268470Y0249800D03*
X0267800Y0248800D03*
X0267130Y0247800D03*
X0266130Y0246800D03*
X0265130Y0245800D03*
X0264130Y0247800D03*
X0263130Y0246800D03*
X0265130Y0248800D03*
X0265800Y0249800D03*
X0267130Y0251800D03*
X0267800Y0252800D03*
X0268800Y0254800D03*
X0269130Y0255800D03*
X0269470Y0256800D03*
X0262800Y0252800D03*
X0259130Y0249800D03*
X0259800Y0256800D03*
X0245800Y0262800D03*
X0237470Y0267800D03*
X0239800Y0275800D03*
X0238470Y0279800D03*
X0245130Y0277800D03*
X0246800Y0280800D03*
X0245470Y0281800D03*
X0232130Y0290800D03*
X0220470Y0281800D03*
X0218130Y0280800D03*
X0222800Y0274800D03*
X0226130Y0274800D03*
X0227470Y0267800D03*
X0227800Y0263800D03*
X0217800Y0271800D03*
X0208800Y0271800D03*
X0208800Y0270800D03*
X0208800Y0269800D03*
X0208800Y0268800D03*
X0208800Y0267800D03*
X0208800Y0266800D03*
X0208800Y0265800D03*
X0208800Y0264800D03*
X0207130Y0263800D03*
X0207470Y0262800D03*
X0207800Y0261800D03*
X0208130Y0260800D03*
X0208470Y0259800D03*
X0209130Y0258800D03*
X0209800Y0257800D03*
X0210470Y0256800D03*
X0212470Y0257800D03*
X0210800Y0259800D03*
X0210130Y0260800D03*
X0206800Y0265800D03*
X0206130Y0266800D03*
X0206130Y0267800D03*
X0206130Y0268800D03*
X0204470Y0268800D03*
X0204130Y0266800D03*
X0203800Y0265800D03*
X0203130Y0264800D03*
X0202130Y0263800D03*
X0201470Y0262800D03*
X0200800Y0261800D03*
X0200130Y0260800D03*
X0199470Y0259800D03*
X0197470Y0259800D03*
X0197800Y0257800D03*
X0199800Y0257800D03*
X0200130Y0256800D03*
X0200470Y0255800D03*
X0200800Y0254800D03*
X0201130Y0253800D03*
X0201800Y0252800D03*
X0202130Y0251800D03*
X0202800Y0250800D03*
X0203470Y0249800D03*
X0202130Y0248800D03*
X0201470Y0249800D03*
X0200800Y0250800D03*
X0200130Y0251800D03*
X0199470Y0252800D03*
X0199130Y0253800D03*
X0207130Y0253800D03*
X0205130Y0247800D03*
X0215130Y0246800D03*
X0223130Y0242800D03*
X0239130Y0240800D03*
X0236800Y0233800D03*
X0237800Y0231800D03*
X0237130Y0230800D03*
X0236470Y0229800D03*
X0235470Y0231800D03*
X0233130Y0229800D03*
X0248800Y0242800D03*
X0236470Y0253800D03*
X0208130Y0272800D03*
X0206470Y0270800D03*
X0206130Y0275800D03*
X0206130Y0276800D03*
X0206130Y0277800D03*
X0206130Y0278800D03*
X0206130Y0279800D03*
X0206130Y0280800D03*
X0206130Y0281800D03*
X0204800Y0281800D03*
X0204800Y0282800D03*
X0204800Y0283800D03*
X0204800Y0284800D03*
X0204800Y0285800D03*
X0204800Y0286800D03*
X0204800Y0287800D03*
X0204800Y0288800D03*
X0204800Y0289800D03*
X0204800Y0290800D03*
X0204800Y0291800D03*
X0204800Y0292800D03*
X0204800Y0293800D03*
X0204800Y0294800D03*
X0204800Y0295800D03*
X0204800Y0296800D03*
X0204800Y0297800D03*
X0204800Y0298800D03*
X0204800Y0299800D03*
X0204800Y0300800D03*
X0204800Y0301800D03*
X0204800Y0302800D03*
X0204800Y0303800D03*
X0204800Y0304800D03*
X0204800Y0305800D03*
X0206470Y0303800D03*
X0206470Y0302800D03*
X0206470Y0301800D03*
X0206470Y0300800D03*
X0206470Y0299800D03*
X0206470Y0298800D03*
X0217130Y0298800D03*
X0216130Y0288800D03*
X0214800Y0287800D03*
X0204800Y0280800D03*
X0204800Y0279800D03*
X0204800Y0278800D03*
X0204800Y0277800D03*
X0204800Y0276800D03*
X0204800Y0275800D03*
X0199800Y0272800D03*
X0199470Y0271800D03*
X0199130Y0270800D03*
X0200470Y0270800D03*
X0200800Y0269800D03*
X0198800Y0268800D03*
X0197470Y0266800D03*
X0197130Y0265800D03*
X0196470Y0264800D03*
X0195800Y0263800D03*
X0195800Y0262800D03*
X0196130Y0261800D03*
X0198470Y0261800D03*
X0200130Y0263800D03*
X0200800Y0264800D03*
X0228470Y0303800D03*
X0232130Y0303800D03*
X0270470Y0272800D03*
X0271470Y0271800D03*
X0271470Y0270800D03*
X0272130Y0267800D03*
X0272800Y0266800D03*
X0273470Y0265800D03*
X0274800Y0263800D03*
X0274470Y0262800D03*
X0270130Y0267800D03*
D15*
X0269965Y0267466D03*
X0267965Y0265134D03*
X0267965Y0263134D03*
X0268635Y0262466D03*
X0265965Y0265466D03*
X0273965Y0265134D03*
X0266965Y0272134D03*
X0266635Y0272466D03*
X0265635Y0276466D03*
X0244965Y0289466D03*
X0245965Y0290134D03*
X0239635Y0302134D03*
X0219965Y0281466D03*
X0214635Y0281134D03*
X0206965Y0274134D03*
X0206635Y0274466D03*
X0207635Y0273466D03*
X0208635Y0272466D03*
X0208635Y0272134D03*
X0201635Y0272466D03*
X0200965Y0269466D03*
X0201635Y0265466D03*
X0200635Y0264466D03*
X0199635Y0263134D03*
X0203965Y0266134D03*
X0210635Y0260466D03*
X0211965Y0258466D03*
X0212965Y0257466D03*
X0213965Y0256466D03*
X0215635Y0255134D03*
X0216965Y0254134D03*
X0217965Y0253466D03*
X0213965Y0253466D03*
X0212965Y0254134D03*
X0212635Y0254466D03*
X0211965Y0255134D03*
X0211635Y0255466D03*
X0208965Y0253134D03*
X0210635Y0250134D03*
X0207965Y0245466D03*
X0206965Y0246134D03*
X0206635Y0246466D03*
X0205965Y0247134D03*
X0204635Y0246134D03*
X0203635Y0247134D03*
X0204635Y0248466D03*
X0201965Y0249134D03*
X0201635Y0249466D03*
X0200965Y0250466D03*
X0205635Y0245134D03*
X0206965Y0244134D03*
X0228635Y0235466D03*
X0231635Y0231134D03*
X0232635Y0230134D03*
X0233635Y0232134D03*
X0237635Y0234466D03*
X0239635Y0233466D03*
X0240635Y0234134D03*
X0233635Y0238466D03*
X0229965Y0240134D03*
X0251635Y0252466D03*
X0252635Y0253134D03*
X0253965Y0254134D03*
X0254965Y0252466D03*
X0255965Y0253134D03*
X0257635Y0254466D03*
X0258635Y0255466D03*
X0256635Y0256466D03*
X0255635Y0255466D03*
X0257635Y0257466D03*
X0258635Y0258466D03*
X0265635Y0249466D03*
X0267635Y0248466D03*
X0264635Y0245466D03*
X0262965Y0244134D03*
X0261965Y0243466D03*
X0260965Y0245134D03*
X0261635Y0245466D03*
X0262635Y0246466D03*
D16*
X0262300Y0246134D03*
X0264300Y0245134D03*
X0267300Y0248134D03*
X0257300Y0254134D03*
X0256300Y0253466D03*
X0255300Y0255134D03*
X0256300Y0256134D03*
X0257300Y0257134D03*
X0258300Y0258134D03*
X0260300Y0257466D03*
X0259300Y0256134D03*
X0258300Y0255134D03*
X0262300Y0261466D03*
X0266300Y0265134D03*
X0263300Y0271134D03*
X0246300Y0277466D03*
X0230300Y0303466D03*
X0206300Y0276466D03*
X0206300Y0276134D03*
X0205300Y0273134D03*
X0201300Y0272134D03*
X0199300Y0267134D03*
X0201300Y0262466D03*
X0200300Y0261134D03*
X0200300Y0251466D03*
X0203300Y0247466D03*
X0204300Y0246466D03*
X0205300Y0245466D03*
X0208300Y0245134D03*
X0209300Y0244466D03*
X0208300Y0243134D03*
X0215300Y0246134D03*
X0215300Y0252466D03*
X0214300Y0253134D03*
X0214300Y0256134D03*
X0213300Y0257134D03*
X0212300Y0258134D03*
X0211300Y0259134D03*
X0232300Y0233134D03*
X0230300Y0232134D03*
X0232300Y0230466D03*
X0234300Y0231466D03*
X0238300Y0232466D03*
X0239300Y0233134D03*
X0238300Y0235134D03*
D17*
X0237965Y0234800D03*
X0238965Y0232800D03*
X0235965Y0232800D03*
X0233965Y0231800D03*
X0232635Y0232800D03*
X0231965Y0230800D03*
X0230635Y0231800D03*
X0235635Y0244800D03*
X0219965Y0244800D03*
X0210965Y0249800D03*
X0215965Y0254800D03*
X0214635Y0255800D03*
X0213635Y0256800D03*
X0211635Y0258800D03*
X0201635Y0265800D03*
X0200965Y0271800D03*
X0201965Y0272800D03*
X0205635Y0272800D03*
X0225965Y0277800D03*
X0227965Y0279800D03*
X0233635Y0290800D03*
X0211635Y0298800D03*
X0261965Y0272800D03*
X0263635Y0272800D03*
X0267635Y0269800D03*
X0270965Y0268800D03*
X0269635Y0273800D03*
X0268635Y0274800D03*
X0265635Y0265800D03*
X0268965Y0263800D03*
X0273635Y0260800D03*
X0266635Y0250800D03*
X0261965Y0245800D03*
X0260635Y0244800D03*
X0263965Y0244800D03*
X0256965Y0253800D03*
X0257965Y0254800D03*
X0258965Y0255800D03*
X0257965Y0257800D03*
X0256965Y0256800D03*
X0255965Y0255800D03*
X0254965Y0254800D03*
X0253635Y0253800D03*
X0205965Y0244800D03*
X0204965Y0245800D03*
X0203965Y0246800D03*
X0202965Y0247800D03*
D18*
X0208465Y0252134D03*
X0208465Y0253466D03*
X0208465Y0254134D03*
X0208465Y0254466D03*
X0209135Y0254466D03*
X0209135Y0254134D03*
X0208465Y0255466D03*
X0207135Y0254134D03*
X0206465Y0254134D03*
X0206135Y0254466D03*
X0210465Y0249134D03*
X0212135Y0250134D03*
X0212465Y0249134D03*
X0214465Y0248466D03*
X0214465Y0247134D03*
X0215465Y0247134D03*
X0216135Y0246466D03*
X0215465Y0245466D03*
X0215465Y0245134D03*
X0214465Y0245466D03*
X0213135Y0246134D03*
X0219465Y0245134D03*
X0219465Y0244466D03*
X0220135Y0242134D03*
X0222135Y0241466D03*
X0223465Y0241134D03*
X0225135Y0240466D03*
X0225135Y0242134D03*
X0227135Y0240466D03*
X0228465Y0240466D03*
X0228465Y0241134D03*
X0233465Y0238134D03*
X0234135Y0237466D03*
X0234135Y0237134D03*
X0234135Y0236466D03*
X0235465Y0236466D03*
X0236135Y0238466D03*
X0238465Y0241134D03*
X0238135Y0242134D03*
X0241135Y0241466D03*
X0242135Y0241134D03*
X0242465Y0241466D03*
X0242465Y0242134D03*
X0242465Y0242466D03*
X0242135Y0243134D03*
X0241135Y0243134D03*
X0243135Y0243466D03*
X0243465Y0242134D03*
X0243465Y0241466D03*
X0245135Y0242134D03*
X0245135Y0242466D03*
X0245465Y0244134D03*
X0247135Y0243466D03*
X0247135Y0242466D03*
X0248465Y0243134D03*
X0248465Y0243466D03*
X0251465Y0245134D03*
X0251465Y0245466D03*
X0251135Y0246134D03*
X0252465Y0246134D03*
X0255135Y0246466D03*
X0255465Y0246134D03*
X0256465Y0247466D03*
X0256135Y0248134D03*
X0256135Y0249134D03*
X0257135Y0249134D03*
X0258135Y0250466D03*
X0259135Y0250134D03*
X0260135Y0249134D03*
X0260465Y0251134D03*
X0260135Y0252466D03*
X0261465Y0252466D03*
X0262135Y0253134D03*
X0263135Y0252134D03*
X0262135Y0251466D03*
X0262135Y0251134D03*
X0264135Y0253466D03*
X0263465Y0254134D03*
X0263465Y0255466D03*
X0264135Y0256134D03*
X0265135Y0255466D03*
X0267135Y0257466D03*
X0266135Y0258134D03*
X0266465Y0258466D03*
X0266465Y0259134D03*
X0266465Y0260134D03*
X0266465Y0260466D03*
X0266465Y0261134D03*
X0267465Y0260466D03*
X0265465Y0259134D03*
X0260135Y0262466D03*
X0259135Y0264134D03*
X0257135Y0262466D03*
X0256135Y0261466D03*
X0256465Y0261134D03*
X0257135Y0260466D03*
X0257465Y0260134D03*
X0258465Y0260466D03*
X0255465Y0257466D03*
X0254465Y0258466D03*
X0254135Y0256466D03*
X0254465Y0256134D03*
X0252465Y0255466D03*
X0252135Y0256134D03*
X0251465Y0255466D03*
X0250465Y0256466D03*
X0251465Y0257134D03*
X0251465Y0257466D03*
X0252465Y0258134D03*
X0251135Y0259466D03*
X0250135Y0260134D03*
X0251135Y0261466D03*
X0251465Y0262134D03*
X0251465Y0262466D03*
X0252135Y0263134D03*
X0252465Y0261466D03*
X0252135Y0261134D03*
X0248465Y0261134D03*
X0248135Y0261466D03*
X0247465Y0262134D03*
X0247465Y0260466D03*
X0248465Y0260466D03*
X0248135Y0258466D03*
X0248135Y0258134D03*
X0247465Y0258134D03*
X0247135Y0256466D03*
X0246135Y0255134D03*
X0245465Y0254466D03*
X0245135Y0254134D03*
X0245465Y0253466D03*
X0245135Y0253134D03*
X0244465Y0253134D03*
X0243465Y0251466D03*
X0243465Y0251134D03*
X0247465Y0251466D03*
X0247465Y0252134D03*
X0248135Y0252466D03*
X0248135Y0251134D03*
X0249465Y0253134D03*
X0251135Y0253466D03*
X0246465Y0254134D03*
X0242135Y0256466D03*
X0242465Y0257466D03*
X0242135Y0258466D03*
X0241465Y0258466D03*
X0241465Y0258134D03*
X0241135Y0259134D03*
X0241135Y0260134D03*
X0241465Y0261134D03*
X0241465Y0261466D03*
X0241135Y0262134D03*
X0242465Y0263134D03*
X0243135Y0263466D03*
X0244135Y0264134D03*
X0244135Y0265466D03*
X0245465Y0266134D03*
X0246135Y0265466D03*
X0247135Y0266134D03*
X0247465Y0266466D03*
X0246465Y0267134D03*
X0246465Y0268134D03*
X0248135Y0268134D03*
X0251135Y0267134D03*
X0253135Y0268466D03*
X0254135Y0269134D03*
X0254135Y0269466D03*
X0254135Y0270134D03*
X0254135Y0270466D03*
X0251465Y0271466D03*
X0251135Y0271134D03*
X0250135Y0271134D03*
X0251465Y0272466D03*
X0253135Y0274134D03*
X0253135Y0274466D03*
X0250135Y0275134D03*
X0249465Y0275466D03*
X0250135Y0276134D03*
X0250135Y0276466D03*
X0246135Y0276134D03*
X0246135Y0275466D03*
X0245465Y0278134D03*
X0244465Y0278466D03*
X0242135Y0277134D03*
X0243135Y0273466D03*
X0243135Y0273134D03*
X0243465Y0272466D03*
X0242465Y0272134D03*
X0243135Y0271134D03*
X0241465Y0269134D03*
X0240135Y0269466D03*
X0239465Y0269466D03*
X0237465Y0270134D03*
X0237135Y0269466D03*
X0237135Y0272134D03*
X0232135Y0272134D03*
X0232135Y0273134D03*
X0230465Y0273466D03*
X0231135Y0271466D03*
X0231135Y0271134D03*
X0232135Y0270466D03*
X0232465Y0270134D03*
X0232465Y0268134D03*
X0230135Y0266466D03*
X0230135Y0266134D03*
X0229465Y0267466D03*
X0228465Y0267466D03*
X0226135Y0264466D03*
X0225465Y0264134D03*
X0225135Y0265134D03*
X0224465Y0265466D03*
X0223465Y0265466D03*
X0223465Y0266134D03*
X0223135Y0266466D03*
X0222465Y0266134D03*
X0222135Y0266466D03*
X0221465Y0267134D03*
X0221135Y0267466D03*
X0221135Y0268134D03*
X0221135Y0268466D03*
X0222135Y0267466D03*
X0223135Y0268466D03*
X0223465Y0269466D03*
X0226135Y0271134D03*
X0226465Y0272466D03*
X0223465Y0275466D03*
X0223465Y0276134D03*
X0223135Y0276466D03*
X0222465Y0276466D03*
X0222465Y0276134D03*
X0222465Y0275466D03*
X0222465Y0275134D03*
X0222465Y0277134D03*
X0219465Y0277466D03*
X0219135Y0276134D03*
X0219135Y0275134D03*
X0219465Y0274466D03*
X0220465Y0274466D03*
X0220465Y0274134D03*
X0216135Y0274134D03*
X0216135Y0274466D03*
X0216135Y0275134D03*
X0216465Y0272466D03*
X0215135Y0268466D03*
X0217135Y0268134D03*
X0219135Y0267466D03*
X0219135Y0267134D03*
X0216135Y0263134D03*
X0217135Y0262466D03*
X0217465Y0262134D03*
X0217465Y0261466D03*
X0218135Y0259466D03*
X0218135Y0259134D03*
X0218135Y0258466D03*
X0218135Y0258134D03*
X0218135Y0257466D03*
X0218135Y0257134D03*
X0218465Y0256134D03*
X0218135Y0255466D03*
X0217465Y0256134D03*
X0216135Y0256134D03*
X0216135Y0258134D03*
X0216465Y0258466D03*
X0219135Y0259134D03*
X0219135Y0259466D03*
X0219465Y0257466D03*
X0219465Y0257134D03*
X0221135Y0257134D03*
X0221135Y0257466D03*
X0221135Y0258134D03*
X0221135Y0258466D03*
X0221135Y0259134D03*
X0221135Y0260466D03*
X0221135Y0261134D03*
X0221135Y0261466D03*
X0222135Y0262134D03*
X0226465Y0263466D03*
X0227135Y0263134D03*
X0228465Y0261466D03*
X0228465Y0261134D03*
X0228135Y0260466D03*
X0227465Y0259466D03*
X0227135Y0258466D03*
X0227135Y0257466D03*
X0227465Y0256466D03*
X0228135Y0255466D03*
X0229465Y0256466D03*
X0229135Y0257134D03*
X0229135Y0257466D03*
X0228465Y0258466D03*
X0230135Y0255466D03*
X0232465Y0254466D03*
X0232135Y0253466D03*
X0234465Y0252466D03*
X0234465Y0252134D03*
X0235135Y0252466D03*
X0235465Y0253134D03*
X0234465Y0251134D03*
X0238465Y0255134D03*
X0239135Y0255466D03*
X0240465Y0254134D03*
X0241465Y0255134D03*
X0240465Y0257134D03*
X0243465Y0260466D03*
X0244135Y0260466D03*
X0244465Y0262134D03*
X0240465Y0264134D03*
X0240135Y0264466D03*
X0240135Y0266134D03*
X0244135Y0268134D03*
X0244135Y0268466D03*
X0255465Y0267134D03*
X0256465Y0266466D03*
X0257135Y0266134D03*
X0265135Y0274134D03*
X0259135Y0280134D03*
X0259135Y0280466D03*
X0259135Y0281134D03*
X0259135Y0281466D03*
X0259135Y0282134D03*
X0259135Y0282466D03*
X0259135Y0283134D03*
X0259135Y0283466D03*
X0259135Y0284134D03*
X0259135Y0284466D03*
X0259135Y0285134D03*
X0259135Y0285466D03*
X0259135Y0286134D03*
X0259135Y0286466D03*
X0259135Y0287134D03*
X0259135Y0287466D03*
X0259135Y0288134D03*
X0259135Y0288466D03*
X0259135Y0289134D03*
X0259135Y0289466D03*
X0259135Y0290134D03*
X0259135Y0290466D03*
X0259135Y0291134D03*
X0259135Y0291466D03*
X0259135Y0292134D03*
X0259135Y0292466D03*
X0259135Y0293134D03*
X0259135Y0293466D03*
X0259135Y0294134D03*
X0259135Y0294466D03*
X0259135Y0295134D03*
X0259135Y0295466D03*
X0259135Y0296134D03*
X0259135Y0296466D03*
X0259135Y0297134D03*
X0259135Y0297466D03*
X0259135Y0298134D03*
X0259135Y0299466D03*
X0259135Y0300134D03*
X0249465Y0299134D03*
X0248465Y0298134D03*
X0248135Y0297466D03*
X0248135Y0297134D03*
X0248135Y0296466D03*
X0248135Y0296134D03*
X0248465Y0294134D03*
X0248135Y0292466D03*
X0247465Y0292466D03*
X0246465Y0293134D03*
X0246135Y0290466D03*
X0248465Y0289134D03*
X0248135Y0288466D03*
X0250465Y0292466D03*
X0255465Y0290466D03*
X0255465Y0290134D03*
X0255465Y0289466D03*
X0255465Y0289134D03*
X0255465Y0288466D03*
X0255465Y0288134D03*
X0255465Y0287466D03*
X0255465Y0287134D03*
X0255465Y0286466D03*
X0255465Y0286134D03*
X0255465Y0285466D03*
X0255465Y0285134D03*
X0255465Y0284466D03*
X0255465Y0284134D03*
X0255465Y0283466D03*
X0255465Y0283134D03*
X0255465Y0282466D03*
X0255465Y0282134D03*
X0255465Y0281466D03*
X0249465Y0281466D03*
X0248135Y0282134D03*
X0247465Y0283134D03*
X0247465Y0283466D03*
X0246135Y0281466D03*
X0246465Y0281134D03*
X0245465Y0281466D03*
X0245135Y0282134D03*
X0244465Y0282134D03*
X0244465Y0282466D03*
X0244135Y0283134D03*
X0244135Y0283466D03*
X0244135Y0284134D03*
X0244135Y0284466D03*
X0243465Y0284466D03*
X0240465Y0284466D03*
X0240465Y0284134D03*
X0240465Y0283466D03*
X0240465Y0283134D03*
X0240465Y0282466D03*
X0240465Y0282134D03*
X0240465Y0281466D03*
X0241135Y0280466D03*
X0237465Y0280466D03*
X0237135Y0279466D03*
X0237465Y0284466D03*
X0237465Y0285134D03*
X0237465Y0285466D03*
X0237465Y0286134D03*
X0237465Y0286466D03*
X0237135Y0287134D03*
X0237135Y0287466D03*
X0237465Y0289134D03*
X0237465Y0289466D03*
X0235135Y0289134D03*
X0234465Y0288134D03*
X0233135Y0286466D03*
X0232465Y0285466D03*
X0232135Y0285134D03*
X0231465Y0284134D03*
X0229135Y0286134D03*
X0228465Y0285466D03*
X0227465Y0284134D03*
X0227135Y0283466D03*
X0226135Y0282134D03*
X0225465Y0281466D03*
X0223465Y0281466D03*
X0223465Y0281134D03*
X0223465Y0280466D03*
X0223465Y0282134D03*
X0223465Y0282466D03*
X0228465Y0280134D03*
X0228135Y0279466D03*
X0229465Y0281466D03*
X0229135Y0276466D03*
X0240465Y0285134D03*
X0240465Y0285466D03*
X0240465Y0286134D03*
X0240465Y0286466D03*
X0240465Y0287134D03*
X0240465Y0287466D03*
X0240465Y0288134D03*
X0240465Y0288466D03*
X0240465Y0289134D03*
X0240465Y0289466D03*
X0240465Y0290134D03*
X0240465Y0290466D03*
X0240465Y0291134D03*
X0240465Y0291466D03*
X0240465Y0292134D03*
X0240465Y0292466D03*
X0240465Y0293134D03*
X0240465Y0293466D03*
X0240465Y0294134D03*
X0240465Y0294466D03*
X0240465Y0295134D03*
X0240465Y0295466D03*
X0240465Y0296134D03*
X0240465Y0296466D03*
X0240465Y0297134D03*
X0240465Y0297466D03*
X0240465Y0298134D03*
X0240465Y0298466D03*
X0237135Y0299134D03*
X0237135Y0297134D03*
X0237135Y0296466D03*
X0237465Y0295466D03*
X0237135Y0294466D03*
X0237135Y0294134D03*
X0237465Y0293466D03*
X0237465Y0293134D03*
X0237465Y0292466D03*
X0233465Y0290466D03*
X0232135Y0290134D03*
X0231465Y0289466D03*
X0230465Y0288134D03*
X0230135Y0287466D03*
X0229465Y0292466D03*
X0231465Y0293466D03*
X0231135Y0294134D03*
X0232135Y0292466D03*
X0232465Y0292134D03*
X0230465Y0297466D03*
X0228135Y0298134D03*
X0228135Y0298466D03*
X0228465Y0299134D03*
X0228135Y0302134D03*
X0229465Y0302134D03*
X0229465Y0304134D03*
X0230465Y0305466D03*
X0231135Y0305134D03*
X0231465Y0305466D03*
X0232465Y0306466D03*
X0232465Y0307134D03*
X0232465Y0307466D03*
X0232465Y0308134D03*
X0232465Y0308466D03*
X0232465Y0309134D03*
X0232465Y0309466D03*
X0232465Y0310134D03*
X0232465Y0310466D03*
X0236135Y0310466D03*
X0236465Y0309466D03*
X0236465Y0309134D03*
X0236135Y0306466D03*
X0239135Y0306466D03*
X0239465Y0307466D03*
X0240135Y0308466D03*
X0243135Y0306134D03*
X0243465Y0306466D03*
X0242465Y0304466D03*
X0242135Y0304134D03*
X0241465Y0302466D03*
X0241135Y0302134D03*
X0239135Y0304466D03*
X0233465Y0299466D03*
X0227465Y0305134D03*
X0226465Y0307134D03*
X0226135Y0308134D03*
X0228465Y0308134D03*
X0229135Y0307134D03*
X0219465Y0300466D03*
X0221465Y0298466D03*
X0222465Y0296466D03*
X0222465Y0296134D03*
X0222465Y0295466D03*
X0222465Y0295134D03*
X0222465Y0294466D03*
X0222465Y0294134D03*
X0222135Y0293134D03*
X0221135Y0292134D03*
X0218465Y0294134D03*
X0217465Y0293466D03*
X0217135Y0293134D03*
X0218465Y0297466D03*
X0217135Y0298466D03*
X0210465Y0298134D03*
X0210465Y0299134D03*
X0210465Y0299466D03*
X0210465Y0300134D03*
X0210465Y0288466D03*
X0210135Y0288134D03*
X0209465Y0287134D03*
X0209135Y0285466D03*
X0209135Y0285134D03*
X0209135Y0284466D03*
X0209135Y0284134D03*
X0209135Y0283466D03*
X0209135Y0282466D03*
X0210465Y0281466D03*
X0214465Y0281466D03*
X0213135Y0284466D03*
X0213135Y0285134D03*
X0213135Y0285466D03*
X0213135Y0286134D03*
X0213135Y0286466D03*
X0214135Y0287134D03*
X0214465Y0287466D03*
X0215465Y0288134D03*
X0243465Y0288466D03*
X0243465Y0287466D03*
X0244465Y0295134D03*
X0244465Y0296134D03*
X0244465Y0296466D03*
X0244465Y0297134D03*
X0244465Y0297466D03*
X0244465Y0298466D03*
X0246465Y0300466D03*
X0247135Y0300466D03*
X0247465Y0280466D03*
X0274465Y0265466D03*
X0235135Y0244466D03*
X0226135Y0251466D03*
X0225465Y0252134D03*
X0225135Y0252466D03*
X0224465Y0253134D03*
X0224135Y0253466D03*
X0223465Y0254134D03*
X0223135Y0254466D03*
X0222465Y0255134D03*
X0222135Y0255466D03*
X0221465Y0256466D03*
X0220135Y0254466D03*
X0219135Y0253466D03*
X0222465Y0253134D03*
X0223465Y0252466D03*
X0225135Y0251134D03*
X0211135Y0261134D03*
X0212465Y0261466D03*
X0212135Y0262466D03*
X0210135Y0263134D03*
X0234465Y0231134D03*
D19*
X0233135Y0232466D03*
X0231135Y0231466D03*
X0230135Y0234466D03*
X0229135Y0235134D03*
X0228135Y0233466D03*
X0227135Y0234134D03*
X0226465Y0234466D03*
X0227465Y0236134D03*
X0225135Y0237466D03*
X0232135Y0244466D03*
X0225135Y0249466D03*
X0223135Y0250466D03*
X0219465Y0252466D03*
X0218465Y0253134D03*
X0216465Y0254466D03*
X0215135Y0255466D03*
X0211135Y0243466D03*
X0209135Y0242466D03*
X0211465Y0241134D03*
X0206465Y0244466D03*
X0201465Y0269134D03*
X0202465Y0273134D03*
X0201465Y0274134D03*
X0238135Y0273466D03*
X0242465Y0267134D03*
X0251135Y0252134D03*
X0250135Y0251466D03*
X0249465Y0251134D03*
X0253465Y0251466D03*
X0254465Y0252134D03*
X0253135Y0253466D03*
X0254465Y0254466D03*
X0259465Y0244134D03*
X0260135Y0244466D03*
X0261465Y0243134D03*
X0260465Y0242466D03*
X0263465Y0244466D03*
X0242465Y0235134D03*
X0241135Y0234466D03*
X0240465Y0236466D03*
X0267465Y0266134D03*
X0269465Y0267134D03*
X0274465Y0264466D03*
X0268135Y0275134D03*
X0264135Y0273134D03*
X0263465Y0274466D03*
X0262135Y0304134D03*
X0261465Y0304466D03*
X0209135Y0305466D03*
X0208465Y0305134D03*
X0205135Y0306134D03*
D20*
X0205800Y0306466D03*
X0206800Y0304134D03*
X0231800Y0306134D03*
X0242800Y0309134D03*
X0263800Y0306466D03*
X0247800Y0291134D03*
X0230800Y0267134D03*
X0215800Y0252134D03*
X0223800Y0250134D03*
X0223800Y0243466D03*
X0227800Y0240134D03*
X0225800Y0237134D03*
X0226800Y0236466D03*
X0223800Y0238134D03*
X0228800Y0233134D03*
X0229800Y0232466D03*
X0230800Y0234134D03*
X0231800Y0233466D03*
X0238800Y0235466D03*
X0239800Y0236134D03*
X0232800Y0244134D03*
X0230800Y0245134D03*
X0210800Y0241466D03*
X0209800Y0242134D03*
X0209800Y0244134D03*
X0207800Y0243466D03*
X0204800Y0273466D03*
X0203800Y0274134D03*
X0252800Y0251134D03*
X0259800Y0242134D03*
D21*
X0262465Y0243800D03*
X0255465Y0252800D03*
X0254135Y0251800D03*
X0252135Y0252800D03*
X0250465Y0251800D03*
X0233465Y0243800D03*
X0231465Y0244800D03*
X0224465Y0241800D03*
X0224465Y0237800D03*
X0228135Y0235800D03*
X0229135Y0232800D03*
X0240135Y0233800D03*
X0224465Y0249800D03*
X0217465Y0253800D03*
X0216465Y0251800D03*
X0210465Y0243800D03*
X0212135Y0240800D03*
X0198465Y0267800D03*
X0220135Y0277800D03*
X0242465Y0274800D03*
X0247135Y0290800D03*
X0274135Y0264800D03*
X0270465Y0260800D03*
D22*
X0268300Y0262800D03*
X0267300Y0265800D03*
X0262300Y0261800D03*
X0267300Y0271800D03*
X0266300Y0272800D03*
X0227300Y0270800D03*
X0216300Y0280800D03*
X0207300Y0273800D03*
X0209300Y0262800D03*
X0211300Y0255800D03*
X0212300Y0254800D03*
X0213300Y0253800D03*
X0206300Y0246800D03*
X0207300Y0245800D03*
X0207300Y0243800D03*
X0210300Y0241800D03*
X0204300Y0248800D03*
X0199300Y0262800D03*
X0231300Y0233800D03*
X0239300Y0235800D03*
D23*
X0241800Y0234800D03*
X0235800Y0238800D03*
X0229800Y0234800D03*
X0227800Y0233800D03*
X0225800Y0234800D03*
X0208800Y0242800D03*
X0208800Y0244800D03*
X0214800Y0252800D03*
X0199800Y0266800D03*
X0200800Y0273800D03*
X0260800Y0242800D03*
D24*
X0258970Y0243800D03*
X0258970Y0241800D03*
X0256970Y0242800D03*
X0252300Y0250800D03*
X0250300Y0249800D03*
X0247970Y0248800D03*
X0246970Y0249800D03*
X0244970Y0248800D03*
X0245630Y0247800D03*
X0243300Y0246800D03*
X0245300Y0238800D03*
X0245970Y0236800D03*
X0243630Y0235800D03*
X0242970Y0237800D03*
X0240970Y0236800D03*
X0229630Y0245800D03*
X0227300Y0246800D03*
X0226630Y0248800D03*
X0225300Y0247800D03*
X0222970Y0248800D03*
X0222630Y0250800D03*
X0220970Y0251800D03*
X0220630Y0249800D03*
X0218300Y0250800D03*
X0220300Y0239800D03*
X0222300Y0238800D03*
X0221630Y0236800D03*
X0223970Y0235800D03*
X0226300Y0236800D03*
X0213970Y0239800D03*
X0197300Y0260800D03*
X0201970Y0268800D03*
X0242970Y0269800D03*
X0252630Y0271800D03*
X0263630Y0274800D03*
X0268630Y0266800D03*
X0271970Y0259800D03*
X0260970Y0304800D03*
X0258970Y0305800D03*
X0256630Y0306800D03*
X0260970Y0307800D03*
X0263300Y0306800D03*
X0211970Y0306800D03*
X0209970Y0305800D03*
X0208300Y0307800D03*
X0206300Y0306800D03*
D25*
X0210635Y0300466D03*
X0220635Y0299466D03*
X0220965Y0299134D03*
X0222635Y0297466D03*
X0221635Y0292466D03*
X0218635Y0290466D03*
X0215965Y0292466D03*
X0215635Y0292134D03*
X0214635Y0291466D03*
X0212635Y0290134D03*
X0212635Y0282466D03*
X0212965Y0282134D03*
X0210965Y0281134D03*
X0209635Y0282134D03*
X0219965Y0278466D03*
X0222965Y0278134D03*
X0223965Y0278466D03*
X0224635Y0278134D03*
X0224965Y0280134D03*
X0226965Y0277134D03*
X0227965Y0276466D03*
X0228635Y0276134D03*
X0229965Y0275466D03*
X0230635Y0275134D03*
X0228635Y0269134D03*
X0225635Y0267466D03*
X0221965Y0268134D03*
X0217965Y0268134D03*
X0217635Y0266466D03*
X0216635Y0262134D03*
X0217965Y0261134D03*
X0213635Y0263134D03*
X0208965Y0263466D03*
X0207635Y0262134D03*
X0207965Y0261134D03*
X0206965Y0264134D03*
X0206965Y0264466D03*
X0208965Y0266134D03*
X0199635Y0259134D03*
X0199635Y0258466D03*
X0199965Y0257466D03*
X0199965Y0257134D03*
X0197965Y0257134D03*
X0197635Y0258134D03*
X0197635Y0258466D03*
X0197635Y0259134D03*
X0197635Y0260466D03*
X0195965Y0262134D03*
X0200635Y0255134D03*
X0200965Y0254466D03*
X0202635Y0251134D03*
X0207635Y0252134D03*
X0207965Y0252466D03*
X0207635Y0255134D03*
X0210635Y0251466D03*
X0209965Y0250466D03*
X0213965Y0247466D03*
X0214635Y0248134D03*
X0218965Y0245466D03*
X0218635Y0244466D03*
X0217635Y0243466D03*
X0219635Y0242466D03*
X0223965Y0240466D03*
X0234635Y0239466D03*
X0234965Y0237134D03*
X0235965Y0236134D03*
X0238965Y0243134D03*
X0243635Y0242466D03*
X0248635Y0244134D03*
X0252965Y0245134D03*
X0253965Y0247466D03*
X0254635Y0247134D03*
X0258635Y0249466D03*
X0262965Y0252466D03*
X0262965Y0253134D03*
X0263965Y0255134D03*
X0267635Y0252466D03*
X0268635Y0254466D03*
X0268965Y0255466D03*
X0270965Y0255466D03*
X0270965Y0255134D03*
X0270635Y0254134D03*
X0269965Y0252466D03*
X0269635Y0257466D03*
X0269965Y0259134D03*
X0269965Y0259466D03*
X0268635Y0260466D03*
X0267965Y0259466D03*
X0267635Y0258466D03*
X0270965Y0261134D03*
X0272965Y0266466D03*
X0263965Y0268134D03*
X0263965Y0268466D03*
X0263635Y0266466D03*
X0261635Y0266466D03*
X0261635Y0267134D03*
X0261635Y0267466D03*
X0261635Y0268134D03*
X0261635Y0268466D03*
X0261635Y0269134D03*
X0261635Y0269466D03*
X0265965Y0273134D03*
X0262965Y0279134D03*
X0262965Y0279466D03*
X0262965Y0280134D03*
X0262965Y0280466D03*
X0262965Y0281134D03*
X0262965Y0281466D03*
X0262965Y0282134D03*
X0262965Y0282466D03*
X0262965Y0283134D03*
X0262965Y0283466D03*
X0262965Y0284134D03*
X0262965Y0284466D03*
X0262965Y0285134D03*
X0262965Y0285466D03*
X0265635Y0285466D03*
X0265635Y0285134D03*
X0265635Y0284466D03*
X0265635Y0284134D03*
X0265635Y0283466D03*
X0265635Y0283134D03*
X0265635Y0282466D03*
X0265635Y0282134D03*
X0265635Y0281466D03*
X0265635Y0281134D03*
X0265635Y0280466D03*
X0265635Y0280134D03*
X0265635Y0286134D03*
X0265635Y0286466D03*
X0265635Y0287134D03*
X0262635Y0293466D03*
X0262635Y0294134D03*
X0262635Y0294466D03*
X0262635Y0295134D03*
X0262635Y0295466D03*
X0262635Y0296134D03*
X0262635Y0296466D03*
X0262635Y0297134D03*
X0262635Y0297466D03*
X0262635Y0298134D03*
X0262635Y0298466D03*
X0262635Y0299134D03*
X0262635Y0299466D03*
X0262635Y0300134D03*
X0258965Y0299134D03*
X0258965Y0298466D03*
X0247965Y0295134D03*
X0247965Y0294466D03*
X0245635Y0294134D03*
X0247965Y0291466D03*
X0246965Y0290466D03*
X0244635Y0289134D03*
X0243635Y0287134D03*
X0237635Y0284134D03*
X0237635Y0283466D03*
X0237635Y0283134D03*
X0242635Y0277466D03*
X0240965Y0276466D03*
X0246965Y0277134D03*
X0247635Y0280134D03*
X0252635Y0275466D03*
X0244965Y0268466D03*
X0241965Y0264134D03*
X0243635Y0260134D03*
X0243965Y0252134D03*
X0232635Y0253134D03*
X0230965Y0255134D03*
X0223635Y0262134D03*
X0218635Y0271466D03*
X0221635Y0282466D03*
X0229965Y0282134D03*
X0230965Y0283466D03*
X0233635Y0287134D03*
X0234635Y0288466D03*
X0235635Y0289466D03*
X0237635Y0292134D03*
X0232965Y0291466D03*
X0230965Y0291466D03*
X0229965Y0292134D03*
X0228635Y0293134D03*
X0230965Y0294466D03*
X0231965Y0298466D03*
X0243635Y0307134D03*
X0255965Y0263134D03*
X0260965Y0262466D03*
X0261965Y0261134D03*
X0262635Y0262134D03*
X0262635Y0262466D03*
X0262965Y0263466D03*
X0252965Y0257134D03*
D26*
X0246465Y0248134D03*
X0244135Y0247134D03*
X0241135Y0247134D03*
X0239465Y0246466D03*
X0232135Y0246466D03*
X0230465Y0247134D03*
X0224465Y0248134D03*
X0222135Y0249134D03*
X0221465Y0251466D03*
X0220465Y0252134D03*
X0213465Y0242466D03*
X0214135Y0242134D03*
X0216135Y0241466D03*
X0217465Y0238466D03*
X0219465Y0240134D03*
X0220135Y0237466D03*
X0222465Y0236466D03*
X0244465Y0238466D03*
X0246135Y0239134D03*
X0247135Y0239466D03*
X0247465Y0237466D03*
X0245135Y0236466D03*
X0250135Y0238466D03*
X0252135Y0239134D03*
X0255465Y0242134D03*
X0256135Y0242466D03*
X0214135Y0262466D03*
X0203465Y0268134D03*
X0205465Y0275466D03*
X0207135Y0304466D03*
X0213465Y0307466D03*
X0212135Y0309466D03*
X0216135Y0308466D03*
X0251135Y0292134D03*
X0257465Y0306466D03*
X0257465Y0309134D03*
X0259465Y0308466D03*
X0260135Y0308134D03*
X0253135Y0308134D03*
D27*
X0265300Y0301800D03*
X0265300Y0300800D03*
X0265300Y0299800D03*
X0265300Y0298800D03*
X0265300Y0297800D03*
X0265300Y0296800D03*
X0265300Y0295800D03*
X0246300Y0293800D03*
X0237300Y0294800D03*
X0237300Y0289800D03*
X0237300Y0288800D03*
X0230300Y0287800D03*
X0227300Y0283800D03*
X0222300Y0282800D03*
X0227300Y0276800D03*
X0229300Y0275800D03*
X0220300Y0273800D03*
X0219300Y0274800D03*
X0206300Y0271800D03*
X0206300Y0269800D03*
X0204300Y0267800D03*
X0199300Y0269800D03*
X0198300Y0255800D03*
X0213300Y0245800D03*
X0215300Y0247800D03*
X0221300Y0259800D03*
X0244300Y0252800D03*
X0258300Y0250800D03*
X0266300Y0256800D03*
X0268300Y0253800D03*
X0271300Y0256800D03*
X0274300Y0261800D03*
X0271300Y0269800D03*
X0264300Y0269800D03*
X0263300Y0270800D03*
X0248300Y0279800D03*
X0244300Y0282800D03*
X0243300Y0277800D03*
X0231300Y0293800D03*
X0219300Y0290800D03*
X0218300Y0297800D03*
X0220300Y0299800D03*
X0228300Y0302800D03*
X0212300Y0289800D03*
X0206300Y0289800D03*
X0206300Y0288800D03*
X0206300Y0287800D03*
X0206300Y0286800D03*
X0206300Y0285800D03*
X0206300Y0284800D03*
X0206300Y0283800D03*
X0206300Y0282800D03*
X0206300Y0290800D03*
X0206300Y0291800D03*
X0206300Y0292800D03*
X0206300Y0293800D03*
X0206300Y0294800D03*
X0206300Y0295800D03*
X0206300Y0296800D03*
X0206300Y0297800D03*
X0234300Y0236800D03*
D28*
X0234800Y0243134D03*
X0236800Y0245466D03*
X0248800Y0249134D03*
X0246800Y0237134D03*
X0219800Y0250134D03*
X0216800Y0241134D03*
X0215800Y0239134D03*
X0214800Y0239466D03*
X0265800Y0276134D03*
X0255800Y0307134D03*
X0254800Y0307466D03*
D29*
X0255800Y0299134D03*
X0255800Y0298466D03*
X0255800Y0298134D03*
X0255800Y0297466D03*
X0255800Y0297134D03*
X0255800Y0296466D03*
X0255800Y0296134D03*
X0255800Y0295466D03*
X0255800Y0295134D03*
X0255800Y0294466D03*
X0255800Y0294134D03*
X0255800Y0293466D03*
X0255800Y0293134D03*
X0249800Y0292466D03*
X0248800Y0291466D03*
X0248800Y0289466D03*
X0247800Y0287466D03*
X0247800Y0287134D03*
X0247800Y0286466D03*
X0247800Y0286134D03*
X0247800Y0285466D03*
X0247800Y0285134D03*
X0247800Y0282466D03*
X0246800Y0280466D03*
X0245800Y0281134D03*
X0248800Y0279466D03*
X0249800Y0277466D03*
X0249800Y0274466D03*
X0250800Y0272134D03*
X0250800Y0270466D03*
X0250800Y0267466D03*
X0251800Y0267134D03*
X0247800Y0267134D03*
X0246800Y0267466D03*
X0245800Y0266466D03*
X0245800Y0265134D03*
X0244800Y0264466D03*
X0243800Y0265134D03*
X0242800Y0264466D03*
X0241800Y0262466D03*
X0240800Y0260466D03*
X0240800Y0257466D03*
X0239800Y0256134D03*
X0240800Y0254466D03*
X0235800Y0253466D03*
X0232800Y0254134D03*
X0229800Y0256134D03*
X0228800Y0254466D03*
X0224800Y0251466D03*
X0223800Y0252134D03*
X0220800Y0252466D03*
X0219800Y0253134D03*
X0220800Y0254134D03*
X0218800Y0256466D03*
X0217800Y0255134D03*
X0215800Y0256466D03*
X0218800Y0260134D03*
X0221800Y0260466D03*
X0222800Y0262466D03*
X0224800Y0261466D03*
X0224800Y0261134D03*
X0227800Y0260134D03*
X0226800Y0264134D03*
X0224800Y0264466D03*
X0223800Y0265134D03*
X0221800Y0269134D03*
X0225800Y0272134D03*
X0225800Y0272466D03*
X0225800Y0273134D03*
X0225800Y0273466D03*
X0225800Y0274134D03*
X0225800Y0274466D03*
X0226800Y0274134D03*
X0227800Y0271466D03*
X0227800Y0271134D03*
X0228800Y0269466D03*
X0228800Y0267134D03*
X0229800Y0265134D03*
X0231800Y0267466D03*
X0236800Y0268134D03*
X0236800Y0269134D03*
X0237800Y0270466D03*
X0239800Y0268466D03*
X0239800Y0268134D03*
X0240800Y0269134D03*
X0241800Y0269466D03*
X0243800Y0269466D03*
X0243800Y0271466D03*
X0242800Y0272466D03*
X0241800Y0274134D03*
X0238800Y0274134D03*
X0238800Y0274466D03*
X0238800Y0275134D03*
X0237800Y0281134D03*
X0237800Y0281466D03*
X0237800Y0282134D03*
X0237800Y0282466D03*
X0240800Y0281134D03*
X0243800Y0285134D03*
X0243800Y0285466D03*
X0243800Y0286134D03*
X0243800Y0286466D03*
X0243800Y0288134D03*
X0246800Y0293466D03*
X0248800Y0293466D03*
X0247800Y0295466D03*
X0244800Y0295466D03*
X0245800Y0299466D03*
X0248800Y0298466D03*
X0240800Y0299466D03*
X0240800Y0301466D03*
X0241800Y0303134D03*
X0241800Y0303466D03*
X0242800Y0305134D03*
X0242800Y0305466D03*
X0239800Y0308134D03*
X0230800Y0304466D03*
X0229800Y0304466D03*
X0228800Y0303466D03*
X0227800Y0302466D03*
X0227800Y0304466D03*
X0226800Y0306466D03*
X0229800Y0306134D03*
X0219800Y0300134D03*
X0218800Y0301134D03*
X0217800Y0298466D03*
X0218800Y0297134D03*
X0218800Y0296466D03*
X0218800Y0296134D03*
X0218800Y0295466D03*
X0218800Y0295134D03*
X0219800Y0291134D03*
X0214800Y0288134D03*
X0213800Y0287466D03*
X0212800Y0284134D03*
X0212800Y0283466D03*
X0212800Y0283134D03*
X0213800Y0281466D03*
X0211800Y0280466D03*
X0208800Y0286134D03*
X0208800Y0286466D03*
X0208800Y0287134D03*
X0221800Y0298134D03*
X0222800Y0297134D03*
X0227800Y0295466D03*
X0227800Y0295134D03*
X0227800Y0294466D03*
X0230800Y0295466D03*
X0230800Y0296134D03*
X0230800Y0296466D03*
X0230800Y0297134D03*
X0228800Y0299466D03*
X0231800Y0293134D03*
X0236800Y0297466D03*
X0236800Y0298134D03*
X0236800Y0298466D03*
X0233800Y0287466D03*
X0232800Y0286134D03*
X0231800Y0284466D03*
X0230800Y0283134D03*
X0227800Y0284466D03*
X0226800Y0283134D03*
X0224800Y0280466D03*
X0228800Y0280466D03*
X0229800Y0276134D03*
X0219800Y0274134D03*
X0215800Y0271466D03*
X0214800Y0270466D03*
X0214800Y0270134D03*
X0214800Y0269466D03*
X0214800Y0269134D03*
X0216800Y0268466D03*
X0210800Y0264466D03*
X0211800Y0262134D03*
X0221800Y0258134D03*
X0221800Y0257466D03*
X0212800Y0250134D03*
X0212800Y0249466D03*
X0211800Y0249466D03*
X0211800Y0248466D03*
X0211800Y0250466D03*
X0210800Y0250466D03*
X0208800Y0252466D03*
X0213800Y0247134D03*
X0215800Y0247466D03*
X0218800Y0243466D03*
X0220800Y0244466D03*
X0222800Y0242466D03*
X0223800Y0241466D03*
X0224800Y0241134D03*
X0228800Y0242134D03*
X0228800Y0242466D03*
X0229800Y0242134D03*
X0229800Y0241134D03*
X0229800Y0240466D03*
X0235800Y0238134D03*
X0235800Y0237466D03*
X0239800Y0241134D03*
X0239800Y0241466D03*
X0239800Y0242134D03*
X0239800Y0242466D03*
X0240800Y0242466D03*
X0240800Y0242134D03*
X0244800Y0243466D03*
X0246800Y0244134D03*
X0246800Y0242134D03*
X0248800Y0244466D03*
X0251800Y0244466D03*
X0252800Y0244466D03*
X0252800Y0245466D03*
X0254800Y0248134D03*
X0257800Y0248134D03*
X0257800Y0248466D03*
X0257800Y0247466D03*
X0258800Y0248466D03*
X0259800Y0249466D03*
X0258800Y0250466D03*
X0257800Y0250134D03*
X0259800Y0252134D03*
X0260800Y0251466D03*
X0261800Y0252134D03*
X0261800Y0253466D03*
X0262800Y0253466D03*
X0262800Y0254134D03*
X0264800Y0254466D03*
X0265800Y0255466D03*
X0265800Y0257134D03*
X0263800Y0256466D03*
X0265800Y0259466D03*
X0266800Y0261466D03*
X0273800Y0264134D03*
X0259800Y0263134D03*
X0257800Y0261466D03*
X0257800Y0265466D03*
X0253800Y0271134D03*
X0252800Y0273134D03*
X0252800Y0273466D03*
X0252800Y0275134D03*
X0246800Y0276466D03*
X0247800Y0269466D03*
X0240800Y0266466D03*
X0239800Y0265466D03*
X0239800Y0265134D03*
X0243800Y0261134D03*
X0244800Y0262466D03*
X0246800Y0262466D03*
X0247800Y0259466D03*
X0247800Y0259134D03*
X0249800Y0258466D03*
X0249800Y0258134D03*
X0249800Y0257466D03*
X0249800Y0257134D03*
X0250800Y0256134D03*
X0251800Y0256466D03*
X0251800Y0255134D03*
X0252800Y0255134D03*
X0252800Y0257466D03*
X0252800Y0258466D03*
X0253800Y0259134D03*
X0254800Y0258134D03*
X0246800Y0256134D03*
X0229800Y0287134D03*
X0230800Y0288466D03*
X0206800Y0305134D03*
D30*
X0210465Y0308800D03*
X0214465Y0307800D03*
X0254135Y0307800D03*
X0258465Y0308800D03*
X0204135Y0273800D03*
X0219465Y0252800D03*
X0231135Y0246800D03*
X0236465Y0243800D03*
X0240465Y0246800D03*
X0241135Y0245800D03*
X0248465Y0237800D03*
X0251135Y0238800D03*
X0254465Y0241800D03*
X0219135Y0237800D03*
X0216465Y0238800D03*
X0215135Y0241800D03*
X0212465Y0242800D03*
D31*
X0214800Y0245800D03*
X0213800Y0247800D03*
X0210800Y0250800D03*
X0209800Y0250800D03*
X0209800Y0253800D03*
X0208800Y0254800D03*
X0217800Y0260800D03*
X0217800Y0261800D03*
X0212800Y0261800D03*
X0210800Y0264800D03*
X0216800Y0266800D03*
X0215800Y0268800D03*
X0214800Y0269800D03*
X0221800Y0267800D03*
X0221800Y0266800D03*
X0222800Y0269800D03*
X0225800Y0272800D03*
X0225800Y0273800D03*
X0223800Y0275800D03*
X0222800Y0277800D03*
X0225800Y0281800D03*
X0229800Y0281800D03*
X0228800Y0285800D03*
X0231800Y0289800D03*
X0231800Y0292800D03*
X0230800Y0295800D03*
X0230800Y0296800D03*
X0227800Y0294800D03*
X0220800Y0291800D03*
X0218800Y0294800D03*
X0218800Y0295800D03*
X0218800Y0296800D03*
X0210800Y0300800D03*
X0208800Y0286800D03*
X0208800Y0285800D03*
X0212800Y0283800D03*
X0214800Y0280800D03*
X0228800Y0268800D03*
X0228800Y0267800D03*
X0229800Y0264800D03*
X0225800Y0264800D03*
X0224800Y0261800D03*
X0221800Y0257800D03*
X0222800Y0254800D03*
X0223800Y0253800D03*
X0224800Y0252800D03*
X0225800Y0251800D03*
X0227800Y0255800D03*
X0228800Y0257800D03*
X0234800Y0251800D03*
X0237800Y0254800D03*
X0239800Y0253800D03*
X0239800Y0255800D03*
X0241800Y0255800D03*
X0241800Y0258800D03*
X0240800Y0260800D03*
X0243800Y0263800D03*
X0244800Y0265800D03*
X0246800Y0265800D03*
X0244800Y0268800D03*
X0243800Y0267800D03*
X0239800Y0267800D03*
X0239800Y0265800D03*
X0239800Y0264800D03*
X0236800Y0268800D03*
X0238800Y0273800D03*
X0238800Y0274800D03*
X0231800Y0271800D03*
X0231800Y0270800D03*
X0247800Y0261800D03*
X0247800Y0259800D03*
X0247800Y0258800D03*
X0249800Y0258800D03*
X0249800Y0257800D03*
X0251800Y0260800D03*
X0252800Y0261800D03*
X0251800Y0262800D03*
X0256800Y0262800D03*
X0256800Y0260800D03*
X0253800Y0256800D03*
X0250800Y0253800D03*
X0248800Y0252800D03*
X0245800Y0254800D03*
X0243800Y0251800D03*
X0252800Y0245800D03*
X0252800Y0244800D03*
X0251800Y0244800D03*
X0247800Y0244800D03*
X0244800Y0243800D03*
X0244800Y0242800D03*
X0240800Y0242800D03*
X0240800Y0241800D03*
X0235800Y0237800D03*
X0233800Y0237800D03*
X0229800Y0241800D03*
X0224800Y0240800D03*
X0222800Y0243800D03*
X0254800Y0247800D03*
X0257800Y0249800D03*
X0258800Y0248800D03*
X0260800Y0250800D03*
X0261800Y0250800D03*
X0262800Y0253800D03*
X0264800Y0257800D03*
X0255800Y0266800D03*
X0248800Y0273800D03*
X0249800Y0274800D03*
X0249800Y0275800D03*
X0248800Y0281800D03*
X0247800Y0285800D03*
X0247800Y0286800D03*
X0247800Y0287800D03*
X0245800Y0289800D03*
X0246800Y0292800D03*
X0247800Y0292800D03*
X0248800Y0293800D03*
X0247800Y0295800D03*
X0244800Y0298800D03*
X0240800Y0299800D03*
X0236800Y0297800D03*
X0237800Y0291800D03*
X0234800Y0288800D03*
X0237800Y0282800D03*
X0237800Y0281800D03*
X0243800Y0285800D03*
X0255800Y0292800D03*
X0255800Y0293800D03*
X0255800Y0294800D03*
X0255800Y0295800D03*
X0255800Y0296800D03*
X0255800Y0297800D03*
X0255800Y0298800D03*
X0250800Y0299800D03*
X0243800Y0307800D03*
X0228800Y0307800D03*
D32*
X0215300Y0308134D03*
X0201300Y0266134D03*
X0197300Y0261134D03*
X0218300Y0238134D03*
X0249300Y0238134D03*
X0253300Y0241466D03*
D33*
X0251135Y0245800D03*
X0248465Y0243800D03*
X0247135Y0243800D03*
X0243465Y0241800D03*
X0242465Y0241800D03*
X0239465Y0242800D03*
X0238465Y0242800D03*
X0238135Y0241800D03*
X0237135Y0240800D03*
X0235135Y0242800D03*
X0234465Y0242800D03*
X0229465Y0239800D03*
X0228465Y0240800D03*
X0223465Y0240800D03*
X0219135Y0243800D03*
X0217135Y0243800D03*
X0215135Y0244800D03*
X0216465Y0246800D03*
X0214465Y0247800D03*
X0212465Y0249800D03*
X0212135Y0250800D03*
X0211465Y0250800D03*
X0210465Y0248800D03*
X0209135Y0253800D03*
X0207465Y0254800D03*
X0208135Y0255800D03*
X0207135Y0252800D03*
X0214135Y0257800D03*
X0215465Y0256800D03*
X0216135Y0257800D03*
X0218135Y0257800D03*
X0218135Y0256800D03*
X0217135Y0255800D03*
X0219465Y0254800D03*
X0222135Y0255800D03*
X0221135Y0257800D03*
X0221135Y0258800D03*
X0221135Y0260800D03*
X0221465Y0261800D03*
X0218465Y0260800D03*
X0218135Y0259800D03*
X0218135Y0258800D03*
X0217135Y0261800D03*
X0216465Y0262800D03*
X0218465Y0266800D03*
X0218465Y0267800D03*
X0221135Y0267800D03*
X0221465Y0268800D03*
X0222465Y0266800D03*
X0223135Y0265800D03*
X0224135Y0265800D03*
X0224465Y0264800D03*
X0226135Y0263800D03*
X0227465Y0262800D03*
X0228135Y0261800D03*
X0227135Y0258800D03*
X0227465Y0256800D03*
X0229465Y0256800D03*
X0231465Y0253800D03*
X0233135Y0252800D03*
X0233465Y0253800D03*
X0240135Y0256800D03*
X0241135Y0257800D03*
X0242465Y0257800D03*
X0242135Y0256800D03*
X0241135Y0254800D03*
X0246135Y0253800D03*
X0246465Y0255800D03*
X0247465Y0256800D03*
X0248135Y0257800D03*
X0250135Y0256800D03*
X0251135Y0255800D03*
X0252135Y0254800D03*
X0248135Y0254800D03*
X0247135Y0251800D03*
X0251135Y0259800D03*
X0250465Y0260800D03*
X0248465Y0260800D03*
X0247135Y0260800D03*
X0244135Y0261800D03*
X0242135Y0262800D03*
X0241135Y0261800D03*
X0241135Y0259800D03*
X0243135Y0264800D03*
X0245135Y0264800D03*
X0246135Y0266800D03*
X0248135Y0267800D03*
X0245135Y0269800D03*
X0242135Y0271800D03*
X0243135Y0273800D03*
X0246465Y0275800D03*
X0246465Y0276800D03*
X0246465Y0277800D03*
X0249135Y0274800D03*
X0250465Y0271800D03*
X0251135Y0270800D03*
X0252135Y0272800D03*
X0254135Y0270800D03*
X0254135Y0269800D03*
X0253465Y0268800D03*
X0257465Y0265800D03*
X0259465Y0263800D03*
X0257465Y0261800D03*
X0258135Y0260800D03*
X0255135Y0257800D03*
X0254135Y0258800D03*
X0253465Y0258800D03*
X0261465Y0253800D03*
X0262135Y0251800D03*
X0264465Y0254800D03*
X0263135Y0255800D03*
X0266135Y0255800D03*
X0267465Y0257800D03*
X0267465Y0259800D03*
X0268465Y0259800D03*
X0266465Y0260800D03*
X0265135Y0258800D03*
X0264135Y0270800D03*
X0270465Y0271800D03*
X0272135Y0268800D03*
X0259135Y0279800D03*
X0259135Y0280800D03*
X0259135Y0281800D03*
X0259135Y0282800D03*
X0259135Y0283800D03*
X0259135Y0284800D03*
X0259135Y0285800D03*
X0259135Y0286800D03*
X0259135Y0287800D03*
X0259135Y0288800D03*
X0259135Y0289800D03*
X0259135Y0290800D03*
X0259135Y0291800D03*
X0259135Y0292800D03*
X0259135Y0293800D03*
X0259135Y0294800D03*
X0259135Y0295800D03*
X0259135Y0296800D03*
X0259135Y0297800D03*
X0259135Y0299800D03*
X0249135Y0298800D03*
X0248135Y0297800D03*
X0248135Y0296800D03*
X0246135Y0299800D03*
X0244465Y0297800D03*
X0244465Y0296800D03*
X0244465Y0295800D03*
X0240465Y0295800D03*
X0240465Y0294800D03*
X0240465Y0293800D03*
X0240465Y0292800D03*
X0240465Y0291800D03*
X0240465Y0290800D03*
X0240465Y0289800D03*
X0240465Y0288800D03*
X0240465Y0287800D03*
X0240465Y0286800D03*
X0240465Y0285800D03*
X0240465Y0284800D03*
X0240465Y0283800D03*
X0240465Y0282800D03*
X0240465Y0281800D03*
X0241135Y0280800D03*
X0244465Y0281800D03*
X0247465Y0283800D03*
X0248135Y0288800D03*
X0249465Y0289800D03*
X0249135Y0291800D03*
X0248465Y0291800D03*
X0255465Y0289800D03*
X0255465Y0288800D03*
X0255465Y0287800D03*
X0255465Y0286800D03*
X0255465Y0285800D03*
X0255465Y0284800D03*
X0255465Y0283800D03*
X0255465Y0282800D03*
X0255465Y0281800D03*
X0237465Y0280800D03*
X0237465Y0284800D03*
X0237465Y0285800D03*
X0237465Y0286800D03*
X0237135Y0287800D03*
X0234135Y0287800D03*
X0233465Y0286800D03*
X0231135Y0288800D03*
X0229465Y0286800D03*
X0228135Y0284800D03*
X0226465Y0282800D03*
X0225135Y0280800D03*
X0223465Y0280800D03*
X0223465Y0281800D03*
X0223465Y0282800D03*
X0229135Y0280800D03*
X0230465Y0282800D03*
X0231135Y0283800D03*
X0230465Y0291800D03*
X0229135Y0292800D03*
X0228135Y0293800D03*
X0228135Y0297800D03*
X0229465Y0299800D03*
X0232465Y0298800D03*
X0237135Y0296800D03*
X0237465Y0295800D03*
X0237135Y0293800D03*
X0237465Y0292800D03*
X0240465Y0296800D03*
X0240465Y0297800D03*
X0240465Y0298800D03*
X0241135Y0301800D03*
X0241465Y0302800D03*
X0242135Y0303800D03*
X0242465Y0304800D03*
X0243135Y0305800D03*
X0243465Y0306800D03*
X0239465Y0307800D03*
X0236135Y0306800D03*
X0236465Y0309800D03*
X0232465Y0309800D03*
X0232465Y0308800D03*
X0232465Y0307800D03*
X0232465Y0306800D03*
X0231135Y0305800D03*
X0230135Y0305800D03*
X0230465Y0304800D03*
X0230465Y0303800D03*
X0229465Y0306800D03*
X0227135Y0305800D03*
X0226135Y0307800D03*
X0221135Y0298800D03*
X0222135Y0297800D03*
X0222465Y0295800D03*
X0222465Y0293800D03*
X0210465Y0297800D03*
X0210465Y0298800D03*
X0210465Y0299800D03*
X0213135Y0285800D03*
X0213135Y0284800D03*
X0212135Y0282800D03*
X0213465Y0281800D03*
X0211465Y0280800D03*
X0210135Y0281800D03*
X0209465Y0282800D03*
X0209135Y0283800D03*
X0209135Y0284800D03*
X0214135Y0278800D03*
X0216135Y0274800D03*
X0216135Y0273800D03*
X0216135Y0271800D03*
X0214135Y0267800D03*
X0213135Y0266800D03*
X0212465Y0265800D03*
X0210465Y0263800D03*
X0211465Y0261800D03*
X0211135Y0260800D03*
X0212135Y0260800D03*
X0203465Y0267800D03*
X0219135Y0275800D03*
X0222465Y0275800D03*
X0222465Y0276800D03*
X0223135Y0276800D03*
X0228135Y0276800D03*
X0230135Y0275800D03*
X0232135Y0272800D03*
X0232135Y0267800D03*
X0230135Y0265800D03*
X0229465Y0266800D03*
X0225465Y0267800D03*
X0225465Y0268800D03*
X0237465Y0271800D03*
X0241135Y0266800D03*
X0224135Y0251800D03*
X0223135Y0252800D03*
X0234135Y0238800D03*
X0256135Y0247800D03*
X0257465Y0248800D03*
D34*
X0255965Y0240466D03*
X0254965Y0240134D03*
X0252965Y0239466D03*
X0248965Y0240134D03*
X0238635Y0246134D03*
X0269635Y0262134D03*
X0267965Y0266466D03*
X0263965Y0275134D03*
X0233965Y0299134D03*
X0226965Y0308466D03*
X0214965Y0310466D03*
X0213965Y0310134D03*
X0254635Y0310134D03*
X0256635Y0309466D03*
X0200965Y0266466D03*
D35*
X0214800Y0267134D03*
X0235800Y0245134D03*
X0250130Y0240466D03*
X0252470Y0241134D03*
X0253470Y0267466D03*
X0252130Y0308466D03*
X0253470Y0310466D03*
X0251130Y0311134D03*
X0249800Y0309134D03*
X0219470Y0309466D03*
X0218130Y0309134D03*
X0217130Y0311134D03*
D36*
X0264800Y0268800D03*
X0242800Y0247800D03*
X0238800Y0244800D03*
X0237800Y0245800D03*
X0233800Y0245800D03*
X0228800Y0247800D03*
X0217800Y0240800D03*
X0256800Y0240800D03*
D37*
X0251130Y0240800D03*
X0251130Y0308800D03*
X0252470Y0310800D03*
D38*
X0240635Y0308800D03*
X0236965Y0298800D03*
X0233635Y0298800D03*
X0230965Y0297800D03*
X0232635Y0291800D03*
X0232635Y0285800D03*
X0231965Y0284800D03*
X0237635Y0283800D03*
X0243635Y0284800D03*
X0243965Y0283800D03*
X0243635Y0286800D03*
X0243965Y0288800D03*
X0244965Y0289800D03*
X0249635Y0292800D03*
X0247965Y0294800D03*
X0244965Y0294800D03*
X0258965Y0298800D03*
X0262635Y0298800D03*
X0262635Y0297800D03*
X0262635Y0296800D03*
X0262635Y0295800D03*
X0262635Y0294800D03*
X0262635Y0293800D03*
X0262635Y0299800D03*
X0265635Y0286800D03*
X0265635Y0285800D03*
X0265635Y0284800D03*
X0265635Y0283800D03*
X0265635Y0282800D03*
X0265635Y0281800D03*
X0265635Y0280800D03*
X0262965Y0280800D03*
X0262965Y0281800D03*
X0262965Y0282800D03*
X0262965Y0283800D03*
X0262965Y0284800D03*
X0262965Y0285800D03*
X0262965Y0279800D03*
X0261965Y0271800D03*
X0261635Y0269800D03*
X0261635Y0268800D03*
X0261635Y0267800D03*
X0261635Y0266800D03*
X0263635Y0266800D03*
X0262965Y0263800D03*
X0261965Y0260800D03*
X0266965Y0258800D03*
X0267965Y0260800D03*
X0269965Y0258800D03*
X0269635Y0257800D03*
X0264635Y0255800D03*
X0263965Y0253800D03*
X0262635Y0254800D03*
X0254965Y0246800D03*
X0253635Y0245800D03*
X0252635Y0246800D03*
X0251635Y0243800D03*
X0248635Y0244800D03*
X0231965Y0254800D03*
X0223635Y0260800D03*
X0227635Y0268800D03*
X0231635Y0273800D03*
X0239635Y0269800D03*
X0241635Y0276800D03*
X0247635Y0269800D03*
X0249965Y0270800D03*
X0251635Y0275800D03*
X0255635Y0261800D03*
X0244635Y0260800D03*
X0267965Y0270800D03*
X0227635Y0241800D03*
X0225635Y0242800D03*
X0219965Y0243800D03*
X0218965Y0242800D03*
X0215635Y0245800D03*
X0213635Y0246800D03*
X0211635Y0248800D03*
X0208635Y0252800D03*
X0198635Y0254800D03*
X0197965Y0256800D03*
X0197635Y0258800D03*
X0199635Y0258800D03*
X0206965Y0264800D03*
X0208965Y0263800D03*
X0209635Y0261800D03*
X0212635Y0262800D03*
X0216635Y0267800D03*
X0212965Y0279800D03*
X0212965Y0282800D03*
X0213635Y0286800D03*
X0210965Y0288800D03*
X0209635Y0287800D03*
X0213635Y0290800D03*
X0214965Y0291800D03*
X0216635Y0292800D03*
X0217965Y0293800D03*
X0221965Y0292800D03*
X0217635Y0289800D03*
X0222635Y0279800D03*
X0218965Y0300800D03*
D39*
X0249800Y0311466D03*
X0234800Y0243466D03*
D40*
X0238130Y0250800D03*
D41*
X0265970Y0269466D03*
X0271630Y0260134D03*
X0252300Y0290134D03*
X0245970Y0310134D03*
X0246630Y0312134D03*
X0221970Y0310134D03*
X0220970Y0312134D03*
D42*
X0223800Y0310466D03*
X0239800Y0271466D03*
X0271800Y0260466D03*
D43*
X0203300Y0268466D03*
X0197300Y0261466D03*
X0218300Y0311466D03*
D44*
X0254135Y0292466D03*
X0265465Y0269134D03*
D45*
X0240470Y0270800D03*
D46*
X0228800Y0271800D03*
D47*
X0217635Y0275466D03*
X0204635Y0275134D03*
X0202635Y0274466D03*
X0235965Y0304134D03*
X0237635Y0306134D03*
X0248635Y0309466D03*
D48*
X0204300Y0274800D03*
D49*
X0265630Y0275466D03*
D50*
X0265970Y0275800D03*
X0248300Y0311800D03*
X0234300Y0310800D03*
D51*
X0233800Y0311800D03*
X0217800Y0278800D03*
D52*
X0254465Y0279466D03*
D53*
X0252965Y0281134D03*
D54*
X0214300Y0299134D03*
D55*
X0252465Y0299466D03*
D56*
X0237300Y0300466D03*
D57*
X0252970Y0300800D03*
D58*
X0214465Y0301134D03*
D59*
X0233300Y0302800D03*
D60*
X0235630Y0304800D03*
D61*
X0217300Y0308800D03*
D62*
X0219465Y0311800D03*
X0247465Y0309800D03*
D63*
X0220635Y0309800D03*
D64*
X0244135Y0310466D03*
D65*
X0241970Y0310800D03*
X0233630Y0313800D03*
D66*
X0225800Y0310800D03*
D67*
X0233800Y0311134D03*
D68*
X0233800Y0311466D03*
D69*
X0244800Y0312466D03*
D70*
X0222965Y0312466D03*
D71*
X0225135Y0312800D03*
X0242465Y0312800D03*
D72*
X0233635Y0313134D03*
D73*
X0233635Y0313466D03*
M02*
