%
M48
M72
T01C0.02362
T02C0.02756
T03C0.03150
T04C0.03200
T05C0.04000
T06C0.04331
T07C0.04400
T08C0.12992
T09C0.59055
%
T01
X171800Y106800
X246800Y161800
X311800Y196800
X351800Y161800
T02
X81800Y41800
X81800Y31800
T03
X136800Y266800
X136800Y276800
X136800Y286800
X136800Y296800
T04
X391800Y186800
X391800Y176800
X391800Y146800
X391800Y136800
X391800Y106800
X391800Y96800
T05
X356800Y91800
X356800Y81800
X356800Y71800
X356800Y61800
X356800Y101800
X356800Y111800
X356800Y121800
X356800Y131800
X266800Y131800
X266800Y121800
X266800Y111800
X266800Y101800
X266800Y91800
X266800Y81800
X266800Y71800
X266800Y61800
X246800Y31800
X186800Y61800
X211800Y81800
X171800Y31800
X111800Y86800
X266800Y206800
X266800Y216800
X266800Y226800
X266800Y236800
X266800Y246800
X266800Y256800
X266800Y266800
X266800Y276800
X241800Y231800
X211800Y231800
X356800Y226800
X356800Y216800
X356800Y206800
X391800Y216800
X391800Y236800
X356800Y236800
X356800Y246800
X356800Y256800
X356800Y266800
X356800Y276800
T06
X241800Y171800
X211800Y171800
X211800Y141800
X171800Y86800
X246800Y61800
X186800Y31800
X111800Y31800
X71800Y76800
X61800Y76800
X51800Y76800
X41800Y76800
X31800Y76800
X21800Y76800
T07
X71800Y286800
X81800Y286800
T08
X31800Y31800
X31800Y286800
X391800Y286800
X391800Y31800
T09
X106033Y180416
M30
