G75*
%MOIN*%
%OFA0B0*%
%FSLAX25Y25*%
%IPPOS*%
%LPD*%
%AMOC8*
5,1,8,0,0,1.08239X$1,22.5*
%
%ADD10OC8,0.10800*%
%ADD11R,0.06350X0.06350*%
%ADD12C,0.06350*%
%ADD13C,0.07531*%
%ADD14C,0.59855*%
%ADD15C,0.08000*%
%ADD16C,0.13792*%
%ADD17C,0.08400*%
%ADD18C,0.08200*%
%ADD19C,0.07300*%
%ADD20R,0.07300X0.07300*%
D10*
X0111800Y0031800D03*
X0171800Y0031800D03*
X0186800Y0031800D03*
X0186800Y0061800D03*
X0211800Y0081800D03*
X0246800Y0061800D03*
X0246800Y0031800D03*
X0171800Y0086800D03*
X0111800Y0086800D03*
X0211800Y0141800D03*
X0211800Y0171800D03*
X0241800Y0171800D03*
X0241800Y0231800D03*
X0211800Y0231800D03*
X0391800Y0236800D03*
X0391800Y0216800D03*
D11*
X0136800Y0296800D03*
D12*
X0136800Y0286800D03*
X0136800Y0276800D03*
X0136800Y0266800D03*
D13*
X0071800Y0080165D02*
X0071800Y0073435D01*
X0061800Y0073435D02*
X0061800Y0080165D01*
X0051800Y0080165D02*
X0051800Y0073435D01*
X0041800Y0073435D02*
X0041800Y0080165D01*
X0031800Y0080165D02*
X0031800Y0073435D01*
X0021800Y0073435D02*
X0021800Y0080165D01*
D14*
X0106033Y0180416D03*
D15*
X0263200Y0206800D02*
X0270400Y0206800D01*
X0270400Y0216800D02*
X0263200Y0216800D01*
X0263200Y0226800D02*
X0270400Y0226800D01*
X0270400Y0236800D02*
X0263200Y0236800D01*
X0263200Y0246800D02*
X0270400Y0246800D01*
X0270400Y0256800D02*
X0263200Y0256800D01*
X0263200Y0266800D02*
X0270400Y0266800D01*
X0270400Y0276800D02*
X0263200Y0276800D01*
X0353200Y0276800D02*
X0360400Y0276800D01*
X0360400Y0266800D02*
X0353200Y0266800D01*
X0353200Y0256800D02*
X0360400Y0256800D01*
X0360400Y0246800D02*
X0353200Y0246800D01*
X0353200Y0236800D02*
X0360400Y0236800D01*
X0360400Y0226800D02*
X0353200Y0226800D01*
X0353200Y0216800D02*
X0360400Y0216800D01*
X0360400Y0206800D02*
X0353200Y0206800D01*
X0353200Y0131800D02*
X0360400Y0131800D01*
X0360400Y0121800D02*
X0353200Y0121800D01*
X0353200Y0111800D02*
X0360400Y0111800D01*
X0360400Y0101800D02*
X0353200Y0101800D01*
X0353200Y0091800D02*
X0360400Y0091800D01*
X0360400Y0081800D02*
X0353200Y0081800D01*
X0353200Y0071800D02*
X0360400Y0071800D01*
X0360400Y0061800D02*
X0353200Y0061800D01*
X0270400Y0061800D02*
X0263200Y0061800D01*
X0263200Y0071800D02*
X0270400Y0071800D01*
X0270400Y0081800D02*
X0263200Y0081800D01*
X0263200Y0091800D02*
X0270400Y0091800D01*
X0270400Y0101800D02*
X0263200Y0101800D01*
X0263200Y0111800D02*
X0270400Y0111800D01*
X0270400Y0121800D02*
X0263200Y0121800D01*
X0263200Y0131800D02*
X0270400Y0131800D01*
D16*
X0031800Y0031800D03*
X0031800Y0286800D03*
X0391800Y0286800D03*
X0391800Y0031800D03*
D17*
X0391800Y0096800D03*
X0391800Y0106800D03*
X0391800Y0136800D03*
X0391800Y0146800D03*
X0391800Y0176800D03*
X0391800Y0186800D03*
D18*
X0081800Y0283100D02*
X0081800Y0290500D01*
X0071800Y0290500D02*
X0071800Y0283100D01*
D19*
X0081800Y0041800D03*
D20*
X0081800Y0031800D03*
M02*
